<svg width="18" height="18" viewBox="0 0 18 18" fill="none" xmlns="http://www.w3.org/2000/svg">
<path d="M12.75 13.4888V17.9888H15.75C16.9926 17.9888 18 16.9814 18 15.7388V8.89805C18.0002 8.50842 17.8488 8.134 17.5777 7.85405L11.2043 0.96378C10.0797 -0.252977 8.18167 -0.327684 6.96491 0.796894C6.90711 0.850331 6.85143 0.905984 6.79802 0.96378L0.435762 7.8518C0.156551 8.13291 -0.000105416 8.51309 5.32206e-08 8.9093V15.7388C5.32206e-08 16.9814 1.00737 17.9888 2.25 17.9888H5.24999V13.4888C5.26402 11.4437 6.9152 9.77362 8.9088 9.72553C10.9691 9.67582 12.7343 11.3743 12.75 13.4888Z" fill="white"/>
<path d="M9 11.2388C7.75737 11.2388 6.75 12.2461 6.75 13.4888V17.9888H11.25V13.4888C11.25 12.2461 10.2426 11.2388 9 11.2388Z" fill="white"/>
</svg>
