<svg width="19" height="19" viewBox="0 0 19 19" fill="none" xmlns="http://www.w3.org/2000/svg">
<path d="M18.845 11.8582L17.7533 7.93445C16.9702 5.12615 14.3913 3.16429 11.4722 3.16429C8.39496 3.16429 5.77651 5.26063 5.12784 8.20341L4.05198 12.048C3.80675 13.1634 4.07571 14.3184 4.78767 15.2044C5.49964 16.0983 6.56759 16.6046 7.71464 16.6046H8.7905C8.96453 17.9415 10.0958 18.9778 11.4801 18.9778C12.8645 18.9778 13.9958 17.9415 14.1698 16.6046H15.2456C16.4243 16.6046 17.516 16.0667 18.2359 15.1253C18.9479 14.1839 19.1773 12.9894 18.8608 11.8503L18.845 11.8582ZM16.3294 13.6935C16.0684 14.0415 15.6649 14.2393 15.2377 14.2393H7.70673C7.28746 14.2393 6.89193 14.0494 6.63087 13.7251C6.36982 13.4008 6.26698 12.9736 6.34609 12.6255L7.42194 8.7809C7.84912 6.8665 9.51037 5.5375 11.4722 5.5375C13.3313 5.5375 14.9688 6.7874 15.4671 8.57522L16.5588 12.4989C16.6775 12.9261 16.5905 13.3454 16.3294 13.7014V13.6935ZM2.39073 9.46122C2.31953 9.80929 2.41446 10.2286 2.67551 10.5608C2.71507 10.6083 2.75462 10.6557 2.80208 10.6953C3.27673 11.1462 3.29255 11.8977 2.83373 12.3724C2.60432 12.6176 2.28789 12.7363 1.97937 12.7363C1.67085 12.7363 1.38607 12.6255 1.15665 12.404C1.03799 12.2933 0.927244 12.1667 0.824405 12.0401C0.11244 11.1541 -0.156524 9.99915 0.0887078 8.88374L1.16457 5.03913C1.82116 2.09634 4.4396 0 7.51687 0C7.84121 0 8.16555 0.0237322 8.48198 0.0711965C9.13066 0.166125 9.57366 0.77525 9.47873 1.42393C9.3838 2.07261 8.78259 2.51561 8.126 2.42068C7.92032 2.38904 7.71464 2.37322 7.50896 2.37322C5.55501 2.37322 3.88585 3.71013 3.45867 5.61661L2.38282 9.46122H2.39073Z" fill="#7D7D7D"/>
</svg>
