<svg width="17" height="17" viewBox="0 0 17 17" fill="none" xmlns="http://www.w3.org/2000/svg">
<g clip-path="url(#clip0_1_661)">
<path d="M12.0417 0H14.1667C14.9181 0 15.6388 0.298511 16.1701 0.829864C16.7015 1.36122 17 2.08189 17 2.83333V4.95833C17 5.70978 16.7015 6.43045 16.1701 6.9618C15.6388 7.49316 14.9181 7.79167 14.1667 7.79167H12.0417C11.2902 7.79167 10.5695 7.49316 10.0382 6.9618C9.50684 6.43045 9.20833 5.70978 9.20833 4.95833V2.83333C9.20833 2.08189 9.50684 1.36122 10.0382 0.829864C10.5695 0.298511 11.2902 0 12.0417 0ZM10.625 4.95833C10.625 5.33406 10.7743 5.69439 11.0399 5.96007C11.3056 6.22575 11.6659 6.375 12.0417 6.375H14.1667C14.5424 6.375 14.9027 6.22575 15.1684 5.96007C15.4341 5.69439 15.5833 5.33406 15.5833 4.95833V2.83333C15.5833 2.45761 15.4341 2.09728 15.1684 1.8316C14.9027 1.56592 14.5424 1.41667 14.1667 1.41667H12.0417C11.6659 1.41667 11.3056 1.56592 11.0399 1.8316C10.7743 2.09728 10.625 2.45761 10.625 2.83333V4.95833Z" fill="white"/>
<path d="M2.83341 0H4.95841C5.70986 0 6.43053 0.298511 6.96188 0.829864C7.49324 1.36122 7.79175 2.08189 7.79175 2.83333V4.95833C7.79175 5.70978 7.49324 6.43045 6.96188 6.9618C6.43053 7.49316 5.70986 7.79167 4.95841 7.79167H2.83341C2.08197 7.79167 1.3613 7.49316 0.829945 6.9618C0.298592 6.43045 8.01086e-05 5.70978 8.01086e-05 4.95833V2.83333C8.01086e-05 2.08189 0.298592 1.36122 0.829945 0.829864C1.3613 0.298511 2.08197 0 2.83341 0ZM1.41675 4.95833C1.41675 5.33406 1.566 5.69439 1.83168 5.96007C2.09736 6.22575 2.45769 6.375 2.83341 6.375H4.95841C5.33414 6.375 5.69447 6.22575 5.96015 5.96007C6.22583 5.69439 6.37508 5.33406 6.37508 4.95833V2.83333C6.37508 2.45761 6.22583 2.09728 5.96015 1.8316C5.69447 1.56592 5.33414 1.41667 4.95841 1.41667H2.83341C2.45769 1.41667 2.09736 1.56592 1.83168 1.8316C1.566 2.09728 1.41675 2.45761 1.41675 2.83333V4.95833Z" fill="white"/>
<path d="M12.0417 9.2085H14.1667C14.9181 9.2085 15.6388 9.50701 16.1701 10.0384C16.7015 10.5697 17 11.2904 17 12.0418V14.1668C17 14.9183 16.7015 15.6389 16.1701 16.1703C15.6388 16.7017 14.9181 17.0002 14.1667 17.0002H12.0417C11.2902 17.0002 10.5695 16.7017 10.0382 16.1703C9.50684 15.6389 9.20833 14.9183 9.20833 14.1668V12.0418C9.20833 11.2904 9.50684 10.5697 10.0382 10.0384C10.5695 9.50701 11.2902 9.2085 12.0417 9.2085ZM10.625 14.1668C10.625 14.5426 10.7743 14.9029 11.0399 15.1686C11.3056 15.4342 11.6659 15.5835 12.0417 15.5835H14.1667C14.5424 15.5835 14.9027 15.4342 15.1684 15.1686C15.4341 14.9029 15.5833 14.5426 15.5833 14.1668V12.0418C15.5833 11.6661 15.4341 11.3058 15.1684 11.0401C14.9027 10.7744 14.5424 10.6252 14.1667 10.6252H12.0417C11.6659 10.6252 11.3056 10.7744 11.0399 11.0401C10.7743 11.3058 10.625 11.6661 10.625 12.0418V14.1668Z" fill="white"/>
<path d="M2.83341 9.2085H4.95841C5.70986 9.2085 6.43053 9.50701 6.96188 10.0384C7.49324 10.5697 7.79175 11.2904 7.79175 12.0418V14.1668C7.79175 14.9183 7.49324 15.6389 6.96188 16.1703C6.43053 16.7017 5.70986 17.0002 4.95841 17.0002H2.83341C2.08197 17.0002 1.3613 16.7017 0.829945 16.1703C0.298592 15.6389 8.01086e-05 14.9183 8.01086e-05 14.1668V12.0418C8.01086e-05 11.2904 0.298592 10.5697 0.829945 10.0384C1.3613 9.50701 2.08197 9.2085 2.83341 9.2085ZM1.41675 14.1668C1.41675 14.5426 1.566 14.9029 1.83168 15.1686C2.09736 15.4342 2.45769 15.5835 2.83341 15.5835H4.95841C5.33414 15.5835 5.69447 15.4342 5.96015 15.1686C6.22583 14.9029 6.37508 14.5426 6.37508 14.1668V12.0418C6.37508 11.6661 6.22583 11.3058 5.96015 11.0401C5.69447 10.7744 5.33414 10.6252 4.95841 10.6252H2.83341C2.45769 10.6252 2.09736 10.7744 1.83168 11.0401C1.566 11.3058 1.41675 11.6661 1.41675 12.0418V14.1668Z" fill="white"/>
</g>
<defs>
<clipPath id="clip0_1_661">
<rect width="17" height="17" fill="white" transform="matrix(-1 0 0 1 17 0)"/>
</clipPath>
</defs>
</svg>
