<svg width="23" height="23" viewBox="0 0 23 23" fill="none" xmlns="http://www.w3.org/2000/svg">
<g id="apps (2) 1" clip-path="url(#clip0_1_2090)">
<g id="Group">
<path id="Vector" d="M3.83332 0H6.70832C8.8254 0 10.5416 1.71624 10.5416 3.83332V6.70832C10.5416 8.8254 8.8254 10.5416 6.70832 10.5416H3.83332C1.71624 10.5417 0 8.82544 0 6.70832V3.83332C0 1.71624 1.71624 0 3.83332 0Z" fill="black"/>
<path id="Vector_2" d="M16.2917 0H19.1667C21.2838 0 23 1.71624 23 3.83332V6.70832C23 8.8254 21.2838 10.5416 19.1667 10.5416H16.2917C14.1746 10.5416 12.4584 8.8254 12.4584 6.70832V3.83332C12.4583 1.71624 14.1746 0 16.2917 0Z" fill="black"/>
<path id="Vector_3" d="M3.83332 12.4585H6.70832C8.8254 12.4585 10.5416 14.1747 10.5416 16.2918V19.1668C10.5416 21.2839 8.8254 23.0001 6.70832 23.0001H3.83332C1.71624 23.0002 0 21.2839 0 19.1669V16.2919C0 14.1747 1.71624 12.4585 3.83332 12.4585Z" fill="black"/>
<path id="Vector_4" d="M16.2917 12.4585H19.1667C21.2838 12.4585 23 14.1747 23 16.2918V19.1668C23 21.2839 21.2838 23.0002 19.1667 23.0002H16.2917C14.1746 23.0002 12.4584 21.2839 12.4584 19.1669V16.2919C12.4583 14.1747 14.1746 12.4585 16.2917 12.4585Z" fill="black"/>
</g>
</g>
<defs>
<clipPath id="clip0_1_2090">
<rect width="23" height="23" fill="white"/>
</clipPath>
</defs>
</svg>
