<svg width="18" height="9" viewBox="0 0 18 9" fill="none" xmlns="http://www.w3.org/2000/svg">
<path d="M17.7932 4.78698L13.7225 8.85772C13.5762 9.02847 13.3192 9.04838 13.1485 8.90212C12.9777 8.75589 12.9578 8.4989 13.1041 8.32815C13.1177 8.31224 13.1326 8.29737 13.1485 8.28376L16.5231 4.90504H0.407061C0.182261 4.90504 0 4.72278 0 4.49795C0 4.27311 0.182261 4.09089 0.407061 4.09089H16.5231L13.1485 0.716262C12.9777 0.570034 12.9578 0.313049 13.1041 0.142297C13.2504 -0.028454 13.5073 -0.0483586 13.6781 0.0979048C13.694 0.111548 13.7088 0.12638 13.7225 0.142297L17.7932 4.21305C17.951 4.37176 17.951 4.62819 17.7932 4.78698Z" fill="black"/>
</svg>
