<svg width="678" height="350" viewBox="0 0 678 350" fill="none" xmlns="http://www.w3.org/2000/svg">
<g clip-path="url(#clip0_301_688)">
<mask id="path-1-inside-1_301_688" fill="white">
<path d="M267 216.88C267 234.362 263.547 251.672 256.838 267.823C250.129 283.974 240.295 298.649 227.899 311.01C215.502 323.372 200.785 333.177 184.588 339.867C168.391 346.557 151.031 350 133.5 350L133.5 291.161C143.283 291.161 152.969 289.24 162.007 285.507C171.045 281.774 179.257 276.302 186.175 269.405C193.092 262.507 198.579 254.319 202.323 245.306C206.066 236.294 207.993 226.635 207.993 216.88H267Z"/>
</mask>
<path d="M267 216.88C267 234.362 263.547 251.672 256.838 267.823C250.129 283.974 240.295 298.649 227.899 311.01C215.502 323.372 200.785 333.177 184.588 339.867C168.391 346.557 151.031 350 133.5 350L133.5 291.161C143.283 291.161 152.969 289.24 162.007 285.507C171.045 281.774 179.257 276.302 186.175 269.405C193.092 262.507 198.579 254.319 202.323 245.306C206.066 236.294 207.993 226.635 207.993 216.88H267Z" stroke="#D9D9D9" stroke-width="118" mask="url(#path-1-inside-1_301_688)"/>
<ellipse cx="235" cy="175.499" rx="32" ry="31.9088" fill="#F5F3F3"/>
<mask id="path-3-inside-2_301_688" fill="white">
<path d="M470 133.12C470 97.8141 455.935 63.9546 430.899 38.9898C405.863 14.025 371.906 -5.83697e-05 336.5 -6.10352e-05C301.094 -6.37006e-05 267.137 14.025 242.101 38.9898C217.065 63.9545 203 97.8141 203 133.12L262.007 133.12C262.007 113.419 269.855 94.5255 283.825 80.5952C297.796 66.6648 316.743 58.8388 336.5 58.8388C356.257 58.8388 375.204 66.6648 389.175 80.5952C403.145 94.5255 410.993 113.419 410.993 133.12H470Z"/>
</mask>
<path d="M470 133.12C470 97.8141 455.935 63.9546 430.899 38.9898C405.863 14.025 371.906 -5.83697e-05 336.5 -6.10352e-05C301.094 -6.37006e-05 267.137 14.025 242.101 38.9898C217.065 63.9545 203 97.8141 203 133.12L262.007 133.12C262.007 113.419 269.855 94.5255 283.825 80.5952C297.796 66.6648 316.743 58.8388 336.5 58.8388C356.257 58.8388 375.204 66.6648 389.175 80.5952C403.145 94.5255 410.993 113.419 410.993 133.12H470Z" stroke="#936EE3" stroke-width="118" mask="url(#path-3-inside-2_301_688)"/>
<mask id="path-4-inside-3_301_688" fill="white">
<path d="M544.5 266.239C526.969 266.239 509.609 262.796 493.412 256.106C477.215 249.416 462.498 239.611 450.101 227.249C437.705 214.888 427.871 200.213 421.162 184.062C414.453 167.912 411 150.601 411 133.12L470.007 133.12C470.007 142.874 471.934 152.534 475.677 161.546C479.421 170.558 484.908 178.746 491.825 185.644C498.743 192.542 506.955 198.013 515.993 201.746C525.031 205.479 534.717 207.4 544.5 207.4L544.5 266.239Z"/>
</mask>
<path d="M544.5 266.239C526.969 266.239 509.609 262.796 493.412 256.106C477.215 249.416 462.498 239.611 450.101 227.249C437.705 214.888 427.871 200.213 421.162 184.062C414.453 167.912 411 150.601 411 133.12L470.007 133.12C470.007 142.874 471.934 152.534 475.677 161.546C479.421 170.558 484.908 178.746 491.825 185.644C498.743 192.542 506.955 198.013 515.993 201.746C525.031 205.479 534.717 207.4 544.5 207.4L544.5 266.239Z" stroke="#936EE3" stroke-width="118" mask="url(#path-4-inside-3_301_688)"/>
</g>
<defs>
<clipPath id="clip0_301_688">
<rect width="678" height="350" fill="white"/>
</clipPath>
</defs>
</svg>
