<svg width="383" height="351" viewBox="0 0 383 351" fill="none" xmlns="http://www.w3.org/2000/svg">
<mask id="path-1-inside-1_0_1" fill="white">
<path d="M105 217.5C105 235.031 101.547 252.391 94.8379 268.588C88.1289 284.785 78.2954 299.502 65.8988 311.899C53.5021 324.295 38.7852 334.129 22.5882 340.838C6.39127 347.547 -10.9685 351 -28.5 351L-28.5 291.993C-18.7174 291.993 -9.03067 290.066 0.00723614 286.323C9.04514 282.579 17.2572 277.092 24.1745 270.175C31.0918 263.257 36.5789 255.045 40.3226 246.007C44.0662 236.969 45.993 227.283 45.993 217.5H105Z"/>
</mask>
<path d="M105 217.5C105 235.031 101.547 252.391 94.8379 268.588C88.1289 284.785 78.2954 299.502 65.8988 311.899C53.5021 324.295 38.7852 334.129 22.5882 340.838C6.39127 347.547 -10.9685 351 -28.5 351L-28.5 291.993C-18.7174 291.993 -9.03067 290.066 0.00723614 286.323C9.04514 282.579 17.2572 277.092 24.1745 270.175C31.0918 263.257 36.5789 255.045 40.3226 246.007C44.0662 236.969 45.993 227.283 45.993 217.5H105Z" stroke="#D9D9D9" stroke-width="118" mask="url(#path-1-inside-1_0_1)"/>
<mask id="path-2-inside-2_0_1" fill="white">
<path d="M308 133.5C308 98.0936 293.935 64.1374 268.899 39.1012C243.863 14.0651 209.906 2.67311e-06 174.5 0C139.094 -2.67311e-06 105.137 14.0651 80.1013 39.1012C55.0651 64.1373 41 98.0936 41 133.5L100.007 133.5C100.007 113.743 107.855 94.7956 121.825 80.8255C135.796 66.8553 154.743 59.007 174.5 59.007C194.257 59.007 213.204 66.8553 227.175 80.8255C241.145 94.7956 248.993 113.743 248.993 133.5H308Z"/>
</mask>
<path d="M308 133.5C308 98.0936 293.935 64.1374 268.899 39.1012C243.863 14.0651 209.906 2.67311e-06 174.5 0C139.094 -2.67311e-06 105.137 14.0651 80.1013 39.1012C55.0651 64.1373 41 98.0936 41 133.5L100.007 133.5C100.007 113.743 107.855 94.7956 121.825 80.8255C135.796 66.8553 154.743 59.007 174.5 59.007C194.257 59.007 213.204 66.8553 227.175 80.8255C241.145 94.7956 248.993 113.743 248.993 133.5H308Z" stroke="#936EE3" stroke-width="118" mask="url(#path-2-inside-2_0_1)"/>
<mask id="path-3-inside-3_0_1" fill="white">
<path d="M382.5 267C347.094 267 313.137 252.935 288.101 227.899C263.065 202.863 249 168.906 249 133.5L308.007 133.5C308.007 153.257 315.855 172.204 329.825 186.175C343.796 200.145 362.743 207.993 382.5 207.993L382.5 267Z"/>
</mask>
<path d="M382.5 267C347.094 267 313.137 252.935 288.101 227.899C263.065 202.863 249 168.906 249 133.5L308.007 133.5C308.007 153.257 315.855 172.204 329.825 186.175C343.796 200.145 362.743 207.993 382.5 207.993L382.5 267Z" stroke="#936EE3" stroke-width="118" mask="url(#path-3-inside-3_0_1)"/>
<circle cx="73" cy="174" r="32" fill="#D9D9D9"/>
</svg>
