<svg width="23" height="23" viewBox="0 0 23 23" fill="none" xmlns="http://www.w3.org/2000/svg">
<g clip-path="url(#clip0_1_2958)">
<path d="M23 21.5625C23 21.9438 22.8486 22.3094 22.579 22.579C22.3094 22.8486 21.9438 23 21.5625 23H1.4375C1.05625 23 0.690618 22.8486 0.421034 22.579C0.15145 22.3094 0 21.9438 0 21.5625C0 21.1813 0.15145 20.8156 0.421034 20.5461C0.690618 20.2765 1.05625 20.125 1.4375 20.125H21.5625C21.9438 20.125 22.3094 20.2765 22.579 20.5461C22.8486 20.8156 23 21.1813 23 21.5625ZM0.354583 8.95182C0.103259 8.48988 -0.0178996 7.96836 0.00404229 7.44294C0.0259842 6.91751 0.190203 6.40791 0.479167 5.96853C0.911328 5.30463 1.49839 4.75572 2.18979 4.36907L9.0505 0.624863C9.80124 0.212991 10.6437 -0.00292969 11.5 -0.00292969C12.3563 -0.00292969 13.1988 0.212991 13.9495 0.624863L20.8112 4.36907C21.5019 4.75549 22.0885 5.30367 22.5208 5.96661C22.8106 6.40593 22.9755 6.91568 22.9982 7.44145C23.0208 7.96721 22.9002 8.48925 22.6493 8.95182C22.4029 9.41264 22.0404 9.80102 21.5976 10.0784C21.1548 10.3558 20.6471 10.5125 20.125 10.5331V15.3334H20.6042C20.9854 15.3334 21.3511 15.4848 21.6206 15.7544C21.8902 16.024 22.0417 16.3896 22.0417 16.7709C22.0417 17.1521 21.8902 17.5177 21.6206 17.7873C21.3511 18.0569 20.9854 18.2084 20.6042 18.2084H2.39583C2.01458 18.2084 1.64895 18.0569 1.37937 17.7873C1.10978 17.5177 0.958333 17.1521 0.958333 16.7709C0.958333 16.3896 1.10978 16.024 1.37937 15.7544C1.64895 15.4848 2.01458 15.3334 2.39583 15.3334H2.875V10.5331C2.35355 10.5119 1.84669 10.3548 1.40461 10.0775C0.962525 9.80012 0.600568 9.41209 0.354583 8.95182ZM5.75 15.3334H7.66667V10.5417H5.75V15.3334ZM10.5417 10.5417V15.3334H12.4583V10.5417H10.5417ZM17.25 15.3334V10.5417H15.3333V15.3334H17.25ZM2.875 7.5584C2.88077 7.58791 2.89628 7.61463 2.91904 7.63426C2.94181 7.6539 2.97051 7.66532 3.00054 7.6667H19.9995C20.0295 7.66442 20.058 7.65244 20.0806 7.63256C20.1033 7.61269 20.1189 7.58599 20.125 7.55649C19.9502 7.28377 19.7135 7.05621 19.434 6.89236L12.5724 3.14911C12.244 2.96901 11.8755 2.8746 11.501 2.8746C11.1264 2.8746 10.7579 2.96901 10.4295 3.14911L3.56692 6.89236C3.28591 7.05528 3.04851 7.28381 2.875 7.5584Z" fill="#1E1E1E"/>
</g>
<defs>
<clipPath id="clip0_1_2958">
<rect width="23" height="23" fill="white"/>
</clipPath>
</defs>
</svg>
