<svg width="23" height="23" viewBox="0 0 23 23" fill="none" xmlns="http://www.w3.org/2000/svg">
<g id="calendar-lines (3) 1" clip-path="url(#clip0_1_2103)">
<path id="Vector" d="M17.25 11.9792C17.25 12.7736 16.606 13.4167 15.8125 13.4167H7.1875C6.394 13.4167 5.75 12.7736 5.75 11.9792C5.75 11.1847 6.394 10.5417 7.1875 10.5417H15.8125C16.606 10.5417 17.25 11.1847 17.25 11.9792ZM11.0208 15.3333H7.1875C6.394 15.3333 5.75 15.9764 5.75 16.7708C5.75 17.5653 6.394 18.2083 7.1875 18.2083H11.0208C11.8143 18.2083 12.4583 17.5653 12.4583 16.7708C12.4583 15.9764 11.8143 15.3333 11.0208 15.3333ZM23 7.1875V17.7292C23 20.6358 20.6348 23 17.7292 23H5.27083C2.36517 23 0 20.6358 0 17.7292V7.1875C0 4.28087 2.36517 1.91667 5.27083 1.91667H5.75V1.4375C5.75 0.643042 6.394 0 7.1875 0C7.981 0 8.625 0.643042 8.625 1.4375V1.91667H14.375V1.4375C14.375 0.643042 15.019 0 15.8125 0C16.606 0 17.25 0.643042 17.25 1.4375V1.91667H17.7292C20.6348 1.91667 23 4.28087 23 7.1875ZM20.125 17.7292V8.625H2.875V17.7292C2.875 19.0497 3.94929 20.125 5.27083 20.125H17.7292C19.0507 20.125 20.125 19.0497 20.125 17.7292Z" fill="black"/>
</g>
<defs>
<clipPath id="clip0_1_2103">
<rect width="23" height="23" fill="white"/>
</clipPath>
</defs>
</svg>
