<svg width="42" height="42" viewBox="0 0 42 42" fill="none" xmlns="http://www.w3.org/2000/svg">
<g id="1F4F7 1">
<g id="color">
<path id="Vector" d="M19.7473 16.3369C16.6643 16.3369 14.1565 18.8447 14.1565 21.9277C14.1565 25.0107 16.6643 27.5185 19.7473 27.5185C22.8303 27.5185 25.3381 25.0107 25.3381 21.9277C25.3381 18.8447 22.8303 16.3369 19.7473 16.3369ZM19.7473 24.8443C18.1389 24.8443 16.8306 23.536 16.8306 21.9276C16.8306 20.3193 18.1389 19.011 19.7473 19.011C21.3557 19.011 22.664 20.3193 22.664 21.9276C22.664 23.536 21.3557 24.8443 19.7473 24.8443Z" fill="#3F3F3F"/>
<path id="Vector_2" d="M19.7473 24.8444C21.3581 24.8444 22.6639 23.5386 22.6639 21.9278C22.6639 20.317 21.3581 19.0112 19.7473 19.0112C18.1365 19.0112 16.8307 20.317 16.8307 21.9278C16.8307 23.5386 18.1365 24.8444 19.7473 24.8444Z" fill="#D0CFCE"/>
<path id="Vector_3" d="M33.793 13.3687H8.90733C8.21806 13.3687 7.07327 14.4913 7.07327 15.1549L7.33968 19.3651H12.0335L14.4539 19.4753C14.4468 19.4878 16.3655 16.0945 19.7472 16.0945C22.1683 16.0945 24.8475 19.0174 24.8448 19.0113L26.8237 19.1858L35.1674 19.3201L35.0434 15.1549C35.0434 14.4913 34.4823 13.3687 33.793 13.3687Z" fill="white"/>
<path id="Vector_4" d="M16.8106 11.1903C16.8005 11.3422 16.023 9.92871 16.023 9.92871H10.7525C10.7525 9.92871 10.0048 11.3893 9.99088 11.3513V13.2933L16.8106 13.2243V11.1903Z" fill="#F1B31C"/>
<path id="Vector_5" d="M33.2341 30.6355C33.3114 30.634 35.0434 29.5911 35.0434 29.5129L35.1674 19.3201L28.8805 19.1881L27.4904 18.7817H25.3374C25.3401 18.7879 25.3431 18.7957 25.3458 18.8019C25.3458 18.8019 25.3459 18.802 25.3458 18.8019C25.4738 19.0301 24.9581 19.2667 25.0578 19.511C25.0643 19.5271 25.2306 24.1754 25.1483 24.2613C24.8998 24.521 23.8278 26.1341 23.3636 26.504C21.971 27.6137 20.6883 27.6882 20.6375 27.6931C20.4361 27.7125 19.4718 27.759 19.4048 27.7507C19.3407 27.7427 18.0399 27.5274 16.9531 26.9378C15.915 26.3745 15.0874 25.4356 15.0807 25.4279C14.7586 25.0579 14.5045 24.2752 14.4973 24.2613C14.4279 24.1278 13.897 23.0212 14.0071 21.4717C14.0549 20.7996 14.7935 18.8469 14.7935 18.8469L12.0335 18.7817C12.1388 18.7817 6.83667 19.0112 6.83667 19.0112L6.89664 28.7007C6.89664 28.7007 7.18877 29.5213 7.61046 29.9638C8.1046 30.4826 8.74014 30.6355 8.74469 30.6355C8.74469 30.6355 33.2257 30.6356 33.2341 30.6355Z" fill="#9B9B9A"/>
</g>
<g id="line">
<path id="Vector_6" d="M8.90733 13.3687C7.89437 13.3687 7.07327 14.1684 7.07327 15.1549V28.7007C7.07327 29.6872 7.89437 30.487 8.90733 30.487H33.2093C34.2223 30.487 35.0434 29.6872 35.0434 28.7007V15.1549C35.0434 14.1684 34.2223 13.3687 33.2093 13.3687H8.90733Z" stroke="black" stroke-width="2" stroke-miterlimit="10" stroke-linecap="round" stroke-linejoin="round"/>
<path id="Vector_7" d="M27.5054 19.3652H34.777" stroke="black" stroke-width="2" stroke-miterlimit="10" stroke-linecap="round" stroke-linejoin="round"/>
<path id="Vector_8" d="M7.33968 19.3652H12.0335" stroke="black" stroke-width="2" stroke-miterlimit="10" stroke-linecap="round" stroke-linejoin="round"/>
<path id="Vector_9" d="M19.7472 27.7614C22.9689 27.7614 25.5806 25.1497 25.5806 21.9281C25.5806 18.7064 22.9689 16.0947 19.7472 16.0947C16.5256 16.0947 13.9139 18.7064 13.9139 21.9281C13.9139 25.1497 16.5256 27.7614 19.7472 27.7614Z" stroke="black" stroke-width="2" stroke-miterlimit="10" stroke-linecap="round" stroke-linejoin="round"/>
<path id="Vector_10" d="M19.7472 24.8446C21.3581 24.8446 22.6639 23.5387 22.6639 21.9279C22.6639 20.3171 21.3581 19.0112 19.7472 19.0112C18.1364 19.0112 16.8306 20.3171 16.8306 21.9279C16.8306 23.5387 18.1364 24.8446 19.7472 24.8446Z" stroke="black" stroke-width="2" stroke-miterlimit="10" stroke-linecap="round" stroke-linejoin="round"/>
<path id="Vector_11" d="M16.2348 11.1531V10.5242C16.2348 10.1953 15.9611 9.92871 15.6234 9.92871H11.1454C10.8078 9.92871 10.5341 10.1953 10.5341 10.5242V11.1531" stroke="black" stroke-width="2" stroke-miterlimit="10" stroke-linecap="round" stroke-linejoin="round"/>
</g>
</g>
</svg>
