<svg width="40" height="32" viewBox="0 0 40 32" fill="none" xmlns="http://www.w3.org/2000/svg">
<path d="M37.399 31.5794L2.59322 31.5794C1.16381 31.5794 0 30.4155 0 28.9783L0 3.01461C0 1.5852 1.16381 0.421387 2.59322 0.421387L37.3911 0.421387C38.8283 0.421387 39.9921 1.5852 39.9921 3.01461V28.9783C39.9922 30.4155 38.8284 31.5794 37.399 31.5794Z" fill="#D3D2CD"/>
<path d="M37.399 0.420898L19.9961 0.420898V31.5789H37.3989C38.8362 31.5789 39.9922 30.4151 39.9922 28.9856V3.01419C39.9922 1.58477 38.8284 0.420898 37.399 0.420898Z" fill="#B3B2B2"/>
<path d="M39.9922 16.535V15.4649H26.0183V10.7393L29.627 7.13061H39.9922C39.9922 6.76348 39.9531 6.40416 39.8907 6.06051H29.4005C29.2599 6.06051 29.1193 6.12301 29.0256 6.22453L25.2607 9.98163H20.5351V0.420898L19.465 0.420898V9.9737L14.794 9.9737L11.0369 6.2166C10.9354 6.11508 10.7948 6.05258 10.6542 6.05258L0.109324 6.05258C0.0468252 6.4041 0.0078042 6.76335 0.0078042 7.12267L10.4355 7.12267L13.9738 10.6611V15.4492H0L0 16.5193H13.9738V21.3074L10.4355 24.8692H0.0078042C0.0078042 25.2363 0.0468908 25.5956 0.109324 25.9393H10.662C10.8026 25.9393 10.9432 25.8768 11.0447 25.7752L14.8018 22.0181H19.4728V31.5709H20.5429V22.0183H25.2685L29.0334 25.7754C29.1271 25.8769 29.2677 25.9394 29.4083 25.9394L39.8985 25.9394C39.961 25.5879 40 25.2286 40 24.8693L29.6192 24.8693L26.0105 21.2606V16.535L39.9922 16.535ZM24.9483 20.9482H15.0439L15.0439 11.0439L24.9405 11.0439V20.9482H24.9483Z" fill="#8C8C8C"/>
<path d="M39.9922 16.535V15.4649L26.0183 15.4649V10.7393L29.627 7.13061H39.9922C39.9922 6.76348 39.9531 6.40416 39.8906 6.06052H29.4005C29.2599 6.06052 29.1193 6.12301 29.0256 6.22453L25.2606 9.98163H20.535V0.420898L19.9961 0.420898V11.0438H24.9483V20.9481H19.9961V31.5711H20.535V22.0183H25.2606L29.0256 25.7754C29.1193 25.8769 29.2599 25.9394 29.4005 25.9394H39.8906C39.9531 25.5879 39.9922 25.2364 39.9922 24.8693H29.6192L26.0105 21.2606V16.535H39.9922Z" fill="#767676"/>
</svg>
