<svg width="13" height="13" viewBox="0 0 13 13" fill="none" xmlns="http://www.w3.org/2000/svg">
<path d="M11.7806 0.280587C11.6009 0.100927 11.3572 0 11.103 0C10.8489 0 10.6052 0.100927 10.4255 0.280587L6.03059 4.6755L1.63567 0.280587C1.45596 0.100927 1.21224 0 0.958129 0C0.704013 0 0.460301 0.100927 0.280587 0.280587C0.100927 0.460301 0 0.704013 0 0.958129C0 1.21224 0.100927 1.45596 0.280587 1.63567L4.6755 6.03059L0.280587 10.4255C0.100927 10.6052 0 10.8489 0 11.103C0 11.3572 0.100927 11.6009 0.280587 11.7806C0.460301 11.9602 0.704013 12.0612 0.958129 12.0612C1.21224 12.0612 1.45596 11.9602 1.63567 11.7806L6.03059 7.38567L10.4255 11.7806C10.6052 11.9602 10.8489 12.0612 11.103 12.0612C11.3572 12.0612 11.6009 11.9602 11.7806 11.7806C11.9602 11.6009 12.0612 11.3572 12.0612 11.103C12.0612 10.8489 11.9602 10.6052 11.7806 10.4255L7.38567 6.03059L11.7806 1.63567C11.9602 1.45596 12.0612 1.21224 12.0612 0.958129C12.0612 0.704013 11.9602 0.460301 11.7806 0.280587Z" fill="white"/>
</svg>
