<svg width="23" height="23" viewBox="0 0 23 23" fill="none" xmlns="http://www.w3.org/2000/svg">
<path d="M17.2501 5.74983C17.0704 5.57017 16.8266 5.46924 16.5725 5.46924C16.3184 5.46924 16.0747 5.57017 15.895 5.74983L11.5001 10.1447L7.10515 5.74983C6.92544 5.57017 6.68173 5.46924 6.42761 5.46924C6.1735 5.46924 5.92978 5.57017 5.75007 5.74983C5.57041 5.92954 5.46948 6.17325 5.46948 6.42737C5.46948 6.68148 5.57041 6.92519 5.75007 7.10491L10.145 11.4998L5.75007 15.8947C5.57041 16.0745 5.46948 16.3182 5.46948 16.5723C5.46948 16.8264 5.57041 17.0701 5.75007 17.2498C5.92978 17.4295 6.1735 17.5304 6.42761 17.5304C6.68173 17.5304 6.92544 17.4295 7.10515 17.2498L11.5001 12.8549L15.895 17.2498C16.0747 17.4295 16.3184 17.5304 16.5725 17.5304C16.8266 17.5304 17.0704 17.4295 17.2501 17.2498C17.4297 17.0701 17.5307 16.8264 17.5307 16.5723C17.5307 16.3182 17.4297 16.0745 17.2501 15.8947L12.8552 11.4998L17.2501 7.10491C17.4297 6.92519 17.5307 6.68148 17.5307 6.42737C17.5307 6.17325 17.4297 5.92954 17.2501 5.74983Z" fill="black"/>
</svg>
