<svg width="23" height="23" viewBox="0 0 23 23" fill="none" xmlns="http://www.w3.org/2000/svg">
<g id="coins 1" clip-path="url(#clip0_88_6853)">
<path id="Vector" d="M15.8125 0C11.7817 0 8.625 1.89462 8.625 4.3125V6.79171C8.16117 6.73708 7.68104 6.70833 7.1875 6.70833C3.15675 6.70833 0 8.60296 0 11.0208V18.6875C0 21.1054 3.15675 23 7.1875 23C10.4612 23 13.1589 21.7503 14.0559 19.9851C14.628 20.0685 15.2126 20.125 15.8125 20.125C19.8433 20.125 23 18.2304 23 15.8125V4.3125C23 1.89462 19.8433 0 15.8125 0ZM15.8125 1.91667C18.8293 1.91667 21.0833 3.18167 21.0833 4.3125C21.0833 5.44333 18.8293 6.70833 15.8125 6.70833C12.7957 6.70833 10.5417 5.44333 10.5417 4.3125C10.5417 3.18167 12.7957 1.91667 15.8125 1.91667ZM7.1875 8.625C10.2043 8.625 12.4583 9.89 12.4583 11.0208C12.4583 12.1517 10.2043 13.4167 7.1875 13.4167C4.17067 13.4167 1.91667 12.1517 1.91667 11.0208C1.91667 9.89 4.17067 8.625 7.1875 8.625ZM1.91667 13.9744C3.22 14.813 5.08204 15.3333 7.1875 15.3333C9.29296 15.3333 11.155 14.813 12.4583 13.9744V14.8542C12.4583 15.985 10.2043 17.25 7.1875 17.25C4.17067 17.25 1.91667 15.985 1.91667 14.8542V13.9744ZM7.1875 21.0833C4.17067 21.0833 1.91667 19.8183 1.91667 18.6875V17.8078C3.22 18.6463 5.08204 19.1667 7.1875 19.1667C9.29296 19.1667 11.155 18.6463 12.4583 17.8078V18.6875C12.4583 19.8183 10.2043 21.0833 7.1875 21.0833ZM15.8125 18.2083C15.3199 18.2083 14.8427 18.1633 14.375 18.0972V16.1997C14.8465 16.2552 15.3237 16.2917 15.8125 16.2917C17.918 16.2917 19.78 15.7713 21.0833 14.9327V15.8125C21.0833 16.9433 18.8293 18.2083 15.8125 18.2083ZM15.8125 14.375C15.3199 14.375 14.8427 14.33 14.375 14.2638V12.3663C14.8465 12.4219 15.3237 12.4583 15.8125 12.4583C17.918 12.4583 19.78 11.938 21.0833 11.0994V11.9792C21.0833 13.11 18.8293 14.375 15.8125 14.375ZM15.8125 10.5417C15.2931 10.5417 14.7909 10.4928 14.3003 10.42C14.1105 9.56992 13.525 8.80612 12.651 8.19567C13.6016 8.46879 14.6692 8.62596 15.8125 8.62596C17.918 8.62596 19.78 8.10558 21.0833 7.26704V8.14679C21.0833 9.27763 18.8293 10.5426 15.8125 10.5426V10.5417Z" fill="white"/>
</g>
<defs>
<clipPath id="clip0_88_6853">
<rect width="23" height="23" fill="white"/>
</clipPath>
</defs>
</svg>
