<svg width="22" height="22" viewBox="0 0 22 22" fill="none" xmlns="http://www.w3.org/2000/svg">
<g clip-path="url(#clip0_1_223)">
<path d="M4.58341 12.8333C5.08968 12.8333 5.50008 12.4229 5.50008 11.9167C5.50008 11.4104 5.08968 11 4.58341 11C4.07715 11 3.66675 11.4104 3.66675 11.9167C3.66675 12.4229 4.07715 12.8333 4.58341 12.8333Z" fill="#936EE3"/>
<path d="M0.916667 9.16683C1.42293 9.16683 1.83333 8.75642 1.83333 8.25016C1.83333 7.7439 1.42293 7.3335 0.916667 7.3335C0.410406 7.3335 0 7.7439 0 8.25016C0 8.75642 0.410406 9.16683 0.916667 9.16683Z" fill="#936EE3"/>
<path d="M4.58341 5.49984C5.08968 5.49984 5.50008 5.08943 5.50008 4.58317C5.50008 4.07691 5.08968 3.6665 4.58341 3.6665C4.07715 3.6665 3.66675 4.07691 3.66675 4.58317C3.66675 5.08943 4.07715 5.49984 4.58341 5.49984Z" fill="#936EE3"/>
<path d="M0.916667 1.83333C1.42293 1.83333 1.83333 1.42293 1.83333 0.916667C1.83333 0.410406 1.42293 0 0.916667 0C0.410406 0 0 0.410406 0 0.916667C0 1.42293 0.410406 1.83333 0.916667 1.83333Z" fill="#936EE3"/>
<path d="M21.0834 12.8333C21.5897 12.8333 22.0001 12.4229 22.0001 11.9167C22.0001 11.4104 21.5897 11 21.0834 11C20.5772 11 20.1667 11.4104 20.1667 11.9167C20.1667 12.4229 20.5772 12.8333 21.0834 12.8333Z" fill="#936EE3"/>
<path d="M17.4167 9.16683C17.9229 9.16683 18.3333 8.75642 18.3333 8.25016C18.3333 7.7439 17.9229 7.3335 17.4167 7.3335C16.9104 7.3335 16.5 7.7439 16.5 8.25016C16.5 8.75642 16.9104 9.16683 17.4167 9.16683Z" fill="#936EE3"/>
<path d="M21.0834 5.49984C21.5897 5.49984 22.0001 5.08943 22.0001 4.58317C22.0001 4.07691 21.5897 3.6665 21.0834 3.6665C20.5772 3.6665 20.1667 4.07691 20.1667 4.58317C20.1667 5.08943 20.5772 5.49984 21.0834 5.49984Z" fill="#936EE3"/>
<path d="M17.4167 1.83333C17.9229 1.83333 18.3333 1.42293 18.3333 0.916667C18.3333 0.410406 17.9229 0 17.4167 0C16.9104 0 16.5 0.410406 16.5 0.916667C16.5 1.42293 16.9104 1.83333 17.4167 1.83333Z" fill="#936EE3"/>
<path d="M12.8334 21.9998C13.3397 21.9998 13.7501 21.5894 13.7501 21.0832C13.7501 20.5769 13.3397 20.1665 12.8334 20.1665C12.3272 20.1665 11.9167 20.5769 11.9167 21.0832C11.9167 21.5894 12.3272 21.9998 12.8334 21.9998Z" fill="#936EE3"/>
<path d="M9.16667 18.3333C9.67293 18.3333 10.0833 17.9229 10.0833 17.4167C10.0833 16.9104 9.67293 16.5 9.16667 16.5C8.66041 16.5 8.25 16.9104 8.25 17.4167C8.25 17.9229 8.66041 18.3333 9.16667 18.3333Z" fill="#936EE3"/>
<path d="M12.8334 14.6668C13.3397 14.6668 13.7501 14.2564 13.7501 13.7502C13.7501 13.2439 13.3397 12.8335 12.8334 12.8335C12.3272 12.8335 11.9167 13.2439 11.9167 13.7502C11.9167 14.2564 12.3272 14.6668 12.8334 14.6668Z" fill="#936EE3"/>
<path d="M9.16667 10.9998C9.67293 10.9998 10.0833 10.5894 10.0833 10.0832C10.0833 9.57691 9.67293 9.1665 9.16667 9.1665C8.66041 9.1665 8.25 9.57691 8.25 10.0832C8.25 10.5894 8.66041 10.9998 9.16667 10.9998Z" fill="#936EE3"/>
<path d="M13.7499 2.75C13.2637 2.75 12.7974 2.55685 12.4536 2.21303C12.1097 1.86921 11.9166 1.4029 11.9166 0.916667C11.9166 0.673552 11.82 0.440394 11.6481 0.268485C11.4762 0.0965771 11.243 0 10.9999 0C10.7568 0 10.5236 0.0965771 10.3517 0.268485C10.1798 0.440394 10.0833 0.673552 10.0833 0.916667C10.0833 1.4029 9.8901 1.86921 9.54628 2.21303C9.20246 2.55685 8.73615 2.75 8.24992 2.75C8.0068 2.75 7.77365 2.84658 7.60174 3.01849C7.42983 3.19039 7.33325 3.42355 7.33325 3.66667C7.33325 3.90978 7.42983 4.14294 7.60174 4.31485C7.77365 4.48676 8.0068 4.58333 8.24992 4.58333C8.73615 4.58333 9.20246 4.77649 9.54628 5.1203C9.8901 5.46412 10.0833 5.93044 10.0833 6.41667C10.0833 6.65978 10.1798 6.89294 10.3517 7.06485C10.5236 7.23676 10.7568 7.33333 10.9999 7.33333C11.243 7.33333 11.4762 7.23676 11.6481 7.06485C11.82 6.89294 11.9166 6.65978 11.9166 6.41667C11.9166 5.93044 12.1097 5.46412 12.4536 5.1203C12.7974 4.77649 13.2637 4.58333 13.7499 4.58333C13.993 4.58333 14.2262 4.48676 14.3981 4.31485C14.57 4.14294 14.6666 3.90978 14.6666 3.66667C14.6666 3.42355 14.57 3.19039 14.3981 3.01849C14.2262 2.84658 13.993 2.75 13.7499 2.75Z" fill="#936EE3"/>
<path d="M6.41667 17.4165C5.93044 17.4165 5.46412 17.2233 5.1203 16.8795C4.77649 16.5357 4.58333 16.0694 4.58333 15.5832C4.58333 15.3401 4.48676 15.1069 4.31485 14.935C4.14294 14.7631 3.90978 14.6665 3.66667 14.6665C3.42355 14.6665 3.19039 14.7631 3.01849 14.935C2.84658 15.1069 2.75 15.3401 2.75 15.5832C2.75 16.0694 2.55685 16.5357 2.21303 16.8795C1.86921 17.2233 1.4029 17.4165 0.916667 17.4165C0.673552 17.4165 0.440394 17.5131 0.268485 17.685C0.0965771 17.8569 0 18.0901 0 18.3332C0 18.5763 0.0965771 18.8094 0.268485 18.9814C0.440394 19.1533 0.673552 19.2498 0.916667 19.2498C1.4029 19.2498 1.86921 19.443 2.21303 19.7868C2.55685 20.1306 2.75 20.5969 2.75 21.0832C2.75 21.3263 2.84658 21.5594 3.01849 21.7314C3.19039 21.9033 3.42355 21.9998 3.66667 21.9998C3.90978 21.9998 4.14294 21.9033 4.31485 21.7314C4.48676 21.5594 4.58333 21.3263 4.58333 21.0832C4.58333 20.5969 4.77649 20.1306 5.1203 19.7868C5.46412 19.443 5.93044 19.2498 6.41667 19.2498C6.65978 19.2498 6.89294 19.1533 7.06485 18.9814C7.23676 18.8094 7.33333 18.5763 7.33333 18.3332C7.33333 18.0901 7.23676 17.8569 7.06485 17.685C6.89294 17.5131 6.65978 17.4165 6.41667 17.4165Z" fill="#936EE3"/>
<path d="M21.0834 17.4165C20.5972 17.4165 20.1309 17.2233 19.7871 16.8795C19.4432 16.5357 19.2501 16.0694 19.2501 15.5832C19.2501 15.3401 19.1535 15.1069 18.9816 14.935C18.8097 14.7631 18.5765 14.6665 18.3334 14.6665C18.0903 14.6665 17.8571 14.7631 17.6852 14.935C17.5133 15.1069 17.4167 15.3401 17.4167 15.5832C17.4167 16.0694 17.2236 16.5357 16.8798 16.8795C16.536 17.2233 16.0696 17.4165 15.5834 17.4165C15.3403 17.4165 15.1071 17.5131 14.9352 17.685C14.7633 17.8569 14.6667 18.0901 14.6667 18.3332C14.6667 18.5763 14.7633 18.8094 14.9352 18.9814C15.1071 19.1533 15.3403 19.2498 15.5834 19.2498C16.0696 19.2498 16.536 19.443 16.8798 19.7868C17.2236 20.1306 17.4167 20.5969 17.4167 21.0832C17.4167 21.3263 17.5133 21.5594 17.6852 21.7314C17.8571 21.9033 18.0903 21.9998 18.3334 21.9998C18.5765 21.9998 18.8097 21.9033 18.9816 21.7314C19.1535 21.5594 19.2501 21.3263 19.2501 21.0832C19.2501 20.5969 19.4432 20.1306 19.7871 19.7868C20.1309 19.443 20.5972 19.2498 21.0834 19.2498C21.3265 19.2498 21.5597 19.1533 21.7316 18.9814C21.9035 18.8094 22.0001 18.5763 22.0001 18.3332C22.0001 18.0901 21.9035 17.8569 21.7316 17.685C21.5597 17.5131 21.3265 17.4165 21.0834 17.4165Z" fill="#936EE3"/>
</g>
<defs>
<clipPath id="clip0_1_223">
<rect width="22" height="22" fill="white"/>
</clipPath>
</defs>
</svg>
