<svg width="685" height="392" viewBox="0 0 685 392" fill="none" xmlns="http://www.w3.org/2000/svg">
<mask id="path-1-inside-1_549_729" fill="white">
<path d="M133.5 392C151.031 392 168.391 388.547 184.588 381.838C200.785 375.129 215.502 365.295 227.899 352.899C240.295 340.502 250.129 325.785 256.838 309.588C263.547 293.391 267 276.031 267 258.5H207.544C207.544 268.224 205.629 277.852 201.908 286.835C198.187 295.819 192.733 303.982 185.857 310.857C178.982 317.733 170.819 323.187 161.835 326.908C152.852 330.629 143.224 332.544 133.5 332.544L133.5 392Z"/>
</mask>
<path d="M133.5 392C151.031 392 168.391 388.547 184.588 381.838C200.785 375.129 215.502 365.295 227.899 352.899C240.295 340.502 250.129 325.785 256.838 309.588C263.547 293.391 267 276.031 267 258.5H207.544C207.544 268.224 205.629 277.852 201.908 286.835C198.187 295.819 192.733 303.982 185.857 310.857C178.982 317.733 170.819 323.187 161.835 326.908C152.852 330.629 143.224 332.544 133.5 332.544L133.5 392Z" stroke="#D9D9D9" stroke-width="118" mask="url(#path-1-inside-1_549_729)"/>
<path d="M280 196.5C280 190.46 277.35 184.763 272.855 181.182C273.375 175.157 271.222 169.255 266.954 164.98C262.686 160.712 256.803 158.561 251.08 159.204C243.606 149.71 227.457 149.532 220.157 159.074C214.129 158.539 208.239 160.705 203.971 164.98C199.707 169.251 197.554 175.157 198.2 180.866C188.713 188.347 188.531 204.508 198.07 211.818C197.55 217.843 199.703 223.745 203.971 228.02C208.239 232.288 214.129 234.446 219.845 233.796C227.32 243.29 243.468 243.468 250.769 233.926C256.781 234.431 262.682 232.295 266.954 228.02C271.219 223.749 273.371 217.843 272.726 212.134C277.35 208.241 280 202.543 280 196.504V196.5ZM256.024 191.174L238.436 208.141C234.119 212.453 227.056 212.416 222.74 208.093L214.382 200.322C212.882 198.925 212.793 196.574 214.189 195.074C215.588 193.569 217.941 193.488 219.433 194.881L227.888 202.744C229.439 204.293 231.785 204.289 233.232 202.837L250.869 185.821C252.346 184.402 254.695 184.443 256.117 185.918C257.542 187.392 257.498 189.747 256.024 191.17V191.174Z" fill="#02B602"/>
<mask id="path-3-inside-2_549_729" fill="white">
<path d="M417.5 133.5C417.5 151.031 420.953 168.391 427.662 184.588C434.371 200.785 444.205 215.502 456.601 227.899C468.998 240.295 483.715 250.129 499.912 256.838C516.109 263.547 533.469 267 551 267L551 207.592C541.27 207.592 531.635 205.676 522.646 201.953C513.657 198.229 505.489 192.771 498.609 185.891C491.729 179.011 486.271 170.843 482.547 161.854C478.824 152.865 476.908 143.23 476.908 133.5L417.5 133.5Z"/>
</mask>
<path d="M417.5 133.5C417.5 151.031 420.953 168.391 427.662 184.588C434.371 200.785 444.205 215.502 456.601 227.899C468.998 240.295 483.715 250.129 499.912 256.838C516.109 263.547 533.469 267 551 267L551 207.592C541.27 207.592 531.635 205.676 522.646 201.953C513.657 198.229 505.489 192.771 498.609 185.891C491.729 179.011 486.271 170.843 482.547 161.854C478.824 152.865 476.908 143.23 476.908 133.5L417.5 133.5Z" stroke="#936EE3" stroke-width="118" mask="url(#path-3-inside-2_549_729)"/>
<mask id="path-4-inside-3_549_729" fill="white">
<path d="M477 133.5C477 98.0936 462.935 64.1374 437.899 39.1012C412.863 14.0651 378.906 2.67311e-06 343.5 0C308.094 -2.67311e-06 274.137 14.0651 249.101 39.1012C224.065 64.1373 210 98.0936 210 133.5L269.408 133.5C269.408 113.849 277.214 95.0037 291.109 81.1087C305.004 67.2136 323.849 59.4075 343.5 59.4075C363.151 59.4075 381.996 67.2137 395.891 81.1087C409.786 95.0037 417.592 113.849 417.592 133.5H477Z"/>
</mask>
<path d="M477 133.5C477 98.0936 462.935 64.1374 437.899 39.1012C412.863 14.0651 378.906 2.67311e-06 343.5 0C308.094 -2.67311e-06 274.137 14.0651 249.101 39.1012C224.065 64.1373 210 98.0936 210 133.5L269.408 133.5C269.408 113.849 277.214 95.0037 291.109 81.1087C305.004 67.2136 323.849 59.4075 343.5 59.4075C363.151 59.4075 381.996 67.2137 395.891 81.1087C409.786 95.0037 417.592 113.849 417.592 133.5H477Z" stroke="#936EE3" stroke-width="118" mask="url(#path-4-inside-3_549_729)"/>
</svg>
