<svg width="430" height="404" viewBox="0 0 430 404" fill="none" xmlns="http://www.w3.org/2000/svg">
<rect width="430" height="404" fill="#CBCBCB"/>
<mask id="path-1-inside-1_0_1" fill="white">
<path d="M0.30314 404C18.334 404 36.1884 400.441 52.8468 393.527C69.5052 386.613 84.6414 376.478 97.3911 363.702C110.141 350.926 120.255 335.758 127.155 319.066C134.055 302.373 137.606 284.482 137.606 266.413H76.4567C76.4567 276.435 74.487 286.358 70.6599 295.616C66.8328 304.875 61.2234 313.287 54.1519 320.373C47.0803 327.459 38.6852 333.08 29.4459 336.915C20.2065 340.75 10.3038 342.724 0.303143 342.724L0.30314 404Z"/>
</mask>
<path d="M0.30314 404C18.334 404 36.1884 400.441 52.8468 393.527C69.5052 386.613 84.6414 376.478 97.3911 363.702C110.141 350.926 120.255 335.758 127.155 319.066C134.055 302.373 137.606 284.482 137.606 266.413H76.4567C76.4567 276.435 74.487 286.358 70.6599 295.616C66.8328 304.875 61.2234 313.287 54.1519 320.373C47.0803 327.459 38.6852 333.08 29.4459 336.915C20.2065 340.75 10.3038 342.724 0.303143 342.724L0.30314 404Z" stroke="#D9D9D9" stroke-width="118" mask="url(#path-1-inside-1_0_1)"/>
<path d="M150.977 202.515C150.977 196.291 148.251 190.418 143.629 186.728C144.163 180.519 141.949 174.436 137.559 170.03C133.169 165.632 127.119 163.415 121.233 164.077C113.545 154.293 96.9369 154.109 89.4285 163.943C83.2294 163.392 77.1715 165.624 72.7818 170.03C68.3958 174.432 66.1819 180.519 66.8461 186.403C57.0894 194.112 56.9023 210.768 66.7125 218.302C66.178 224.511 68.392 230.594 72.7818 235C77.1715 239.399 83.2294 241.623 89.1078 240.953C96.7956 250.737 113.404 250.921 120.913 241.087C127.096 241.607 133.166 239.406 137.559 235C141.945 230.598 144.159 224.511 143.495 218.627C148.251 214.616 150.977 208.743 150.977 202.519V202.515ZM126.318 197.026L108.228 214.512C103.789 218.957 96.5246 218.918 92.0852 214.462L83.4889 206.454C81.9468 205.015 81.8552 202.592 83.2904 201.045C84.7295 199.495 87.1496 199.411 88.6841 200.846L97.3796 208.95C98.9752 210.546 101.388 210.543 102.876 209.046L121.016 191.509C122.535 190.047 124.951 190.089 126.413 191.609C127.879 193.129 127.833 195.556 126.318 197.022V197.026Z" fill="#02B602"/>
<mask id="path-3-inside-2_0_1" fill="white">
<path d="M292.394 137.587C292.394 155.655 295.945 173.546 302.845 190.239C309.745 206.932 319.859 222.099 332.609 234.875C345.359 247.651 360.495 257.786 377.153 264.7C393.812 271.615 411.666 275.173 429.697 275.173L429.697 213.947C419.69 213.947 409.781 211.972 400.535 208.135C391.29 204.297 382.889 198.673 375.813 191.582C368.737 184.491 363.124 176.073 359.294 166.809C355.465 157.544 353.494 147.615 353.494 137.587L292.394 137.587Z"/>
</mask>
<path d="M292.394 137.587C292.394 155.655 295.945 173.546 302.845 190.239C309.745 206.932 319.859 222.099 332.609 234.875C345.359 247.651 360.495 257.786 377.153 264.7C393.812 271.615 411.666 275.173 429.697 275.173L429.697 213.947C419.69 213.947 409.781 211.972 400.535 208.135C391.29 204.297 382.889 198.673 375.813 191.582C368.737 184.491 363.124 176.073 359.294 166.809C355.465 157.544 353.494 147.615 353.494 137.587L292.394 137.587Z" stroke="#936EE3" stroke-width="118" mask="url(#path-3-inside-2_0_1)"/>
<mask id="path-4-inside-3_0_1" fill="white">
<path d="M353.589 137.587C353.589 101.096 339.123 66.1006 313.374 40.2981C287.624 14.4956 252.701 -0.000119315 216.286 -0.00012207C179.871 -0.000124825 144.947 14.4956 119.198 40.2981C93.4483 66.1006 78.9825 101.096 78.9825 137.587L140.082 137.587C140.082 117.334 148.111 97.9119 162.402 83.5915C176.693 69.2711 196.075 61.226 216.286 61.226C236.496 61.226 255.879 69.2711 270.169 83.5915C284.46 97.9119 292.489 117.335 292.489 137.587H353.589Z"/>
</mask>
<path d="M353.589 137.587C353.589 101.096 339.123 66.1006 313.374 40.2981C287.624 14.4956 252.701 -0.000119315 216.286 -0.00012207C179.871 -0.000124825 144.947 14.4956 119.198 40.2981C93.4483 66.1006 78.9825 101.096 78.9825 137.587L140.082 137.587C140.082 117.334 148.111 97.9119 162.402 83.5915C176.693 69.2711 196.075 61.226 216.286 61.226C236.496 61.226 255.879 69.2711 270.169 83.5915C284.46 97.9119 292.489 117.335 292.489 137.587H353.589Z" stroke="#936EE3" stroke-width="118" mask="url(#path-4-inside-3_0_1)"/>
</svg>
