<svg width="23" height="23" viewBox="0 0 23 23" fill="none" xmlns="http://www.w3.org/2000/svg">
<g id="credit-card (4) 1" clip-path="url(#clip0_1_1084)">
<path id="Vector" d="M5.27075 16.2916C6.06466 16.2916 6.70825 15.648 6.70825 14.8541C6.70825 14.0602 6.06466 13.4166 5.27075 13.4166C4.47684 13.4166 3.83325 14.0602 3.83325 14.8541C3.83325 15.648 4.47684 16.2916 5.27075 16.2916Z" fill="white"/>
<path id="Vector_2" d="M18.2083 2.875H4.79167C3.5213 2.87652 2.30341 3.38185 1.40513 4.28013C0.506845 5.17841 0.0015217 6.3963 0 7.66667L0 15.3333C0.0015217 16.6037 0.506845 17.8216 1.40513 18.7199C2.30341 19.6182 3.5213 20.1235 4.79167 20.125H18.2083C19.4787 20.1235 20.6966 19.6182 21.5949 18.7199C22.4932 17.8216 22.9985 16.6037 23 15.3333V7.66667C22.9985 6.3963 22.4932 5.17841 21.5949 4.28013C20.6966 3.38185 19.4787 2.87652 18.2083 2.875ZM4.79167 4.79167H18.2083C18.9708 4.79167 19.7021 5.09457 20.2413 5.63373C20.7804 6.1729 21.0833 6.90417 21.0833 7.66667H1.91667C1.91667 6.90417 2.21957 6.1729 2.75873 5.63373C3.2979 5.09457 4.02917 4.79167 4.79167 4.79167ZM18.2083 18.2083H4.79167C4.02917 18.2083 3.2979 17.9054 2.75873 17.3663C2.21957 16.8271 1.91667 16.0958 1.91667 15.3333V9.58333H21.0833V15.3333C21.0833 16.0958 20.7804 16.8271 20.2413 17.3663C19.7021 17.9054 18.9708 18.2083 18.2083 18.2083Z" fill="white"/>
</g>
<defs>
<clipPath id="clip0_1_1084">
<rect width="23" height="23" fill="white"/>
</clipPath>
</defs>
</svg>
