<svg width="23" height="23" viewBox="0 0 23 23" fill="none" xmlns="http://www.w3.org/2000/svg">
<g clip-path="url(#clip0_1_569)">
<path d="M18.2083 1.91653H9.54116C8.81112 1.91427 8.09035 2.08 7.43461 2.40089C6.77887 2.72178 6.20574 3.18923 5.75958 3.76707L0.201244 10.9114C0.0703788 11.0797 -0.000671387 11.2867 -0.000671387 11.4999C-0.000671387 11.713 0.0703788 11.92 0.201244 12.0883L5.75958 19.2327C6.20574 19.8105 6.77887 20.2779 7.43461 20.5988C8.09035 20.9197 8.81112 21.0854 9.54116 21.0832H18.2083C19.4787 21.0817 20.6966 20.5763 21.5949 19.6781C22.4932 18.7798 22.9985 17.5619 23 16.2915V6.70819C22.9985 5.43783 22.4932 4.21994 21.5949 3.32165C20.6966 2.42337 19.4787 1.91805 18.2083 1.91653ZM21.0833 16.2915C21.0833 17.054 20.7804 17.7853 20.2413 18.3245C19.7021 18.8636 18.9708 19.1665 18.2083 19.1665H9.54116C9.10311 19.168 8.67059 19.0687 8.27707 18.8763C7.88355 18.6839 7.5396 18.4035 7.27183 18.0568L2.17254 11.4999L7.27183 4.94294C7.5396 4.59626 7.88355 4.31585 8.27707 4.12341C8.67059 3.93097 9.10311 3.83167 9.54116 3.83319H18.2083C18.9708 3.83319 19.7021 4.13609 20.2413 4.67526C20.7804 5.21443 21.0833 5.9457 21.0833 6.70819V16.2915ZM16.49 9.78157L14.7717 11.4999L16.49 13.2182C16.5816 13.3066 16.6546 13.4123 16.7048 13.5292C16.755 13.6461 16.7815 13.7719 16.7826 13.8991C16.7837 14.0264 16.7594 14.1526 16.7112 14.2704C16.6631 14.3881 16.5919 14.4951 16.5019 14.5851C16.4119 14.6751 16.3049 14.7463 16.1872 14.7944C16.0694 14.8426 15.9432 14.8669 15.8159 14.8658C15.6887 14.8647 15.5629 14.8382 15.446 14.788C15.3291 14.7378 15.2234 14.6648 15.135 14.5732L13.4167 12.8549L11.6984 14.5732C11.5176 14.7478 11.2755 14.8444 11.0243 14.8422C10.773 14.84 10.5326 14.7392 10.355 14.5616C10.1773 14.3839 10.0765 14.1435 10.0743 13.8922C10.0721 13.641 10.1687 13.3989 10.3433 13.2182L12.0616 11.4999L10.3433 9.78157C10.1687 9.60082 10.0721 9.35875 10.0743 9.10748C10.0765 8.8562 10.1773 8.61584 10.355 8.43816C10.5326 8.26048 10.773 8.15969 11.0243 8.15751C11.2755 8.15532 11.5176 8.25192 11.6984 8.42649L13.4167 10.1448L15.135 8.42649C15.3157 8.25192 15.5578 8.15532 15.809 8.15751C16.0603 8.15969 16.3007 8.26048 16.4784 8.43816C16.656 8.61584 16.7568 8.8562 16.759 9.10748C16.7612 9.35875 16.6646 9.60082 16.49 9.78157Z" fill="black"/>
</g>
<defs>
<clipPath id="clip0_1_569">
<rect width="23" height="23" fill="white"/>
</clipPath>
</defs>
</svg>
