<svg width="51" height="51" viewBox="0 0 51 51" fill="none" xmlns="http://www.w3.org/2000/svg">
<path fill-rule="evenodd" clip-rule="evenodd" d="M7.96875 19.125V14.875C7.96875 13.0433 8.6955 11.2859 9.99175 9.99175C11.2859 8.6955 13.0433 7.96875 14.875 7.96875H19.125C20.0048 7.96875 20.7188 7.25475 20.7188 6.375C20.7188 5.49525 20.0048 4.78125 19.125 4.78125H14.875C12.1975 4.78125 9.6305 5.84375 7.73713 7.73713C5.84375 9.6305 4.78125 12.1975 4.78125 14.875V19.125C4.78125 20.0048 5.49525 20.7188 6.375 20.7188C7.25475 20.7188 7.96875 20.0048 7.96875 19.125Z" fill="#936EE3"/>
<path fill-rule="evenodd" clip-rule="evenodd" d="M31.875 7.96875H36.125C37.9567 7.96875 39.7141 8.6955 41.0083 9.99175C42.3045 11.2859 43.0312 13.0433 43.0312 14.875V19.125C43.0312 20.0048 43.7452 20.7188 44.625 20.7188C45.5048 20.7188 46.2188 20.0048 46.2188 19.125V14.875C46.2188 12.1975 45.1562 9.6305 43.2629 7.73713C41.3695 5.84375 38.8025 4.78125 36.125 4.78125C33.7833 4.78125 31.875 4.78125 31.875 4.78125C30.9952 4.78125 30.2812 5.49525 30.2812 6.375C30.2812 7.25475 30.9952 7.96875 31.875 7.96875Z" fill="#936EE3"/>
<path fill-rule="evenodd" clip-rule="evenodd" d="M4.78125 31.875V36.125C4.78125 38.8025 5.84375 41.3695 7.73713 43.2629C9.6305 45.1562 12.1975 46.2188 14.875 46.2188H19.125C20.0048 46.2188 20.7188 45.5048 20.7188 44.625C20.7188 43.7452 20.0048 43.0312 19.125 43.0312H14.875C13.0433 43.0312 11.2859 42.3045 9.99175 41.0083C8.6955 39.7141 7.96875 37.9567 7.96875 36.125C7.96875 33.7833 7.96875 31.875 7.96875 31.875C7.96875 30.9952 7.25475 30.2812 6.375 30.2812C5.49525 30.2812 4.78125 30.9952 4.78125 31.875Z" fill="#936EE3"/>
<path fill-rule="evenodd" clip-rule="evenodd" d="M31.875 46.2188H36.125C38.8025 46.2188 41.3695 45.1562 43.2629 43.2629C45.1562 41.3695 46.2188 38.8025 46.2188 36.125C46.2188 33.7833 46.2188 31.875 46.2188 31.875C46.2188 30.9952 45.5048 30.2812 44.625 30.2812C43.7452 30.2812 43.0312 30.9952 43.0312 31.875V36.125C43.0312 37.9567 42.3045 39.7141 41.0083 41.0083C39.7141 42.3045 37.9567 43.0312 36.125 43.0312C33.7833 43.0312 31.875 43.0312 31.875 43.0312C30.9952 43.0312 30.2812 43.7452 30.2812 44.625C30.2812 45.5048 30.9952 46.2188 31.875 46.2188Z" fill="#936EE3"/>
<path fill-rule="evenodd" clip-rule="evenodd" d="M31.3438 18.0625V20.1875C31.3438 21.0672 32.0577 21.7812 32.9375 21.7812C33.8173 21.7812 34.5312 21.0672 34.5312 20.1875V18.0625C34.5312 17.1827 33.8173 16.4688 32.9375 16.4688C32.0577 16.4688 31.3438 17.1827 31.3438 18.0625Z" fill="#D9D9D9"/>
<path fill-rule="evenodd" clip-rule="evenodd" d="M16.4688 18.0625V20.1875C16.4688 21.0672 17.1827 21.7812 18.0625 21.7812C18.9423 21.7812 19.6562 21.0672 19.6562 20.1875V18.0625C19.6562 17.1827 18.9423 16.4688 18.0625 16.4688C17.1827 16.4688 16.4688 17.1827 16.4688 18.0625Z" fill="#D9D9D9"/>
<path fill-rule="evenodd" clip-rule="evenodd" d="M24.9687 26.639V21.25C24.9687 20.3702 25.6827 19.6562 26.5625 19.6562C27.4422 19.6562 28.1562 20.3702 28.1562 21.25V27.625C28.1562 28.2285 27.8141 28.781 27.2743 29.0509L25.1493 30.1134C24.3631 30.5065 23.4047 30.1877 23.0116 29.3994C22.6185 28.6131 22.9372 27.6548 23.7256 27.2616L24.9687 26.639Z" fill="#D9D9D9"/>
<path fill-rule="evenodd" clip-rule="evenodd" d="M31.8113 31.8113C32.1003 31.5223 32.4976 31.3438 32.9375 31.3438C33.8172 31.3438 34.5312 32.0578 34.5312 32.9375C34.5312 33.3774 34.3528 33.7748 34.0638 34.0638C33.7748 34.3528 34.0637 34.0659 34.0616 34.068C29.3335 38.7961 21.6665 38.7961 16.9384 34.068C16.9363 34.0659 16.9362 34.0638 16.9362 34.0638C16.6472 33.7748 16.4688 33.3774 16.4688 32.9375C16.4688 32.0578 17.1827 31.3438 18.0625 31.3438C18.5024 31.3438 18.8997 31.5223 19.1887 31.8113C19.4777 32.1003 19.1909 31.8112 19.193 31.8134C22.6759 35.2962 28.3241 35.2962 31.807 31.8134C31.8091 31.8112 31.8113 31.8113 31.8113 31.8113Z" fill="#D9D9D9"/>
</svg>
