<svg width="21" height="23" viewBox="0 0 21 23" fill="none" xmlns="http://www.w3.org/2000/svg">
<path d="M18.1188 5.30535L14.779 1.96556C13.5121 0.698644 11.8274 0.000976883 10.0353 0.000976883H5.70842C3.06629 1.85494e-05 0.916748 2.14956 0.916748 4.79169V18.2084C0.916748 20.8505 3.06629 23 5.70842 23H15.2917C17.9339 23 20.0834 20.8505 20.0834 18.2084V10.0481C20.0834 8.25606 19.3857 6.57323 18.1188 5.30535ZM16.7637 6.66044C17.0685 6.96519 17.3263 7.30348 17.5352 7.66669H13.3751C12.847 7.66669 12.4167 7.23639 12.4167 6.70835V2.54823C12.78 2.75714 13.1192 3.01494 13.423 3.31969L16.7628 6.65948L16.7637 6.66044ZM18.1667 18.2084C18.1667 19.7934 16.8768 21.0834 15.2917 21.0834H5.70842C4.12333 21.0834 2.83341 19.7934 2.83341 18.2084V4.79169C2.83341 3.2066 4.12333 1.91669 5.70842 1.91669H10.0353C10.1915 1.91669 10.3467 1.92435 10.5001 1.93873V6.70835C10.5001 8.29344 11.79 9.58335 13.3751 9.58335H18.1447C18.1591 9.73669 18.1667 9.89194 18.1667 10.0481V18.2084ZM13.8542 12.4584H7.14592C5.82533 12.4584 4.75008 13.5336 4.75008 14.8542V16.7709C4.75008 18.0914 5.82533 19.1667 7.14592 19.1667H13.8542C15.1748 19.1667 16.2501 18.0914 16.2501 16.7709V14.8542C16.2501 13.5336 15.1748 12.4584 13.8542 12.4584ZM14.3334 16.7709C14.3334 17.0354 14.1187 17.25 13.8542 17.25H7.14592C6.88141 17.25 6.66675 17.0354 6.66675 16.7709V14.8542C6.66675 14.5897 6.88141 14.375 7.14592 14.375H13.8542C14.1187 14.375 14.3334 14.5897 14.3334 14.8542V16.7709ZM4.75008 9.58335C4.75008 9.05435 5.17941 8.62502 5.70842 8.62502H7.62508C8.15408 8.62502 8.58342 9.05435 8.58342 9.58335C8.58342 10.1124 8.15408 10.5417 7.62508 10.5417H5.70842C5.17941 10.5417 4.75008 10.1124 4.75008 9.58335ZM4.75008 5.75002C4.75008 5.22102 5.17941 4.79169 5.70842 4.79169H7.62508C8.15408 4.79169 8.58342 5.22102 8.58342 5.75002C8.58342 6.27902 8.15408 6.70835 7.62508 6.70835H5.70842C5.17941 6.70835 4.75008 6.27902 4.75008 5.75002Z" fill="#FFFBFB"/>
</svg>
