<svg width="23" height="23" viewBox="0 0 23 23" fill="none" xmlns="http://www.w3.org/2000/svg">
<g id="form (1) 1" clip-path="url(#clip0_1_2085)">
<path id="Vector" d="M16.2916 16.7709C16.2916 17.1521 16.1402 17.5177 15.8706 17.7873C15.601 18.0569 15.2354 18.2084 14.8541 18.2084H8.14579C7.76454 18.2084 7.39891 18.0569 7.12933 17.7873C6.85974 17.5177 6.70829 17.1521 6.70829 16.7709C6.70829 16.3896 6.85974 16.024 7.12933 15.7544C7.39891 15.4848 7.76454 15.3334 8.14579 15.3334H14.8541C15.2354 15.3334 15.601 15.4848 15.8706 15.7544C16.1402 16.024 16.2916 16.3896 16.2916 16.7709ZM21.0833 6.85881V17.7292C21.0818 19.1266 20.526 20.4664 19.5378 21.4545C18.5497 22.4427 17.2099 22.9985 15.8125 23H7.18746C5.79001 22.9985 4.45024 22.4427 3.4621 21.4545C2.47396 20.4664 1.91815 19.1266 1.91663 17.7292V5.27085C1.91815 3.87341 2.47396 2.53363 3.4621 1.54549C4.45024 0.557348 5.79001 0.00154107 7.18746 1.90719e-05H14.2245C14.9169 -0.00184974 15.6029 0.13364 16.2426 0.398646C16.8824 0.663653 17.4632 1.05291 17.9515 1.54389L19.5394 3.13185C20.0304 3.62014 20.4197 4.20096 20.6847 4.84069C20.9497 5.48042 21.0852 6.16636 21.0833 6.85881ZM18.1939 6.70835H16.2916C15.7833 6.70835 15.2958 6.50642 14.9363 6.14697C14.5769 5.78753 14.375 5.30002 14.375 4.79169V2.89035C14.3242 2.88652 7.18746 2.87502 7.18746 2.87502C6.55204 2.87502 5.94266 3.12744 5.49335 3.57674C5.04404 4.02605 4.79163 4.63544 4.79163 5.27085V17.7292C4.79163 18.3646 5.04404 18.974 5.49335 19.4233C5.94266 19.8726 6.55204 20.125 7.18746 20.125H15.8125C16.4479 20.125 17.0573 19.8726 17.5066 19.4233C17.9559 18.974 18.2083 18.3646 18.2083 17.7292C18.2083 17.7292 18.1968 6.75914 18.1939 6.70835ZM13.8958 8.62502H9.10413C8.46871 8.62502 7.85932 8.87744 7.41002 9.32674C6.96071 9.77605 6.70829 10.3854 6.70829 11.0209C6.70829 11.6563 6.96071 12.2657 7.41002 12.715C7.85932 13.1643 8.46871 13.4167 9.10413 13.4167H13.8958C14.5312 13.4167 15.1406 13.1643 15.5899 12.715C16.0392 12.2657 16.2916 11.6563 16.2916 11.0209C16.2916 10.3854 16.0392 9.77605 15.5899 9.32674C15.1406 8.87744 14.5312 8.62502 13.8958 8.62502Z" fill="black"/>
</g>
<defs>
<clipPath id="clip0_1_2085">
<rect width="23" height="23" fill="white"/>
</clipPath>
</defs>
</svg>
