<svg width="120" height="21" viewBox="0 0 120 21" fill="none" xmlns="http://www.w3.org/2000/svg">
<path d="M11.616 8.816C11.408 8.48 11.112 8.224 10.728 8.048C10.344 7.856 9.88 7.76 9.336 7.76C8.312 7.76 7.52 8.096 6.96 8.768C6.4 9.424 6.12 10.328 6.12 11.48C6.12 12.808 6.432 13.8 7.056 14.456C7.68 15.112 8.64 15.44 9.936 15.44C11.168 15.44 12.16 14.944 12.912 13.952H8.664V10.184H17.328V15.512C16.592 16.776 15.576 17.864 14.28 18.776C12.984 19.672 11.344 20.12 9.36 20.12C7.6 20.12 6.064 19.76 4.752 19.04C3.456 18.304 2.456 17.28 1.752 15.968C1.064 14.656 0.72 13.16 0.72 11.48C0.72 9.8 1.064 8.304 1.752 6.992C2.456 5.68 3.456 4.664 4.752 3.944C6.048 3.208 7.568 2.84 9.312 2.84C11.536 2.84 13.344 3.376 14.736 4.448C16.144 5.52 16.976 6.976 17.232 8.816H11.616ZM21.9349 5.384C21.0069 5.384 20.2629 5.136 19.7029 4.64C19.1429 4.144 18.8629 3.52 18.8629 2.768C18.8629 2 19.1429 1.368 19.7029 0.871999C20.2629 0.359999 21.0069 0.103999 21.9349 0.103999C22.8469 0.103999 23.5829 0.359999 24.1429 0.871999C24.7029 1.368 24.9829 2 24.9829 2.768C24.9829 3.52 24.7029 4.144 24.1429 4.64C23.5829 5.136 22.8469 5.384 21.9349 5.384ZM24.5749 6.464V20H19.2469V6.464H24.5749ZM36.4613 6.368C38.0133 6.368 39.2213 6.888 40.0853 7.928C40.9653 8.968 41.4053 10.376 41.4053 12.152V20H36.1013V12.824C36.1013 12.184 35.9253 11.68 35.5733 11.312C35.2373 10.928 34.7813 10.736 34.2053 10.736C33.6133 10.736 33.1493 10.928 32.8133 11.312C32.4773 11.68 32.3093 12.184 32.3093 12.824V20H26.9813V6.464H32.3093V8.528C32.7253 7.888 33.2773 7.368 33.9653 6.968C34.6693 6.568 35.5013 6.368 36.4613 6.368ZM46.4036 5.384C45.4756 5.384 44.7316 5.136 44.1716 4.64C43.6116 4.144 43.3316 3.52 43.3316 2.768C43.3316 2 43.6116 1.368 44.1716 0.871999C44.7316 0.359999 45.4756 0.103999 46.4036 0.103999C47.3156 0.103999 48.0516 0.359999 48.6116 0.871999C49.1716 1.368 49.4516 2 49.4516 2.768C49.4516 3.52 49.1716 4.144 48.6116 4.64C48.0516 5.136 47.3156 5.384 46.4036 5.384ZM49.0436 6.464V20H43.7156V6.464H49.0436ZM69.45 6.896L65.346 20H63.666L60.042 9.008L56.418 20H54.714L50.61 6.896H52.314L55.578 18.296L59.25 6.896H60.93L64.554 18.32L67.794 6.896H69.45ZM70.9723 13.424C70.9723 12.08 71.2363 10.904 71.7643 9.896C72.3083 8.872 73.0523 8.088 73.9963 7.544C74.9563 6.984 76.0363 6.704 77.2363 6.704C78.4843 6.704 79.5563 6.992 80.4523 7.568C81.3643 8.144 82.0203 8.88 82.4203 9.776V6.896H84.1003V20H82.4203V17.096C82.0043 17.992 81.3403 18.736 80.4283 19.328C79.5323 19.904 78.4603 20.192 77.2123 20.192C76.0283 20.192 74.9563 19.912 73.9963 19.352C73.0523 18.792 72.3083 18 71.7643 16.976C71.2363 15.952 70.9723 14.768 70.9723 13.424ZM82.4203 13.448C82.4203 12.392 82.2043 11.464 81.7723 10.664C81.3403 9.864 80.7483 9.248 79.9963 8.816C79.2603 8.384 78.4443 8.168 77.5483 8.168C76.6203 8.168 75.7883 8.376 75.0523 8.792C74.3163 9.208 73.7323 9.816 73.3003 10.616C72.8843 11.4 72.6763 12.336 72.6763 13.424C72.6763 14.496 72.8843 15.44 73.3003 16.256C73.7323 17.056 74.3163 17.672 75.0523 18.104C75.7883 18.52 76.6203 18.728 77.5483 18.728C78.4443 18.728 79.2603 18.512 79.9963 18.08C80.7483 17.648 81.3403 17.032 81.7723 16.232C82.2043 15.432 82.4203 14.504 82.4203 13.448ZM89.6156 2.24V20H87.9356V2.24H89.6156ZM95.1 2.24V20H93.42V2.24H95.1ZM110.76 12.776C110.76 13.352 110.744 13.792 110.712 14.096H99.8404C99.8884 15.088 100.128 15.936 100.56 16.64C100.992 17.344 101.56 17.88 102.264 18.248C102.968 18.6 103.736 18.776 104.568 18.776C105.656 18.776 106.568 18.512 107.304 17.984C108.056 17.456 108.552 16.744 108.792 15.848H110.568C110.248 17.128 109.56 18.176 108.504 18.992C107.464 19.792 106.152 20.192 104.568 20.192C103.336 20.192 102.232 19.92 101.256 19.376C100.28 18.816 99.5124 18.032 98.9524 17.024C98.4084 16 98.1364 14.808 98.1364 13.448C98.1364 12.088 98.4084 10.896 98.9524 9.872C99.4964 8.848 100.256 8.064 101.232 7.52C102.208 6.976 103.32 6.704 104.568 6.704C105.816 6.704 106.904 6.976 107.832 7.52C108.776 8.064 109.496 8.8 109.992 9.728C110.504 10.64 110.76 11.656 110.76 12.776ZM109.056 12.728C109.072 11.752 108.872 10.92 108.456 10.232C108.056 9.544 107.504 9.024 106.8 8.672C106.096 8.32 105.328 8.144 104.496 8.144C103.248 8.144 102.184 8.544 101.304 9.344C100.424 10.144 99.9364 11.272 99.8404 12.728H109.056ZM116.018 8.312V16.448C116.018 17.248 116.17 17.8 116.474 18.104C116.778 18.408 117.314 18.56 118.082 18.56H119.618V20H117.818C116.634 20 115.754 19.728 115.178 19.184C114.602 18.624 114.314 17.712 114.314 16.448V8.312H112.49V6.896H114.314V3.608H116.018V6.896H119.618V8.312H116.018Z" fill="white"/>
</svg>
