<svg width="96" height="27" viewBox="0 0 96 27" fill="none" xmlns="http://www.w3.org/2000/svg">
<path d="M9.312 2.84C11.536 2.84 13.344 3.376 14.736 4.448C16.144 5.52 16.976 6.976 17.232 8.816H11.616C11.408 8.48 11.112 8.224 10.728 8.048C10.344 7.856 9.88 7.76 9.336 7.76C8.312 7.76 7.52 8.096 6.96 8.768C6.4 9.424 6.12 10.328 6.12 11.48C6.12 12.808 6.432 13.8 7.056 14.456C7.68 15.112 8.64 15.44 9.936 15.44C11.168 15.44 12.16 14.944 12.912 13.952H8.664V10.184H17.328V15.512C16.592 16.776 15.576 17.864 14.28 18.776C12.984 19.672 11.344 20.12 9.36 20.12C7.6 20.12 6.064 19.76 4.752 19.04C3.456 18.304 2.456 17.28 1.752 15.968C1.064 14.656 0.72 13.16 0.72 11.48C0.72 9.8 1.064 8.304 1.752 6.992C2.456 5.68 3.456 4.664 4.752 3.944C6.048 3.208 7.568 2.84 9.312 2.84ZM18.8629 2.768C18.8629 2 19.1429 1.368 19.7029 0.871999C20.2629 0.359999 21.0069 0.103999 21.9349 0.103999C22.8469 0.103999 23.5829 0.359999 24.1429 0.871999C24.7029 1.368 24.9829 2 24.9829 2.768C24.9829 3.52 24.7029 4.144 24.1429 4.64C23.5829 5.136 22.8469 5.384 21.9349 5.384C21.0069 5.384 20.2629 5.136 19.7029 4.64C19.1429 4.144 18.8629 3.52 18.8629 2.768ZM24.5749 6.464V20H19.2469V6.464H24.5749ZM36.4613 6.368C38.0133 6.368 39.2213 6.888 40.0853 7.928C40.9653 8.968 41.4053 10.376 41.4053 12.152V20H36.1013V12.824C36.1013 12.184 35.9253 11.68 35.5733 11.312C35.2373 10.928 34.7813 10.736 34.2053 10.736C33.6133 10.736 33.1493 10.928 32.8133 11.312C32.4773 11.68 32.3093 12.184 32.3093 12.824V20H26.9813V6.464H32.3093V8.528C32.7253 7.888 33.2773 7.368 33.9653 6.968C34.6693 6.568 35.5013 6.368 36.4613 6.368ZM43.3316 2.768C43.3316 2 43.6116 1.368 44.1716 0.871999C44.7316 0.359999 45.4756 0.103999 46.4036 0.103999C47.3156 0.103999 48.0516 0.359999 48.6116 0.871999C49.1716 1.368 49.4516 2 49.4516 2.768C49.4516 3.52 49.1716 4.144 48.6116 4.64C48.0516 5.136 47.3156 5.384 46.4036 5.384C45.4756 5.384 44.7316 5.136 44.1716 4.64C43.6116 4.144 43.3316 3.52 43.3316 2.768ZM49.0436 6.464V20H43.7156V6.464H49.0436ZM59.082 6.728C60.282 6.728 61.338 7 62.25 7.544C63.178 8.072 63.898 8.848 64.41 9.872C64.938 10.88 65.202 12.072 65.202 13.448C65.202 14.808 64.938 16 64.41 17.024C63.898 18.032 63.178 18.808 62.25 19.352C61.322 19.896 60.266 20.168 59.082 20.168C57.738 20.168 56.602 19.824 55.674 19.136C54.746 18.448 54.106 17.536 53.754 16.4V26.192H52.074V6.896H53.754V10.496C54.106 9.36 54.746 8.448 55.674 7.76C56.602 7.072 57.738 6.728 59.082 6.728ZM58.626 8.216C57.698 8.216 56.858 8.432 56.106 8.864C55.37 9.296 54.794 9.912 54.378 10.712C53.962 11.496 53.754 12.408 53.754 13.448C53.754 14.488 53.962 15.408 54.378 16.208C54.794 16.992 55.37 17.6 56.106 18.032C56.858 18.464 57.698 18.68 58.626 18.68C60.114 18.68 61.298 18.216 62.178 17.288C63.058 16.344 63.498 15.064 63.498 13.448C63.498 11.832 63.058 10.56 62.178 9.632C61.298 8.688 60.114 8.216 58.626 8.216ZM73.7424 6.728C75.0704 6.728 76.1984 7.072 77.1264 7.76C78.0704 8.448 78.7184 9.36 79.0704 10.496V6.896H80.7264V20H79.0704V16.4C78.7184 17.536 78.0704 18.448 77.1264 19.136C76.1984 19.824 75.0704 20.168 73.7424 20.168C72.5584 20.168 71.4944 19.896 70.5504 19.352C69.6224 18.808 68.8944 18.032 68.3664 17.024C67.8544 16 67.5984 14.808 67.5984 13.448C67.5984 12.072 67.8544 10.88 68.3664 9.872C68.8944 8.848 69.6224 8.072 70.5504 7.544C71.4784 7 72.5424 6.728 73.7424 6.728ZM74.1744 8.216C72.7024 8.216 71.5184 8.688 70.6224 9.632C69.7424 10.56 69.3024 11.832 69.3024 13.448C69.3024 15.064 69.7424 16.344 70.6224 17.288C71.5184 18.216 72.7024 18.68 74.1744 18.68C75.1024 18.68 75.9344 18.464 76.6704 18.032C77.4224 17.6 78.0064 16.992 78.4224 16.208C78.8544 15.408 79.0704 14.488 79.0704 13.448C79.0704 12.408 78.8544 11.496 78.4224 10.712C78.0064 9.912 77.4224 9.296 76.6704 8.864C75.9344 8.432 75.1024 8.216 74.1744 8.216ZM84.7309 6.896L89.2909 17.816L93.4909 6.896H95.3629L87.6589 26.192H85.7389L88.3789 19.856L82.8589 6.896H84.7309Z" fill="white"/>
</svg>
