<svg width="116" height="21" viewBox="0 0 116 21" fill="none" xmlns="http://www.w3.org/2000/svg">
<path d="M9.312 2.84C11.536 2.84 13.344 3.376 14.736 4.448C16.144 5.52 16.976 6.976 17.232 8.816H11.616C11.408 8.48 11.112 8.224 10.728 8.048C10.344 7.856 9.88 7.76 9.336 7.76C8.312 7.76 7.52 8.096 6.96 8.768C6.4 9.424 6.12 10.328 6.12 11.48C6.12 12.808 6.432 13.8 7.056 14.456C7.68 15.112 8.64 15.44 9.936 15.44C11.168 15.44 12.16 14.944 12.912 13.952H8.664V10.184H17.328V15.512C16.592 16.776 15.576 17.864 14.28 18.776C12.984 19.672 11.344 20.12 9.36 20.12C7.6 20.12 6.064 19.76 4.752 19.04C3.456 18.304 2.456 17.28 1.752 15.968C1.064 14.656 0.72 13.16 0.72 11.48C0.72 9.8 1.064 8.304 1.752 6.992C2.456 5.68 3.456 4.664 4.752 3.944C6.048 3.208 7.568 2.84 9.312 2.84ZM18.8629 2.768C18.8629 2 19.1429 1.368 19.7029 0.871999C20.2629 0.359999 21.0069 0.103999 21.9349 0.103999C22.8469 0.103999 23.5829 0.359999 24.1429 0.871999C24.7029 1.368 24.9829 2 24.9829 2.768C24.9829 3.52 24.7029 4.144 24.1429 4.64C23.5829 5.136 22.8469 5.384 21.9349 5.384C21.0069 5.384 20.2629 5.136 19.7029 4.64C19.1429 4.144 18.8629 3.52 18.8629 2.768ZM24.5749 6.464V20H19.2469V6.464H24.5749ZM36.4613 6.368C38.0133 6.368 39.2213 6.888 40.0853 7.928C40.9653 8.968 41.4053 10.376 41.4053 12.152V20H36.1013V12.824C36.1013 12.184 35.9253 11.68 35.5733 11.312C35.2373 10.928 34.7813 10.736 34.2053 10.736C33.6133 10.736 33.1493 10.928 32.8133 11.312C32.4773 11.68 32.3093 12.184 32.3093 12.824V20H26.9813V6.464H32.3093V8.528C32.7253 7.888 33.2773 7.368 33.9653 6.968C34.6693 6.568 35.5013 6.368 36.4613 6.368ZM43.3316 2.768C43.3316 2 43.6116 1.368 44.1716 0.871999C44.7316 0.359999 45.4756 0.103999 46.4036 0.103999C47.3156 0.103999 48.0516 0.359999 48.6116 0.871999C49.1716 1.368 49.4516 2 49.4516 2.768C49.4516 3.52 49.1716 4.144 48.6116 4.64C48.0516 5.136 47.3156 5.384 46.4036 5.384C45.4756 5.384 44.7316 5.136 44.1716 4.64C43.6116 4.144 43.3316 3.52 43.3316 2.768ZM49.0436 6.464V20H43.7156V6.464H49.0436ZM56.034 6.728C57.458 6.728 58.602 7.104 59.466 7.856C60.33 8.608 60.858 9.624 61.05 10.904H59.442C59.346 10.056 58.994 9.36 58.386 8.816C57.794 8.256 56.994 7.976 55.986 7.976C55.122 7.976 54.442 8.192 53.946 8.624C53.466 9.04 53.226 9.6 53.226 10.304C53.226 10.832 53.378 11.256 53.682 11.576C54.002 11.896 54.394 12.144 54.858 12.32C55.322 12.48 55.946 12.648 56.73 12.824C57.69 13.048 58.458 13.28 59.034 13.52C59.626 13.744 60.13 14.104 60.546 14.6C60.962 15.096 61.17 15.768 61.17 16.616C61.17 17.656 60.778 18.512 59.994 19.184C59.226 19.84 58.202 20.168 56.922 20.168C55.418 20.168 54.186 19.8 53.226 19.064C52.266 18.312 51.698 17.288 51.522 15.992H53.154C53.25 16.856 53.626 17.56 54.282 18.104C54.938 18.648 55.826 18.92 56.946 18.92C57.778 18.92 58.426 18.704 58.89 18.272C59.354 17.84 59.586 17.28 59.586 16.592C59.586 16.032 59.426 15.584 59.106 15.248C58.786 14.912 58.386 14.664 57.906 14.504C57.442 14.328 56.802 14.144 55.986 13.952C55.042 13.728 54.282 13.504 53.706 13.28C53.146 13.056 52.666 12.712 52.266 12.248C51.866 11.768 51.666 11.12 51.666 10.304C51.666 9.232 52.058 8.368 52.842 7.712C53.626 7.056 54.69 6.728 56.034 6.728ZM70.0221 6.728C71.6861 6.728 73.0621 7.168 74.1501 8.048C75.2541 8.928 75.9261 10.096 76.1661 11.552H74.4141C74.2381 10.512 73.7501 9.696 72.9501 9.104C72.1501 8.496 71.1661 8.192 69.9981 8.192C69.1501 8.192 68.3661 8.384 67.6461 8.768C66.9421 9.152 66.3741 9.744 65.9421 10.544C65.5261 11.328 65.3181 12.296 65.3181 13.448C65.3181 14.6 65.5261 15.576 65.9421 16.376C66.3741 17.16 66.9421 17.744 67.6461 18.128C68.3661 18.512 69.1501 18.704 69.9981 18.704C71.1661 18.704 72.1501 18.408 72.9501 17.816C73.7501 17.208 74.2381 16.384 74.4141 15.344H76.1661C75.9261 16.8 75.2541 17.968 74.1501 18.848C73.0621 19.728 71.6861 20.168 70.0221 20.168C68.7741 20.168 67.6621 19.904 66.6861 19.376C65.7261 18.832 64.9741 18.056 64.4301 17.048C63.8861 16.024 63.6141 14.824 63.6141 13.448C63.6141 12.072 63.8861 10.88 64.4301 9.872C64.9741 8.848 65.7261 8.072 66.6861 7.544C67.6621 7 68.7741 6.728 70.0221 6.728ZM85.1192 6.728C86.3672 6.728 87.4792 7 88.4552 7.544C89.4472 8.072 90.2232 8.848 90.7832 9.872C91.3432 10.88 91.6232 12.072 91.6232 13.448C91.6232 14.824 91.3432 16.016 90.7832 17.024C90.2232 18.032 89.4472 18.808 88.4552 19.352C87.4792 19.896 86.3672 20.168 85.1192 20.168C83.8712 20.168 82.7512 19.896 81.7592 19.352C80.7672 18.808 79.9832 18.032 79.4072 17.024C78.8472 16 78.5672 14.808 78.5672 13.448C78.5672 12.072 78.8472 10.88 79.4072 9.872C79.9832 8.848 80.7672 8.072 81.7592 7.544C82.7512 7 83.8712 6.728 85.1192 6.728ZM85.1192 8.192C84.2552 8.192 83.4552 8.384 82.7192 8.768C81.9832 9.152 81.3912 9.744 80.9432 10.544C80.4952 11.328 80.2712 12.296 80.2712 13.448C80.2712 14.6 80.4952 15.568 80.9432 16.352C81.3912 17.136 81.9832 17.72 82.7192 18.104C83.4552 18.488 84.2552 18.68 85.1192 18.68C85.9672 18.68 86.7512 18.488 87.4712 18.104C88.2072 17.72 88.7992 17.136 89.2472 16.352C89.6952 15.568 89.9192 14.6 89.9192 13.448C89.9192 12.296 89.6952 11.328 89.2472 10.544C88.7992 9.744 88.2072 9.152 87.4712 8.768C86.7512 8.384 85.9672 8.192 85.1192 8.192ZM96.3405 9.608C96.7245 8.664 97.3405 7.936 98.1885 7.424C99.0365 6.912 100.069 6.656 101.285 6.656V8.48H100.733C99.4685 8.48 98.4205 8.824 97.5885 9.512C96.7565 10.184 96.3405 11.288 96.3405 12.824V20H94.6365V6.896H96.3405V9.608ZM109.231 18.776C110.415 18.776 111.407 18.48 112.207 17.888C113.007 17.296 113.487 16.496 113.647 15.488H115.423C115.183 16.88 114.519 18.008 113.431 18.872C112.343 19.736 110.967 20.168 109.303 20.168C108.055 20.168 106.943 19.904 105.967 19.376C105.007 18.832 104.255 18.056 103.711 17.048C103.167 16.024 102.895 14.824 102.895 13.448C102.895 12.072 103.167 10.88 103.711 9.872C104.255 8.848 105.007 8.072 105.967 7.544C106.943 7 108.055 6.728 109.303 6.728C110.583 6.728 111.687 7 112.615 7.544C113.559 8.072 114.271 8.784 114.751 9.68C115.247 10.576 115.495 11.552 115.495 12.608C115.495 13.056 115.463 13.464 115.399 13.832H104.551C104.567 14.936 104.791 15.864 105.223 16.616C105.671 17.352 106.247 17.896 106.951 18.248C107.655 18.6 108.415 18.776 109.231 18.776ZM109.303 8.096C108.455 8.096 107.679 8.272 106.975 8.624C106.271 8.976 105.695 9.52 105.247 10.256C104.815 10.976 104.583 11.88 104.551 12.968H113.815C113.879 11.896 113.703 10.992 113.287 10.256C112.871 9.52 112.311 8.976 111.607 8.624C110.903 8.272 110.135 8.096 109.303 8.096Z" fill="white"/>
</svg>
