<svg width="38" height="38" viewBox="0 0 38 38" fill="none" xmlns="http://www.w3.org/2000/svg">
<g id="indicator">
<circle id="Ellipse 23" cx="19" cy="19" r="19" fill="#D0CFCE"/>
<path id="Vector" d="M28.9993 27.7502C28.9993 28.0816 28.8676 28.3995 28.6332 28.6339C28.3988 28.8683 28.0808 29 27.7493 29H10.25C9.91845 29 9.60052 28.8683 9.3661 28.6339C9.13169 28.3995 9 28.0816 9 27.7502C9 27.4187 9.13169 27.1008 9.3661 26.8664C9.60052 26.632 9.91845 26.5003 10.25 26.5003H27.7493C28.0808 26.5003 28.3988 26.632 28.6332 26.8664C28.8676 27.1008 28.9993 27.4187 28.9993 27.7502ZM9.30832 16.7857C9.08979 16.3841 8.98444 15.9307 9.00351 15.4738C9.02259 15.017 9.16539 14.5739 9.41665 14.1919C9.79243 13.6147 10.3029 13.1374 10.9041 12.8013L16.8697 9.54584C17.5225 9.18773 18.2551 9 18.9996 9C19.7442 9 20.4768 9.18773 21.1296 9.54584L27.096 12.8013C27.6966 13.1372 28.2067 13.6138 28.5826 14.1902C28.8345 14.5722 28.978 15.0154 28.9977 15.4725C29.0173 15.9297 28.9125 16.3836 28.6943 16.7857C28.4801 17.1864 28.1648 17.5241 27.7798 17.7652C27.3948 18.0064 26.9534 18.1427 26.4994 18.1606V22.3342H26.916C27.2475 22.3342 27.5654 22.4659 27.7999 22.7003C28.0343 22.9347 28.166 23.2526 28.166 23.584C28.166 23.9155 28.0343 24.2334 27.7999 24.4678C27.5654 24.7022 27.2475 24.8339 26.916 24.8339H11.0833C10.7517 24.8339 10.4338 24.7022 10.1994 24.4678C9.96499 24.2334 9.8333 23.9155 9.8333 23.584C9.8333 23.2526 9.96499 22.9347 10.1994 22.7003C10.4338 22.4659 10.7517 22.3342 11.0833 22.3342H11.4999V18.1606C11.0465 18.1421 10.6058 18.0056 10.2214 17.7644C9.83695 17.5233 9.52221 17.1859 9.30832 16.7857ZM13.9998 22.3342H15.6664V18.1681H13.9998V22.3342ZM18.1663 18.1681V22.3342H19.8329V18.1681H18.1663ZM23.9995 22.3342V18.1681H22.3328V22.3342H23.9995ZM11.4999 15.5742C11.5049 15.5999 11.5184 15.6231 11.5382 15.6402C11.558 15.6573 11.583 15.6672 11.6091 15.6684H26.3902C26.4163 15.6664 26.4411 15.656 26.4608 15.6387C26.4805 15.6214 26.494 15.5982 26.4994 15.5726C26.3474 15.3354 26.1415 15.1376 25.8985 14.9951L19.9321 11.7406C19.6466 11.584 19.3261 11.5019 19.0005 11.5019C18.6748 11.5019 18.3544 11.584 18.0688 11.7406L12.1016 14.9951C11.8572 15.1368 11.6508 15.3355 11.4999 15.5742Z" fill="#827D7D"/>
</g>
</svg>
