<svg width="15" height="15" viewBox="0 0 15 15" fill="none" xmlns="http://www.w3.org/2000/svg">
<path id="Vector" d="M8.02252 0.0173162C6.95099 -0.0576582 5.87586 0.0984071 4.86988 0.474952C3.8639 0.851497 2.95053 1.43973 2.19159 2.19986C1.43264 2.95999 0.845832 3.87427 0.470858 4.88084C0.0958833 5.88741 -0.0585041 6.96278 0.0181422 8.03419C0.293767 12.0048 3.80127 14.9998 8.17689 14.9998H11.875C12.7035 14.9988 13.4978 14.6693 14.0836 14.0834C14.6695 13.4976 14.999 12.7033 15 11.8748V7.71232C15.0233 5.78572 14.317 3.92163 13.0227 2.4943C11.7285 1.06697 9.9422 0.18209 8.02252 0.0173162ZM7.50002 3.12482C7.74866 3.12482 7.98711 3.22359 8.16293 3.3994C8.33875 3.57522 8.43752 3.81368 8.43752 4.06232C8.43752 4.31096 8.33875 4.54941 8.16293 4.72523C7.98711 4.90104 7.74866 4.99982 7.50002 4.99982C7.25138 4.99982 7.01292 4.90104 6.8371 4.72523C6.66129 4.54941 6.56252 4.31096 6.56252 4.06232C6.56252 3.81368 6.66129 3.57522 6.8371 3.3994C7.01292 3.22359 7.25138 3.12482 7.50002 3.12482ZM8.75002 11.2498C8.75002 11.4156 8.68417 11.5745 8.56696 11.6918C8.44975 11.809 8.29078 11.8748 8.12502 11.8748C7.95926 11.8748 7.80029 11.809 7.68308 11.6918C7.56587 11.5745 7.50002 11.4156 7.50002 11.2498V7.49982H6.87502C6.70926 7.49982 6.55029 7.43397 6.43308 7.31676C6.31587 7.19955 6.25002 7.04058 6.25002 6.87482C6.25002 6.70906 6.31587 6.55009 6.43308 6.43288C6.55029 6.31566 6.70926 6.24982 6.87502 6.24982H7.50002C7.83154 6.24982 8.14948 6.38151 8.3839 6.61593C8.61832 6.85035 8.75002 7.1683 8.75002 7.49982V11.2498Z" fill="black"/>
</svg>
