<svg width="23" height="23" viewBox="0 0 23 23" fill="none" xmlns="http://www.w3.org/2000/svg">
<g id="file-invoice 1" clip-path="url(#clip0_1_1090)">
<path id="Vector" d="M19.1187 5.30535L15.7789 1.96556C14.512 0.698644 12.8273 0.000976883 11.0352 0.000976883H6.70829C4.06617 1.85494e-05 1.91663 2.14956 1.91663 4.79169V18.2084C1.91663 20.8505 4.06617 23 6.70829 23H16.2916C18.9338 23 21.0833 20.8505 21.0833 18.2084V10.0481C21.0833 8.25606 20.3856 6.57323 19.1187 5.30535ZM17.7636 6.66044C18.0684 6.96519 18.3262 7.30348 18.5351 7.66669H14.375C13.8469 7.66669 13.4166 7.23639 13.4166 6.70835V2.54823C13.7798 2.75714 14.1191 3.01494 14.4229 3.31969L17.7627 6.65948L17.7636 6.66044ZM19.1666 18.2084C19.1666 19.7934 17.8767 21.0834 16.2916 21.0834H6.70829C5.12321 21.0834 3.83329 19.7934 3.83329 18.2084V4.79169C3.83329 3.2066 5.12321 1.91669 6.70829 1.91669H11.0352C11.1914 1.91669 11.3466 1.92435 11.5 1.93873V6.70835C11.5 8.29344 12.7899 9.58335 14.375 9.58335H19.1446C19.159 9.73669 19.1666 9.89194 19.1666 10.0481V18.2084ZM14.8541 12.4584H8.14579C6.82521 12.4584 5.74996 13.5336 5.74996 14.8542V16.7709C5.74996 18.0914 6.82521 19.1667 8.14579 19.1667H14.8541C16.1747 19.1667 17.25 18.0914 17.25 16.7709V14.8542C17.25 13.5336 16.1747 12.4584 14.8541 12.4584ZM15.3333 16.7709C15.3333 17.0354 15.1186 17.25 14.8541 17.25H8.14579C7.88129 17.25 7.66663 17.0354 7.66663 16.7709V14.8542C7.66663 14.5897 7.88129 14.375 8.14579 14.375H14.8541C15.1186 14.375 15.3333 14.5897 15.3333 14.8542V16.7709ZM5.74996 9.58335C5.74996 9.05435 6.17929 8.62502 6.70829 8.62502H8.62496C9.15396 8.62502 9.58329 9.05435 9.58329 9.58335C9.58329 10.1124 9.15396 10.5417 8.62496 10.5417H6.70829C6.17929 10.5417 5.74996 10.1124 5.74996 9.58335ZM5.74996 5.75002C5.74996 5.22102 6.17929 4.79169 6.70829 4.79169H8.62496C9.15396 4.79169 9.58329 5.22102 9.58329 5.75002C9.58329 6.27902 9.15396 6.70835 8.62496 6.70835H6.70829C6.17929 6.70835 5.74996 6.27902 5.74996 5.75002Z" fill="black"/>
</g>
<defs>
<clipPath id="clip0_1_1090">
<rect width="23" height="23" fill="white"/>
</clipPath>
</defs>
</svg>
