<svg width="29" height="29" viewBox="0 0 29 29" fill="none" xmlns="http://www.w3.org/2000/svg">
<g clip-path="url(#clip0_1_2714)">
<path d="M0.191668 14.0356L6.78243 7.44475C7.01918 7.16829 7.43525 7.13606 7.71171 7.37287C7.98817 7.60962 8.0204 8.0257 7.78359 8.30216C7.7615 8.32793 7.73748 8.352 7.71171 8.37403L2.24797 13.8444H28.3409C28.7049 13.8444 29 14.1395 29 14.5035C29 14.8675 28.7049 15.1626 28.3409 15.1626H2.24797L7.71171 20.6263C7.98817 20.8631 8.0204 21.2791 7.78359 21.5556C7.54678 21.8321 7.13076 21.8643 6.8543 21.6275C6.82853 21.6054 6.80446 21.5814 6.78243 21.5556L0.191611 14.9648C-0.0638904 14.7078 -0.06389 14.2926 0.191668 14.0356Z" fill="white"/>
</g>
<defs>
<clipPath id="clip0_1_2714">
<rect width="29" height="29" fill="white" transform="matrix(-1 0 0 1 29 0)"/>
</clipPath>
</defs>
</svg>
