<svg width="29" height="15" viewBox="0 0 29 15" fill="none" xmlns="http://www.w3.org/2000/svg">
<path d="M0.191668 7.03556L6.78242 0.444745C7.01918 0.168287 7.43525 0.136059 7.71171 0.37287C7.98817 0.609623 8.0204 1.0257 7.78359 1.30216C7.7615 1.32793 7.73748 1.352 7.71171 1.37403L2.24797 6.8444H28.3409C28.7049 6.8444 29 7.13949 29 7.50352C29 7.86754 28.7049 8.16258 28.3409 8.16258H2.24797L7.71171 13.6263C7.98817 13.8631 8.0204 14.2791 7.78359 14.5556C7.54678 14.8321 7.13076 14.8643 6.8543 14.6275C6.82853 14.6054 6.80446 14.5814 6.78242 14.5556L0.19161 7.96479C-0.0638905 7.70782 -0.0638905 7.29265 0.191668 7.03556Z" fill="black"/>
</svg>
