<svg width="23" height="23" viewBox="0 0 23 23" fill="none" xmlns="http://www.w3.org/2000/svg">
<g clip-path="url(#clip0_1_725)">
<path d="M23.0001 11.4848C23.0002 10.4752 22.602 9.50636 21.892 8.78865C21.182 8.07093 20.2175 7.66228 19.208 7.65142C18.3678 5.978 17.0085 4.62145 15.3334 3.78455C15.2843 2.80229 14.8595 1.87649 14.1469 1.19866C13.4343 0.520832 12.4884 0.142822 11.5049 0.142822C10.5214 0.142822 9.57554 0.520832 8.86294 1.19866C8.15034 1.87649 7.72552 2.80229 7.67636 3.78455C5.99711 4.62077 4.63426 5.97891 3.79224 7.65526C2.78735 7.66902 1.82816 8.07735 1.12169 8.79212C0.415225 9.50689 0.0181337 10.4708 0.016121 11.4758C0.0141082 12.4808 0.407335 13.4462 1.11093 14.1638C1.81453 14.8814 2.77208 15.2936 3.77691 15.3114C4.61543 17.0021 5.9829 18.373 7.67157 19.2156C7.72073 20.1979 8.14555 21.1237 8.85815 21.8015C9.57075 22.4794 10.5166 22.8574 11.5001 22.8574C12.4836 22.8574 13.4295 22.4794 14.1421 21.8015C14.8547 21.1237 15.2795 20.1979 15.3287 19.2156C17.0173 18.373 18.3848 17.0021 19.2233 15.3114C20.229 15.2965 21.1886 14.8871 21.8951 14.1712C22.6016 13.4554 22.9985 12.4905 23.0001 11.4848ZM11.5001 1.91676C11.8792 1.91676 12.2498 2.02917 12.565 2.23977C12.8802 2.45038 13.1258 2.74972 13.2709 3.09995C13.416 3.45017 13.4539 3.83555 13.38 4.20735C13.306 4.57914 13.1235 4.92066 12.8554 5.18871C12.5874 5.45676 12.2458 5.63931 11.874 5.71326C11.5022 5.78722 11.1169 5.74926 10.7666 5.60419C10.4164 5.45912 10.1171 5.21346 9.90646 4.89827C9.69586 4.58307 9.58345 4.2125 9.58345 3.83342C9.58345 3.32509 9.78538 2.83758 10.1448 2.47814C10.5043 2.11869 10.9918 1.91676 11.5001 1.91676ZM1.91678 11.4848C1.91678 11.1057 2.02919 10.7351 2.2398 10.4199C2.4504 10.1047 2.74975 9.85906 3.09997 9.71399C3.4502 9.56892 3.83557 9.53096 4.20737 9.60492C4.57917 9.67887 4.92068 9.86142 5.18874 10.1295C5.45679 10.3975 5.63933 10.739 5.71329 11.1108C5.78724 11.4826 5.74928 11.868 5.60422 12.2182C5.45915 12.5685 5.21348 12.8678 4.89829 13.0784C4.5831 13.289 4.21253 13.4014 3.83345 13.4014C3.32512 13.4014 2.8376 13.1995 2.47816 12.84C2.11871 12.4806 1.91678 11.9931 1.91678 11.4848ZM11.5001 21.0834C11.121 21.0834 10.7505 20.971 10.4353 20.7604C10.1201 20.5498 9.87441 20.2505 9.72934 19.9002C9.58428 19.55 9.54632 19.1646 9.62027 18.7928C9.69423 18.421 9.87678 18.0795 10.1448 17.8115C10.4129 17.5434 10.7544 17.3609 11.1262 17.2869C11.498 17.213 11.8834 17.2509 12.2336 17.396C12.5838 17.5411 12.8832 17.7867 13.0938 18.1019C13.3044 18.4171 13.4168 18.7877 13.4168 19.1668C13.4168 19.6751 13.2148 20.1626 12.8554 20.522C12.496 20.8815 12.0084 21.0834 11.5001 21.0834ZM14.8332 17.3085C14.5059 16.7106 14.0237 16.2117 13.4373 15.8642C12.8509 15.5167 12.1818 15.3333 11.5001 15.3333C10.8184 15.3333 10.1493 15.5167 9.56291 15.8642C8.97648 16.2117 8.49435 16.7106 8.16703 17.3085C7.13455 16.7112 6.27827 15.8517 5.68495 14.8169C6.28357 14.4907 6.78345 14.0096 7.13221 13.4238C7.48096 12.8381 7.66576 12.1693 7.66723 11.4876C7.6687 10.8059 7.48679 10.1363 7.14056 9.54906C6.79433 8.96182 6.29653 8.4785 5.69932 8.14976C6.29232 7.12708 7.14321 6.27785 8.16703 5.68684C8.49435 6.28478 8.97648 6.78366 9.56291 7.13119C10.1493 7.47871 10.8184 7.66208 11.5001 7.66208C12.1818 7.66208 12.8509 7.47871 13.4373 7.13119C14.0237 6.78366 14.5059 6.28478 14.8332 5.68684C15.857 6.27785 16.7079 7.12708 17.3009 8.14976C16.7037 8.4785 16.2059 8.96182 15.8597 9.54906C15.5134 10.1363 15.3315 10.8059 15.333 11.4876C15.3345 12.1693 15.5193 12.8381 15.868 13.4238C16.2168 14.0096 16.7167 14.4907 17.3153 14.8169C16.722 15.8517 15.8657 16.7112 14.8332 17.3085ZM19.1668 13.4005C18.7877 13.4005 18.4171 13.2881 18.1019 13.0774C17.7867 12.8668 17.5411 12.5675 17.396 12.2173C17.2509 11.8671 17.213 11.4817 17.2869 11.1099C17.3609 10.7381 17.5434 10.3966 17.8115 10.1285C18.0795 9.86046 18.4211 9.67792 18.7929 9.60396C19.1647 9.53001 19.55 9.56796 19.9003 9.71303C20.2505 9.8581 20.5498 10.1038 20.7604 10.419C20.971 10.7342 21.0834 11.1047 21.0834 11.4838C21.0834 11.9921 20.8815 12.4796 20.5221 12.8391C20.1626 13.1985 19.6751 13.4005 19.1668 13.4005Z" fill="#827D7D"/>
</g>
<defs>
<clipPath id="clip0_1_725">
<rect width="23" height="23" fill="white"/>
</clipPath>
</defs>
</svg>
