<svg width="12" height="12" viewBox="0 0 12 12" fill="none" xmlns="http://www.w3.org/2000/svg">
<path d="M6.00003 8.00015C6.23286 8.0006 6.46257 7.94685 6.67103 7.84314L7.67103 7.34315C8.18073 7.09007 8.50224 6.56922 8.50004 6.00016V4.51666C8.5018 3.94809 8.18033 3.42792 7.67103 3.17517L6.67103 2.67517C6.24852 2.46517 5.75204 2.46517 5.32953 2.67517L4.32953 3.17517C3.82004 3.42778 3.49836 3.94799 3.50003 4.51666V6.00016C3.4982 6.56887 3.81964 7.08923 4.32903 7.34217L5.32904 7.84216C5.5374 7.9462 5.76714 8.00029 6.00003 8.00015ZM4.50003 6.00016V4.51666C4.50083 4.46566 4.50943 4.41506 4.52553 4.36666L5.61554 4.91165C5.8576 5.03263 6.14249 5.03263 6.38455 4.91165L7.47456 4.36666C7.49066 4.41506 7.49926 4.46566 7.50006 4.51666V6.00016C7.50085 6.18986 7.39358 6.36349 7.22357 6.44765L6.22356 6.94764C6.08256 7.01742 5.91707 7.01742 5.77607 6.94764L4.77606 6.44765C4.60621 6.36335 4.49914 6.18977 4.50003 6.00016ZM9.50003 11.0002H8.14553L9.88902 9.38915C12.0369 7.24129 12.037 3.7589 9.88914 1.61097C7.74128 -0.536959 4.25891 -0.536982 2.11098 1.61085C-0.0369502 3.75869 -0.0369972 7.24113 2.11086 9.38903C2.11557 9.39374 3.85454 11.0002 3.85454 11.0002H2.50004C2.2239 11.0002 2.00005 11.224 2.00005 11.5001C2.00005 11.7763 2.2239 12.0001 2.50004 12.0001H9.50005C9.77619 12.0001 10 11.7763 10 11.5001C10 11.224 9.77617 11.0002 9.50003 11.0002ZM2.81804 2.31815C4.57154 0.556775 7.42091 0.5504 9.18228 2.3039C10.9437 4.0574 10.95 6.90677 9.19653 8.66814L7.20404 10.5086C6.52398 11.1496 5.46109 11.1459 4.78555 10.5001L2.81804 8.68213C1.06339 6.92364 1.06342 4.07667 2.81804 2.31815Z" fill="white"/>
</svg>
