<svg width="23" height="23" viewBox="0 0 23 23" fill="none" xmlns="http://www.w3.org/2000/svg">
<path d="M4.53482 11.3884C4.47083 8.93959 6.31693 6.15457 8.51241 6.08554C10.7264 6.0159 13.1171 9.36055 12.4767 11.5716H11.46C11.46 11.5716 11.7122 9.29308 10.7464 8.33111C10.2537 7.84028 9.29278 6.95731 8.35684 7.09518C7.72543 7.1882 6.31508 7.99196 6.02154 8.55865C5.69335 9.19227 5.64802 11.3884 5.64802 11.3884L4.53482 11.3884Z" fill="#D0CFCE" stroke="#D0CFCE" stroke-width="2" stroke-miterlimit="10" stroke-linecap="round" stroke-linejoin="round"/>
<path d="M13.3201 11.6152H13.841V19.081H3.28473V11.6152H3.80558H13.3201Z" fill="#FCEA2B"/>
<path d="M13.7174 11.6699L8.50311 19.0319H13.8666L13.7174 11.6699Z" fill="#F1B31C"/>
<path d="M17.8695 10.4082C19.0144 9.82749 19.8083 8.55993 19.8083 7.08969C19.8083 5.07023 18.3104 3.43311 16.4627 3.43311C14.615 3.43311 13.1171 5.07023 13.1171 7.08969C13.1171 8.72243 14.1075 10.2988 15.4674 10.4818" fill="#F4AA41"/>
<path d="M17.8974 10.3335L17.894 11.3164L17.9437 17.9368L16.5057 19.3748L15.017 17.8861L15.9379 16.9651L14.9294 15.9567L16.0928 14.7934L15.0895 13.7901L15.0939 12.8394L15.9596 11.9738L15.563 11.5773V10.3335" fill="#F4AA41"/>
<path d="M17.8974 10.3335L17.894 11.3164L17.9437 17.9368L16.5057 19.3748L15.017 17.8861L15.9379 16.9651L14.9294 15.9567L16.0928 14.7934L15.0895 13.7901L15.0939 12.8394L15.9596 11.9738L15.563 11.5773V10.3335" stroke="#F4AA41" stroke-width="2" stroke-miterlimit="10" stroke-linecap="round" stroke-linejoin="round"/>
<path d="M17.1042 18.2368L17.4878 17.8528L17.4178 11.519L17.03 11.5233L17.1042 18.2368Z" fill="#E27022"/>
<path d="M17.2578 6.5799C17.697 6.1407 17.697 5.42863 17.2578 4.98944C16.8186 4.55024 16.1065 4.55024 15.6673 4.98944C15.2281 5.42863 15.2281 6.1407 15.6673 6.5799C16.1065 7.01909 16.8186 7.01909 17.2578 6.5799Z" fill="#E27022"/>
<path d="M12.6076 10.6757C12.7932 8.10935 10.7264 6.01603 8.51245 6.08567C6.31697 6.15474 4.53485 8.34817 4.53485 10.6757" stroke="black" stroke-miterlimit="10" stroke-linecap="round" stroke-linejoin="round"/>
<path d="M13.3201 11.6021H13.841V19.0678H3.28473V11.6021H3.80558H13.3201Z" stroke="black" stroke-miterlimit="10" stroke-linecap="round" stroke-linejoin="round"/>
<path d="M5.69403 10.6755C5.69403 8.91561 6.9651 7.25712 8.53098 7.20489C10.1101 7.15225 11.5842 8.73503 11.4518 10.6755" stroke="black" stroke-miterlimit="10" stroke-linecap="round" stroke-linejoin="round"/>
<path d="M17.897 11.5078L17.9788 18.0392L16.5219 19.496L14.9996 17.9737L15.9326 17.0407L14.9014 16.0094L16.08 14.8308L15.0541 13.8049V12.8372L15.9311 11.9602L15.5256 11.5548" stroke="black" stroke-miterlimit="10" stroke-linecap="round" stroke-linejoin="round"/>
<path d="M17.2578 6.5799C17.697 6.1407 17.697 5.42863 17.2578 4.98944C16.8186 4.55024 16.1065 4.55024 15.6673 4.98944C15.2281 5.42863 15.2281 6.1407 15.6673 6.5799C16.1065 7.01909 16.8186 7.01909 17.2578 6.5799Z" stroke="black" stroke-miterlimit="10" stroke-linecap="round" stroke-linejoin="round"/>
<path d="M17.8943 10.1058C19.0349 9.54066 19.8195 8.32009 19.8088 6.91137C19.7941 4.9764 18.2843 3.41918 16.4367 3.4332C14.589 3.44726 13.1031 5.02726 13.1178 6.96226C13.1297 8.52671 14.1189 9.84419 15.4738 10.284" stroke="black" stroke-miterlimit="10" stroke-linecap="round" stroke-linejoin="round"/>
</svg>
