<svg width="50" height="21" viewBox="0 0 50 21" fill="none" xmlns="http://www.w3.org/2000/svg">
<path d="M11.616 8.816C11.408 8.48 11.112 8.224 10.728 8.048C10.344 7.856 9.88 7.76 9.336 7.76C8.312 7.76 7.52 8.096 6.96 8.768C6.4 9.424 6.12 10.328 6.12 11.48C6.12 12.808 6.432 13.8 7.056 14.456C7.68 15.112 8.64 15.44 9.936 15.44C11.168 15.44 12.16 14.944 12.912 13.952H8.664V10.184H17.328V15.512C16.592 16.776 15.576 17.864 14.28 18.776C12.984 19.672 11.344 20.12 9.36 20.12C7.6 20.12 6.064 19.76 4.752 19.04C3.456 18.304 2.456 17.28 1.752 15.968C1.064 14.656 0.72 13.16 0.72 11.48C0.72 9.8 1.064 8.304 1.752 6.992C2.456 5.68 3.456 4.664 4.752 3.944C6.048 3.208 7.568 2.84 9.312 2.84C11.536 2.84 13.344 3.376 14.736 4.448C16.144 5.52 16.976 6.976 17.232 8.816H11.616ZM21.9349 5.384C21.0069 5.384 20.2629 5.136 19.7029 4.64C19.1429 4.144 18.8629 3.52 18.8629 2.768C18.8629 2 19.1429 1.368 19.7029 0.871999C20.2629 0.359999 21.0069 0.103999 21.9349 0.103999C22.8469 0.103999 23.5829 0.359999 24.1429 0.871999C24.7029 1.368 24.9829 2 24.9829 2.768C24.9829 3.52 24.7029 4.144 24.1429 4.64C23.5829 5.136 22.8469 5.384 21.9349 5.384ZM24.5749 6.464V20H19.2469V6.464H24.5749ZM36.4613 6.368C38.0133 6.368 39.2213 6.888 40.0853 7.928C40.9653 8.968 41.4053 10.376 41.4053 12.152V20H36.1013V12.824C36.1013 12.184 35.9253 11.68 35.5733 11.312C35.2373 10.928 34.7813 10.736 34.2053 10.736C33.6133 10.736 33.1493 10.928 32.8133 11.312C32.4773 11.68 32.3093 12.184 32.3093 12.824V20H26.9813V6.464H32.3093V8.528C32.7253 7.888 33.2773 7.368 33.9653 6.968C34.6693 6.568 35.5013 6.368 36.4613 6.368ZM46.4036 5.384C45.4756 5.384 44.7316 5.136 44.1716 4.64C43.6116 4.144 43.3316 3.52 43.3316 2.768C43.3316 2 43.6116 1.368 44.1716 0.871999C44.7316 0.359999 45.4756 0.103999 46.4036 0.103999C47.3156 0.103999 48.0516 0.359999 48.6116 0.871999C49.1716 1.368 49.4516 2 49.4516 2.768C49.4516 3.52 49.1716 4.144 48.6116 4.64C48.0516 5.136 47.3156 5.384 46.4036 5.384ZM49.0436 6.464V20H43.7156V6.464H49.0436Z" fill="#1E1E1E"/>
</svg>
