<svg width="23" height="23" viewBox="0 0 23 23" fill="none" xmlns="http://www.w3.org/2000/svg">
<g id="marker (4) 1" clip-path="url(#clip0_1_2082)">
<path id="Vector" d="M11.5 0C8.83227 0.00329678 6.27475 1.06451 4.38838 2.95088C2.50201 4.83725 1.4408 7.39477 1.4375 10.0625C1.4375 12.7708 3.54583 16.5466 7.70596 21.2836C8.18038 21.8227 8.76421 22.2546 9.41858 22.5504C10.0729 22.8462 10.7828 22.9992 11.501 22.9992C12.2191 22.9992 12.929 22.8462 13.5833 22.5504C14.2377 22.2546 14.8215 21.8227 15.296 21.2836C19.4542 16.5475 21.5625 12.7717 21.5625 10.0625C21.5592 7.39477 20.498 4.83725 18.6116 2.95088C16.7253 1.06451 14.1677 0.00329678 11.5 0ZM13.1349 19.388C12.9259 19.6127 12.6729 19.7919 12.3916 19.9144C12.1103 20.0369 11.8068 20.1001 11.5 20.1001C11.1932 20.1001 10.8897 20.0369 10.6084 19.9144C10.3271 19.7919 10.0741 19.6127 9.86508 19.388C6.33554 15.3678 4.30675 11.9686 4.30675 10.0635C4.30675 8.15722 5.064 6.32905 6.41192 4.98113C7.75984 3.63321 9.58801 2.87596 11.4943 2.87596C13.4005 2.87596 15.2287 3.63321 16.5766 4.98113C17.9245 6.32905 18.6817 8.15722 18.6817 10.0635C18.6875 11.9686 16.6645 15.3678 13.1349 19.388Z" fill="black"/>
<path id="Vector_2" d="M11.5001 5.80273C10.6731 5.80273 9.8647 6.04796 9.1771 6.5074C8.48951 6.96683 7.95359 7.61985 7.63713 8.38386C7.32066 9.14788 7.23786 9.98858 7.39919 10.7997C7.56052 11.6107 7.95874 12.3558 8.5435 12.9405C9.12825 13.5253 9.87327 13.9235 10.6843 14.0848C11.4954 14.2461 12.3361 14.1633 13.1001 13.8469C13.8642 13.5304 14.5172 12.9945 14.9766 12.3069C15.436 11.6193 15.6813 10.8109 15.6813 9.98394C15.68 8.87541 15.2391 7.81264 14.4552 7.02878C13.6714 6.24493 12.6086 5.804 11.5001 5.80273ZM11.5001 11.2902C11.2417 11.2902 10.9892 11.2135 10.7744 11.07C10.5596 10.9265 10.3921 10.7225 10.2933 10.4838C10.1944 10.2451 10.1685 9.98249 10.2189 9.72911C10.2693 9.47573 10.3938 9.24299 10.5764 9.06031C10.7591 8.87764 10.9918 8.75323 11.2452 8.70283C11.4986 8.65243 11.7612 8.6783 11.9999 8.77716C12.2386 8.87603 12.4426 9.04345 12.5861 9.25825C12.7297 9.47306 12.8063 9.7256 12.8063 9.98394C12.806 10.3303 12.6683 10.6624 12.4234 10.9073C12.1785 11.1522 11.8464 11.2899 11.5001 11.2902Z" fill="black"/>
</g>
<defs>
<clipPath id="clip0_1_2082">
<rect width="23" height="23" fill="white"/>
</clipPath>
</defs>
</svg>
