<svg width="47" height="30" viewBox="0 0 47 30" fill="none" xmlns="http://www.w3.org/2000/svg">
<path d="M29.8406 3.15186L17.1216 3.15186V26.315H29.8406V3.15186Z" fill="#FF5A00"/>
<path d="M17.9684 14.7332C17.9684 10.0272 20.1509 5.85039 23.5 3.15168C21.0352 1.18724 17.926 0 14.5346 0C6.5006 0 0 6.58943 0 14.7332C0 22.8771 6.5006 29.4665 14.5346 29.4665C17.926 29.4665 21.0352 28.2793 23.5 26.3148C20.1462 23.6543 17.9684 19.4393 17.9684 14.7332Z" fill="#EB001B"/>
<path d="M47 14.7332C47 22.8771 40.4994 29.4665 32.4654 29.4665C29.074 29.4665 25.9648 28.2793 23.5 26.3148C26.8914 23.6113 29.0316 19.4393 29.0316 14.7332C29.0316 10.0272 26.8491 5.85039 23.5 3.15168C25.9601 1.18724 29.0693 0 32.4607 0C40.4994 0 47 6.63235 47 14.7332Z" fill="#F79E1B"/>
</svg>
