<svg width="23" height="23" viewBox="0 0 23 23" fill="none" xmlns="http://www.w3.org/2000/svg">
<path d="M10.9899 6.76425L6.92407 10.8301L13.38 17.286L17.4459 13.2202L10.9899 6.76425Z" fill="white"/>
<path d="M4.46557 18.1373C4.58201 18.2537 4.73815 18.303 4.88883 18.2866C4.88883 18.2866 7.73243 18.303 9.34876 16.7524C9.3693 16.7346 9.38846 16.7155 9.40763 16.6963C9.99388 16.11 9.9925 15.1608 9.40763 14.5759C8.82273 13.991 7.8735 13.9897 7.28725 14.5759L4.46557 17.3976C4.26148 17.6017 4.26148 17.9332 4.46557 18.1373Z" fill="white"/>
<path d="M7.07462 16.9365C7.11296 17.1953 6.95962 17.569 6.65615 17.8885C6.56351 17.9843 6.46768 18.0674 6.36865 18.1312" fill="white"/>
<path d="M5.7392 17.7798C5.71364 17.9651 5.6242 18.1344 5.48364 18.2558L5.7392 17.7798Z" fill="white"/>
<path d="M11.5236 8.24069C11.814 7.95027 11.814 7.47941 11.5236 7.189C11.2332 6.89858 10.7623 6.89858 10.4719 7.189C10.1815 7.47941 10.1815 7.95027 10.4719 8.24069C10.7623 8.53111 11.2332 8.53111 11.5236 8.24069Z" fill="#5C9E31"/>
<path d="M17.1613 13.7382C17.4517 13.4478 17.4517 12.977 17.1613 12.6866C16.8709 12.3961 16.4 12.3961 16.1096 12.6866C15.8192 12.977 15.8192 13.4478 16.1096 13.7382C16.4 14.0287 16.8709 14.0287 17.1613 13.7382Z" fill="#5C9E31"/>
<path d="M8.29434 11.4697C8.58475 11.1793 8.58475 10.7084 8.29434 10.418C8.00392 10.1276 7.53306 10.1276 7.24264 10.418C6.95223 10.7084 6.95223 11.1793 7.24264 11.4697C7.53306 11.7601 8.00392 11.7601 8.29434 11.4697Z" fill="#5C9E31"/>
<path d="M13.808 16.9839C14.0984 16.6934 14.0984 16.2226 13.808 15.9322C13.5176 15.6417 13.0467 15.6417 12.7563 15.9322C12.4659 16.2226 12.4659 16.6934 12.7563 16.9839C13.0467 17.2743 13.5176 17.2743 13.808 16.9839Z" fill="#5C9E31"/>
<path d="M16.8684 13.4451L17.2456 13.0679L11.0725 6.8948L10.6953 7.27201L16.8684 13.4451Z" fill="#5C9E31"/>
<path d="M13.1164 17.0462L13.4937 16.6689L7.32058 10.4959L6.94336 10.8731L13.1164 17.0462Z" fill="#5C9E31"/>
<path d="M11.4573 7.12235L11.0757 6.74072L6.94322 10.8732L7.32485 11.2548L11.4573 7.12235Z" fill="#5C9E31"/>
<path d="M17.4732 13.138L17.0916 12.7563L12.9591 16.8888L13.3407 17.2704L17.4732 13.138Z" fill="#5C9E31"/>
<path d="M14.2665 14.0644C14.9828 13.3481 14.6253 11.8293 13.468 10.672C12.3107 9.51468 10.7918 9.15717 10.0755 9.87346C9.35923 10.5897 9.71674 12.1086 10.874 13.2659C12.0313 14.4232 13.5502 14.7807 14.2665 14.0644Z" fill="#5C9E31"/>
<path d="M15.1497 11.2418L11.4017 14.9898C11.3882 15.0032 11.3734 15.0129 11.3573 15.0213C11.2914 15.0535 11.2066 15.0398 11.1496 14.9828L9.16178 12.995C9.10476 12.9379 9.09105 12.8532 9.12325 12.7873C9.13162 12.7712 9.1413 12.7563 9.15478 12.7428L12.9027 8.99485C12.9162 8.98137 12.931 8.97169 12.9472 8.96332C13.013 8.93115 13.0978 8.94486 13.1548 9.00185L15.1426 10.9897C15.1997 11.0467 15.2134 11.1315 15.1812 11.1973C15.1728 11.2135 15.1632 11.2283 15.1497 11.2418Z" fill="white"/>
<path d="M18.2676 4.33519C18.3841 4.45163 18.4334 4.60778 18.4169 4.75846C18.4169 4.75846 18.4334 7.60206 16.8828 9.21838C16.865 9.23892 16.8458 9.25809 16.8266 9.27729C16.2404 9.86353 15.2911 9.86216 14.7063 9.27729C14.1214 8.69238 14.12 7.74316 14.7063 7.15691L17.528 4.33523C17.7321 4.1311 18.0635 4.1311 18.2676 4.33519Z" fill="white"/>
<path d="M17.0669 6.94425C17.3256 6.98259 17.6994 6.82925 18.0188 6.52578C18.1147 6.43314 18.1977 6.33731 18.2616 6.23828" fill="white"/>
<path d="M17.9102 5.60907C18.0954 5.58352 18.2647 5.49407 18.3861 5.35352L17.9102 5.60907Z" fill="white"/>
<path d="M4.46557 18.1373C4.58201 18.2537 4.73815 18.303 4.88883 18.2866C4.88883 18.2866 7.73243 18.303 9.34876 16.7524C9.3693 16.7346 9.38846 16.7155 9.40763 16.6963C9.99388 16.11 9.9925 15.1608 9.40763 14.5759C8.82273 13.991 7.8735 13.9897 7.28725 14.5759L4.46557 17.3976C4.26148 17.6017 4.26148 17.9332 4.46557 18.1373Z" stroke="black" stroke-miterlimit="10" stroke-linecap="round"/>
<path d="M5.50662 18.2532L5.50293 18.2495" stroke="black" stroke-miterlimit="10" stroke-linecap="round"/>
<path d="M7.07462 16.9365C7.11296 17.1953 6.95962 17.569 6.65615 17.8885C6.56351 17.9843 6.46768 18.0674 6.36865 18.1312" stroke="black" stroke-miterlimit="10" stroke-linecap="round"/>
<path d="M5.7392 17.7798C5.71364 17.9651 5.6242 18.1344 5.48364 18.2558" stroke="black" stroke-miterlimit="10" stroke-linecap="round"/>
<path d="M13.1147 17.0448L7.169 11.099C7.04425 10.9743 7.04425 10.772 7.169 10.6473L10.7603 7.05596C10.8851 6.93122 11.0873 6.93122 11.2121 7.05596L17.1578 13.0017C17.2825 13.1264 17.2825 13.3287 17.1578 13.4534L13.5665 17.0448C13.4417 17.1695 13.2395 17.1695 13.1147 17.0448Z" stroke="black" stroke-miterlimit="10" stroke-linecap="round" stroke-linejoin="round"/>
<path d="M15.1497 11.2418L11.4017 14.9898C11.3882 15.0032 11.3734 15.0129 11.3573 15.0213C11.2914 15.0535 11.2066 15.0398 11.1496 14.9828L9.16178 12.995C9.10476 12.9379 9.09105 12.8532 9.12325 12.7873C9.13162 12.7712 9.1413 12.7563 9.15478 12.7428L12.9027 8.99485C12.9162 8.98137 12.931 8.97169 12.9472 8.96332C13.013 8.93115 13.0978 8.94486 13.1548 9.00185L15.1426 10.9897C15.1997 11.0467 15.2134 11.1315 15.1812 11.1973C15.1728 11.2135 15.1632 11.2283 15.1497 11.2418Z" stroke="black" stroke-miterlimit="10" stroke-linecap="round" stroke-linejoin="round"/>
<path d="M18.2676 4.33519C18.3841 4.45163 18.4334 4.60778 18.4169 4.75846C18.4169 4.75846 18.4334 7.60206 16.8828 9.21838C16.865 9.23892 16.8458 9.25809 16.8266 9.27729C16.2404 9.86353 15.2911 9.86216 14.7063 9.27729C14.1214 8.69238 14.12 7.74316 14.7063 7.15691L17.528 4.33523C17.7321 4.1311 18.0635 4.1311 18.2676 4.33519Z" stroke="black" stroke-miterlimit="10" stroke-linecap="round"/>
<path d="M18.3836 5.37625L18.3799 5.37256" stroke="black" stroke-miterlimit="10" stroke-linecap="round"/>
<path d="M17.0669 6.94425C17.3256 6.98259 17.6994 6.82925 18.0188 6.52578C18.1147 6.43314 18.1977 6.33731 18.2616 6.23828" stroke="black" stroke-miterlimit="10" stroke-linecap="round"/>
<path d="M17.9102 5.60907C18.0954 5.58352 18.2647 5.49407 18.3861 5.35352" stroke="black" stroke-miterlimit="10" stroke-linecap="round"/>
</svg>
