<svg width="23" height="23" viewBox="0 0 23 23" fill="none" xmlns="http://www.w3.org/2000/svg">
<g clip-path="url(#clip0_120_374)">
<path d="M20.7742 6.14434H14.0968C13.687 6.14434 13.3548 6.4765 13.3548 6.88628C13.3548 7.29606 13.687 7.62821 14.0968 7.62821H17.1178C17.4441 9.89932 19.2451 11.7003 21.5161 12.0266V15.8427C19.245 16.1691 17.4441 17.97 17.1178 20.2411H5.88225C5.55594 17.97 3.75494 16.1691 1.48387 15.8427V12.0266C3.75498 11.7003 5.55594 9.89932 5.88225 7.62821H8.90323C9.31301 7.62821 9.64516 7.29606 9.64516 6.88628C9.64516 6.4765 9.31301 6.14434 8.90323 6.14434H2.22581C0.99846 6.14434 0 7.1428 0 8.37015V19.4992C0 20.7265 0.99846 21.725 2.22581 21.725H20.7742C22.0015 21.725 23 20.7265 23 19.4992V8.37015C23 7.1428 22.0015 6.14434 20.7742 6.14434ZM18.623 7.62821H20.7742C21.1833 7.62821 21.5161 7.96106 21.5161 8.37015V10.5213C20.0647 10.2255 18.9188 9.07962 18.623 7.62821ZM2.22581 7.62821H4.37696C4.08116 9.07962 2.93528 10.2255 1.48387 10.5213V8.37015C1.48387 7.96102 1.81672 7.62821 2.22581 7.62821ZM1.48387 19.4992V17.348C2.93528 17.6438 4.08116 18.7897 4.37696 20.2411H2.22581C1.81672 20.2411 1.48387 19.9083 1.48387 19.4992ZM20.7742 20.2411H18.623C18.9188 18.7897 20.0647 17.6438 21.5161 17.348V19.4992C21.5161 19.9083 21.1833 20.2411 20.7742 20.2411ZM7.41935 13.9347C7.41935 16.1847 9.24994 18.0153 11.5 18.0153C13.7501 18.0153 15.5806 16.1847 15.5806 13.9347C15.5806 11.6846 13.7501 9.85402 11.5 9.85402C9.24994 9.85402 7.41935 11.6846 7.41935 13.9347ZM14.0968 13.9347C14.0968 15.3666 12.9319 16.5314 11.5 16.5314C10.0681 16.5314 8.90323 15.3666 8.90323 13.9347C8.90323 12.5028 10.0681 11.3379 11.5 11.3379C12.9319 11.3379 14.0968 12.5028 14.0968 13.9347ZM5.56452 13.1927C5.9743 13.1927 6.30645 13.5249 6.30645 13.9347C6.30645 14.3444 5.9743 14.6766 5.56452 14.6766H5.19355C4.78377 14.6766 4.45161 14.3444 4.45161 13.9347C4.45161 13.5249 4.78377 13.1927 5.19355 13.1927H5.56452ZM17.4355 14.6766C17.0257 14.6766 16.6935 14.3444 16.6935 13.9347C16.6935 13.5249 17.0257 13.1927 17.4355 13.1927H17.8065C18.2162 13.1927 18.5484 13.5249 18.5484 13.9347C18.5484 14.3444 18.2162 14.6766 17.8065 14.6766H17.4355ZM9.44516 4.07216C9.15539 3.78244 9.15539 3.31265 9.44516 3.02293L10.9754 1.49268C11.2651 1.20296 11.7349 1.20296 12.0246 1.49268L13.5549 3.02293C13.8447 3.31265 13.8447 3.78244 13.5549 4.07216C13.2651 4.36194 12.7954 4.36189 12.5056 4.07216L12.2419 3.8085V7.34999C12.2419 7.75977 11.9098 8.09192 11.5 8.09192C11.0902 8.09192 10.7581 7.75977 10.7581 7.34999V3.8085L10.4944 4.07221C10.2046 4.36189 9.73489 4.36189 9.44516 4.07216Z" fill="#FFFBFB"/>
</g>
<defs>
<clipPath id="clip0_120_374">
<rect width="23" height="23" fill="white"/>
</clipPath>
</defs>
</svg>
