<svg width="38" height="39" viewBox="0 0 38 39" fill="none" xmlns="http://www.w3.org/2000/svg">
<circle cx="19" cy="19" r="19" fill="#D0CFCE"/>
<path d="M34.5459 35.546C36.3033 33.7886 36.3033 30.9394 34.5459 29.182C32.7886 27.4247 29.9393 27.4247 28.182 29.182C26.4246 30.9394 26.4246 33.7886 28.182 35.546C29.9393 37.3034 32.7886 37.3034 34.5459 35.546Z" fill="white"/>
<path d="M28.182 29.182C28.8113 28.5527 29.6131 28.1241 30.4861 27.9505C31.359 27.7768 32.2638 27.866 33.086 28.2066C33.9083 28.5472 34.6111 29.1239 35.1056 29.8639C35.6 30.604 35.864 31.474 35.864 32.364C35.864 33.254 35.6 34.1241 35.1056 34.8641C34.6111 35.6041 33.9083 36.1809 33.086 36.5215C32.2638 36.8621 31.359 36.9512 30.4861 36.7775C29.6131 36.6039 28.8113 36.1753 28.182 35.546C27.3393 34.7014 26.866 33.5571 26.866 32.364C26.866 31.1709 27.3393 30.0266 28.182 29.182ZM30.5229 34.5495L32.4246 34.5495C32.5724 34.5495 32.7187 34.5204 32.8552 34.4639C32.9917 34.4074 33.1157 34.3245 33.2202 34.22C33.3247 34.1155 33.4076 33.9915 33.4641 33.855C33.5206 33.7185 33.5497 33.5722 33.5497 33.4244L33.5495 31.5229L33.5492 31.5099C33.5497 31.4598 33.5401 31.4102 33.521 31.3638C33.502 31.3175 33.4739 31.2755 33.4383 31.2402C33.4027 31.2049 33.3605 31.1771 33.314 31.1585C33.2675 31.1398 33.2178 31.1306 33.1677 31.1315C33.1176 31.1324 33.0682 31.1432 33.0224 31.1635C32.9766 31.1838 32.9354 31.213 32.901 31.2495C32.8667 31.286 32.8401 31.329 32.8226 31.3759C32.8052 31.4229 32.7974 31.4729 32.7996 31.5229L32.7996 33.2693L30.04 30.506C29.9697 30.4357 29.8743 30.3962 29.7748 30.3962C29.6754 30.3962 29.58 30.4357 29.5097 30.506C29.4393 30.5763 29.3998 30.6717 29.3998 30.7712C29.3998 30.8706 29.4393 30.966 29.5097 31.0363L32.269 33.7994L30.5229 33.7996C30.4731 33.7988 30.4236 33.8078 30.3774 33.8263C30.3311 33.8447 30.289 33.8722 30.2535 33.9071C30.218 33.942 30.1898 33.9836 30.1705 34.0296C30.1513 34.0755 30.1413 34.1248 30.1413 34.1746C30.1413 34.2244 30.1513 34.2737 30.1705 34.3196C30.1898 34.3655 30.218 34.4071 30.2535 34.442C30.289 34.4769 30.3311 34.5044 30.3774 34.5229C30.4236 34.5413 30.4731 34.5504 30.5229 34.5495Z" fill="#827D7D"/>
<g clip-path="url(#clip0_1_1113)">
<path d="M26.2581 13.8084H21.0323C20.7116 13.8084 20.4516 14.0684 20.4516 14.3891C20.4516 14.7098 20.7116 14.9697 21.0323 14.9697H23.3965C23.6519 16.7471 25.0614 18.1565 26.8387 18.4119V21.3985C25.0613 21.6538 23.6519 23.0633 23.3965 24.8407H14.6035C14.3481 23.0633 12.9386 21.6538 11.1613 21.3985V18.4119C12.9387 18.1565 14.3481 16.7471 14.6035 14.9697H16.9677C17.2884 14.9697 17.5484 14.7098 17.5484 14.3891C17.5484 14.0684 17.2884 13.8084 16.9677 13.8084H11.7419C10.7814 13.8084 10 14.5898 10 15.5503V24.26C10 25.2206 10.7814 26.002 11.7419 26.002H26.2581C27.2186 26.002 28 25.2206 28 24.26V15.5503C28 14.5898 27.2186 13.8084 26.2581 13.8084ZM24.5746 14.9697H26.2581C26.5782 14.9697 26.8387 15.2302 26.8387 15.5503V17.2339C25.7028 17.0024 24.8061 16.1056 24.5746 14.9697ZM11.7419 14.9697H13.4254C13.1939 16.1056 12.2972 17.0024 11.1613 17.2339V15.5503C11.1613 15.2302 11.4218 14.9697 11.7419 14.9697ZM11.1613 24.26V22.5765C12.2972 22.808 13.1939 23.7048 13.4254 24.8407H11.7419C11.4218 24.8407 11.1613 24.5802 11.1613 24.26ZM26.2581 24.8407H24.5746C24.8061 23.7048 25.7028 22.808 26.8387 22.5765V24.26C26.8387 24.5802 26.5782 24.8407 26.2581 24.8407ZM15.8065 19.9052C15.8065 21.6661 17.2391 23.0987 19 23.0987C20.7609 23.0987 22.1935 21.6661 22.1935 19.9052C22.1935 18.1443 20.7609 16.7116 19 16.7116C17.2391 16.7116 15.8065 18.1442 15.8065 19.9052ZM21.0323 19.9052C21.0323 21.0258 20.1206 21.9374 19 21.9374C17.8794 21.9374 16.9677 21.0258 16.9677 19.9052C16.9677 18.7846 17.8794 17.8729 19 17.8729C20.1206 17.8729 21.0323 18.7846 21.0323 19.9052ZM14.3548 19.3245C14.6755 19.3245 14.9355 19.5845 14.9355 19.9052C14.9355 20.2259 14.6755 20.4858 14.3548 20.4858H14.0645C13.7438 20.4858 13.4839 20.2259 13.4839 19.9052C13.4839 19.5845 13.7438 19.3245 14.0645 19.3245H14.3548ZM23.6452 20.4858C23.3245 20.4858 23.0645 20.2259 23.0645 19.9052C23.0645 19.5845 23.3245 19.3245 23.6452 19.3245H23.9355C24.2562 19.3245 24.5161 19.5845 24.5161 19.9052C24.5161 20.2259 24.2562 20.4858 23.9355 20.4858H23.6452ZM17.3919 12.1867C17.1651 11.96 17.1651 11.5923 17.3919 11.3656L18.5894 10.168C18.8162 9.94124 19.1838 9.94124 19.4106 10.168L20.6082 11.3656C20.8349 11.5923 20.8349 11.96 20.6082 12.1867C20.3814 12.4135 20.0138 12.4134 19.787 12.1867L19.5806 11.9804V14.752C19.5806 15.0727 19.3207 15.3326 19 15.3326C18.6793 15.3326 18.4194 15.0727 18.4194 14.752V11.9804L18.213 12.1867C17.9862 12.4134 17.6186 12.4134 17.3919 12.1867Z" fill="#827D7D"/>
</g>
<defs>
<clipPath id="clip0_1_1113">
<rect width="18" height="18" fill="white" transform="translate(10 9)"/>
</clipPath>
</defs>
</svg>
