<svg width="38" height="39" viewBox="0 0 38 39" fill="none" xmlns="http://www.w3.org/2000/svg">
<circle cx="19" cy="19" r="19" fill="#D0CFCE"/>
<path d="M24.9625 14.152L22.3488 11.5382C21.3573 10.5467 20.0388 10.0007 18.6363 10.0007H15.25C13.1823 9.99998 11.5 11.6822 11.5 13.75V24.25C11.5 26.3177 13.1823 28 15.25 28H22.75C24.8178 28 26.5 26.3177 26.5 24.25V17.8637C26.5 16.4612 25.954 15.1442 24.9625 14.152ZM23.902 15.2125C24.1405 15.451 24.3423 15.7157 24.5058 16H21.25C20.8368 16 20.5 15.6632 20.5 15.25V11.9942C20.7843 12.1577 21.0498 12.3595 21.2875 12.598L23.9013 15.2117L23.902 15.2125ZM25 24.25C25 25.4905 23.9905 26.5 22.75 26.5H15.25C14.0095 26.5 13 25.4905 13 24.25V13.75C13 12.5095 14.0095 11.5 15.25 11.5H18.6363C18.7585 11.5 18.88 11.506 19 11.5172V15.25C19 16.4905 20.0095 17.5 21.25 17.5H24.9828C24.994 17.62 25 17.7415 25 17.8637V24.25ZM21.625 19.75H16.375C15.3415 19.75 14.5 20.5915 14.5 21.625V23.125C14.5 24.1585 15.3415 25 16.375 25H21.625C22.6585 25 23.5 24.1585 23.5 23.125V21.625C23.5 20.5915 22.6585 19.75 21.625 19.75ZM22 23.125C22 23.332 21.832 23.5 21.625 23.5H16.375C16.168 23.5 16 23.332 16 23.125V21.625C16 21.418 16.168 21.25 16.375 21.25H21.625C21.832 21.25 22 21.418 22 21.625V23.125ZM14.5 17.5C14.5 17.086 14.836 16.75 15.25 16.75H16.75C17.164 16.75 17.5 17.086 17.5 17.5C17.5 17.914 17.164 18.25 16.75 18.25H15.25C14.836 18.25 14.5 17.914 14.5 17.5ZM14.5 14.5C14.5 14.086 14.836 13.75 15.25 13.75H16.75C17.164 13.75 17.5 14.086 17.5 14.5C17.5 14.914 17.164 15.25 16.75 15.25H15.25C14.836 15.25 14.5 14.914 14.5 14.5Z" fill="#827D7D"/>
<path d="M34.5459 29.182C36.3033 30.9394 36.3033 33.7886 34.5459 35.546C32.7886 37.3034 29.9393 37.3034 28.182 35.546C26.4246 33.7886 26.4246 30.9394 28.182 29.182C29.9393 27.4247 32.7886 27.4247 34.5459 29.182Z" fill="white"/>
<path d="M28.182 35.546C28.8113 36.1753 29.6131 36.6039 30.4861 36.7775C31.359 36.9512 32.2638 36.8621 33.086 36.5215C33.9083 36.1809 34.6111 35.6041 35.1056 34.8641C35.6 34.1241 35.864 33.254 35.864 32.364C35.864 31.474 35.6 30.604 35.1056 29.8639C34.6111 29.1239 33.9083 28.5472 33.086 28.2066C32.2638 27.866 31.359 27.7768 30.4861 27.9505C29.6131 28.1241 28.8113 28.5527 28.182 29.182C27.3393 30.0266 26.866 31.1709 26.866 32.364C26.866 33.5571 27.3393 34.7014 28.182 35.546ZM30.5229 30.1785L32.4246 30.1785C32.5724 30.1785 32.7187 30.2076 32.8552 30.2641C32.9917 30.3207 33.1157 30.4036 33.2202 30.508C33.3247 30.6125 33.4076 30.7365 33.4641 30.873C33.5206 31.0096 33.5497 31.1559 33.5497 31.3036L33.5495 33.2051L33.5492 33.2181C33.5497 33.2682 33.5401 33.3179 33.521 33.3642C33.502 33.4105 33.4739 33.4526 33.4383 33.4878C33.4027 33.5231 33.3605 33.5509 33.314 33.5696C33.2675 33.5882 33.2178 33.5974 33.1677 33.5965C33.1176 33.5957 33.0682 33.5848 33.0224 33.5645C32.9766 33.5442 32.9354 33.515 32.901 33.4785C32.8667 33.442 32.8401 33.399 32.8226 33.3521C32.8052 33.3051 32.7974 33.2552 32.7996 33.2051L32.7996 31.4587L30.04 34.222C29.9697 34.2924 29.8743 34.3319 29.7748 34.3319C29.6754 34.3319 29.58 34.2924 29.5097 34.222C29.4393 34.1517 29.3998 34.0563 29.3998 33.9569C29.3998 33.8574 29.4393 33.762 29.5097 33.6917L32.269 30.9287L30.5229 30.9284C30.4731 30.9293 30.4236 30.9202 30.3774 30.9018C30.3311 30.8833 30.289 30.8558 30.2535 30.8209C30.218 30.786 30.1898 30.7444 30.1705 30.6985C30.1513 30.6526 30.1413 30.6033 30.1413 30.5535C30.1413 30.5037 30.1513 30.4544 30.1705 30.4085C30.1898 30.3625 30.218 30.3209 30.2535 30.286C30.289 30.2511 30.3311 30.2236 30.3774 30.2052C30.4236 30.1867 30.4731 30.1777 30.5229 30.1785Z" fill="#827D7D"/>
</svg>
