<svg width="23" height="23" viewBox="0 0 23 23" fill="none" xmlns="http://www.w3.org/2000/svg">
<g id="picture (1) 1" clip-path="url(#clip0_1_2087)">
<path id="Vector" d="M18.6875 0H4.3125C3.16914 0.00126828 2.07298 0.456027 1.2645 1.2645C0.456027 2.07298 0.00126828 3.16914 0 4.3125L0 18.6875C0.00126828 19.8309 0.456027 20.927 1.2645 21.7355C2.07298 22.544 3.16914 22.9987 4.3125 23H18.6875C19.8309 22.9987 20.927 22.544 21.7355 21.7355C22.544 20.927 22.9987 19.8309 23 18.6875V4.3125C22.9987 3.16914 22.544 2.07298 21.7355 1.2645C20.927 0.456027 19.8309 0.00126828 18.6875 0ZM4.3125 2.875H18.6875C19.0687 2.875 19.4344 3.02645 19.704 3.29603C19.9735 3.56562 20.125 3.93125 20.125 4.3125V18.6875C20.1253 18.8763 20.0881 19.0632 20.0157 19.2376C19.9434 19.4119 19.8372 19.5702 19.7033 19.7033L11.3352 11.3352C10.6163 10.6165 9.64146 10.2128 8.625 10.2128C7.60854 10.2128 6.63369 10.6165 5.91483 11.3352L2.875 14.375V4.3125C2.875 3.93125 3.02645 3.56562 3.29603 3.29603C3.56562 3.02645 3.93125 2.875 4.3125 2.875Z" fill="black"/>
<path id="Vector_2" d="M14.8542 9.58317C16.1774 9.58317 17.25 8.51052 17.25 7.18734C17.25 5.86416 16.1774 4.7915 14.8542 4.7915C13.531 4.7915 12.4584 5.86416 12.4584 7.18734C12.4584 8.51052 13.531 9.58317 14.8542 9.58317Z" fill="black"/>
</g>
<defs>
<clipPath id="clip0_1_2087">
<rect width="23" height="23" fill="white"/>
</clipPath>
</defs>
</svg>
