<svg width="48" height="48" viewBox="0 0 48 48" fill="none" xmlns="http://www.w3.org/2000/svg">
<g id="purse 1" clip-path="url(#clip0_1_2171)">
<path id="Vector" d="M42.308 44.0115H5.69222C3.74072 44.0115 2.15869 42.4295 2.15869 40.478V9.98861C2.15869 8.03711 3.74072 6.45508 5.69222 6.45508H42.308C44.2595 6.45508 45.8415 8.03711 45.8415 9.98861V40.478C45.8415 42.4295 44.2595 44.0115 42.308 44.0115Z" fill="url(#paint0_linear_1_2171)"/>
<path id="Vector_2" d="M41.4912 43.174H6.5086C4.6441 43.174 3.13257 41.6624 3.13257 39.7979V10.6685C3.13257 8.80401 4.64401 7.29248 6.5086 7.29248H41.4911C43.3556 7.29248 44.8672 8.80392 44.8672 10.6685V39.798C44.8673 41.6625 43.3557 43.174 41.4912 43.174Z" fill="url(#paint1_linear_1_2171)"/>
<path id="Vector_3" d="M43.4737 16.3172L34.6664 1.06262C34.0798 0.0464619 32.7803 -0.301726 31.7642 0.285056L3.99561 16.3172H43.4737Z" fill="url(#paint2_linear_1_2171)"/>
<path id="Vector_4" d="M2.15869 28.5944H45.8415V17.0245C45.8415 15.5642 44.6577 14.3804 43.1974 14.3804H4.80282C3.34247 14.3804 2.15869 15.5642 2.15869 17.0245V28.5944Z" fill="url(#paint3_linear_1_2171)"/>
<path id="Vector_5" d="M2.15869 24.243V40.4777C2.15869 42.4292 3.74072 44.0114 5.69232 44.0114H42.308C44.2595 44.0114 45.8415 42.4293 45.8415 40.4778V24.243C45.8415 23.0377 44.8644 22.0605 43.659 22.0605H4.34119C3.13585 22.0605 2.15869 23.0376 2.15869 24.243Z" fill="url(#paint4_linear_1_2171)"/>
<path id="Vector_6" d="M39.2512 15.8696V44.0116H42.3079C44.2594 44.0116 45.8415 42.4296 45.8415 40.4781V22.4599L39.2512 15.8696Z" fill="url(#paint5_linear_1_2171)"/>
<path id="Vector_7" d="M36.2717 47.9734L5.60729 44.412C3.64154 44.1837 2.15869 42.5188 2.15869 40.5398V9.7251C2.15869 10.3873 2.65491 10.9444 3.31257 11.0208L37.171 14.9533C39.1368 15.1816 40.6196 16.8465 40.6196 18.8255V44.1013C40.6196 46.4324 38.5872 48.2425 36.2717 47.9734Z" fill="url(#paint6_linear_1_2171)"/>
<path id="Vector_8" d="M36.2717 41.8184L5.60729 38.257C3.64154 38.0286 2.15869 36.3637 2.15869 34.3848V40.5398C2.15869 42.5188 3.64154 44.1838 5.60729 44.4121L36.2717 47.9735C38.5872 48.2424 40.6197 46.4324 40.6197 44.1012V37.9461C40.6196 40.2773 38.5872 42.0873 36.2717 41.8184Z" fill="url(#paint7_linear_1_2171)"/>
<path id="Vector_9" d="M4.90787 14.528C4.88218 14.528 4.85612 14.5265 4.82996 14.5237L3.42671 14.3694C3.03915 14.3267 2.75949 13.9782 2.80215 13.5907C2.84481 13.2032 3.19365 12.9239 3.58084 12.9661L4.98409 13.1205C5.37165 13.1631 5.65131 13.5117 5.60865 13.8991C5.5689 14.2606 5.26309 14.528 4.90787 14.528Z" fill="url(#paint8_linear_1_2171)"/>
<path id="Vector_10" d="M33.7421 45.6477C33.7125 45.6477 33.6823 45.6457 33.6521 45.642L30.9248 45.2952C30.5382 45.2461 30.2644 44.8926 30.3137 44.5058C30.3629 44.1192 30.7162 43.847 31.103 43.8946L33.8303 44.2414C34.2169 44.2906 34.4908 44.644 34.4415 45.0308C34.396 45.3872 34.0923 45.6477 33.7421 45.6477ZM36.4265 45.2983C36.1618 45.2983 35.9078 45.1486 35.7875 44.893C35.6213 44.5404 35.7725 44.1197 36.1252 43.9537C36.8414 43.6162 37.38 43.0565 37.603 42.4179C37.7315 42.05 38.1343 41.856 38.5022 41.9842C38.8701 42.1127 39.0644 42.5153 38.9359 42.8834C38.5836 43.8919 37.7992 44.7256 36.7269 45.2308C36.6297 45.2765 36.5274 45.2983 36.4265 45.2983ZM28.2876 44.9541C28.258 44.9541 28.2278 44.9521 28.1976 44.9484L25.4704 44.6016C25.0837 44.5525 24.8099 44.1991 24.8592 43.8122C24.9084 43.4256 25.2618 43.1534 25.6486 43.2011L28.3759 43.5479C28.7625 43.597 29.0363 43.9504 28.987 44.3372C28.9415 44.6936 28.6376 44.9541 28.2876 44.9541ZM22.8332 44.2605C22.8035 44.2605 22.7734 44.2585 22.7432 44.2547L20.0159 43.908C19.6293 43.8588 19.3554 43.5054 19.4047 43.1186C19.4539 42.732 19.8074 42.4584 20.1941 42.5074L22.9214 42.8542C23.308 42.9033 23.5819 43.2568 23.5325 43.6436C23.4871 43.9999 23.1831 44.2605 22.8332 44.2605ZM17.3785 43.5668C17.3489 43.5668 17.3188 43.5648 17.2885 43.5611L14.5611 43.2142C14.1744 43.165 13.9007 42.8116 13.95 42.4248C13.9992 42.0381 14.3527 41.7659 14.7394 41.8137L17.4667 42.1606C17.8534 42.2098 18.1272 42.5631 18.0779 42.9499C18.0326 43.3065 17.7287 43.5668 17.3785 43.5668ZM11.924 42.8731C11.8944 42.8731 11.8643 42.8712 11.834 42.8674L9.10667 42.5206C8.71995 42.4713 8.4462 42.118 8.49551 41.7312C8.54473 41.3445 8.89826 41.0721 9.28489 41.12L12.0123 41.4669C12.399 41.5161 12.6727 41.8695 12.6234 42.2563C12.578 42.6128 12.2742 42.8731 11.924 42.8731ZM38.4278 40.6255C38.0379 40.6255 37.722 40.3096 37.722 39.9197V37.1704C37.722 36.7805 38.0379 36.4646 38.4278 36.4646C38.8177 36.4646 39.1337 36.7805 39.1337 37.1704V39.9197C39.1338 40.3096 38.8178 40.6255 38.4278 40.6255ZM38.4278 35.1271C38.0379 35.1271 37.722 34.8112 37.722 34.4213V31.6721C37.722 31.2822 38.0379 30.9662 38.4278 30.9662C38.8177 30.9662 39.1337 31.2822 39.1337 31.6721V34.4213C39.1338 34.8111 38.8178 35.1271 38.4278 35.1271ZM38.4278 29.6287C38.0379 29.6287 37.722 29.3128 37.722 28.9229V26.1736C37.722 25.7837 38.0379 25.4678 38.4278 25.4678C38.8177 25.4678 39.1337 25.7837 39.1337 26.1736V28.9229C39.1338 29.3127 38.8178 29.6287 38.4278 29.6287ZM38.4278 24.1303C38.0379 24.1303 37.722 23.8143 37.722 23.4244V20.6752C37.722 20.2853 38.0379 19.9694 38.4278 19.9694C38.8177 19.9694 39.1337 20.2853 39.1337 20.6752V23.4244C39.1338 23.8142 38.8178 24.1303 38.4278 24.1303ZM37.4406 18.9136C37.2664 18.9136 37.0917 18.8493 36.9553 18.7201C36.4321 18.2243 35.706 17.9085 34.9105 17.8306L34.8919 17.8286C34.5042 17.7869 34.2238 17.4388 34.2656 17.0512C34.3073 16.6636 34.6553 16.3831 35.043 16.425L35.055 16.4263C36.1544 16.534 37.1764 16.9849 37.9264 17.6953C38.2094 17.9634 38.2214 18.4102 37.9533 18.6932C37.8143 18.8396 37.6277 18.9136 37.4406 18.9136ZM32.2354 17.5322C32.2097 17.5322 32.1836 17.5307 32.1574 17.5279L29.4247 17.2275C29.0373 17.1848 28.7575 16.8362 28.8002 16.4488C28.8428 16.0613 29.1917 15.7824 29.5789 15.8242L32.3116 16.1247C32.699 16.1673 32.9788 16.5159 32.9361 16.9034C32.8965 17.2647 32.5906 17.5322 32.2354 17.5322ZM26.77 16.9313C26.7443 16.9313 26.7183 16.9298 26.6921 16.927L23.9593 16.6265C23.5718 16.5839 23.2921 16.2353 23.3347 15.8478C23.3773 15.4603 23.7267 15.1811 24.1134 15.2233L26.8462 15.5237C27.2337 15.5664 27.5134 15.915 27.4708 16.3024C27.431 16.6638 27.1252 16.9313 26.77 16.9313ZM21.3044 16.3305C21.2787 16.3305 21.2526 16.329 21.2265 16.3262L18.4938 16.0257C18.1063 15.983 17.8265 15.6345 17.8692 15.247C17.9118 14.8595 18.2604 14.5803 18.6479 14.6224L21.3806 14.9229C21.7681 14.9656 22.0478 15.3141 22.0052 15.7016C21.9655 16.0629 21.6597 16.3305 21.3044 16.3305ZM15.8389 15.7296C15.8132 15.7296 15.7871 15.7281 15.7609 15.7253L13.0282 15.4248C12.6407 15.3822 12.361 15.0336 12.4037 14.6462C12.4462 14.2588 12.7945 13.9797 13.1824 14.0216L15.9151 14.3221C16.3025 14.3647 16.5823 14.7133 16.5396 15.1007C16.5001 15.4621 16.1942 15.7296 15.8389 15.7296ZM10.3733 15.1287C10.3476 15.1287 10.3216 15.1272 10.2954 15.1244L7.5627 14.8239C7.17523 14.7812 6.89548 14.4327 6.93813 14.0452C6.98079 13.6578 7.32917 13.3788 7.71682 13.4207L10.4495 13.7211C10.8371 13.7638 11.1168 14.1123 11.0741 14.4998C11.0344 14.8611 10.7285 15.1287 10.3733 15.1287Z" fill="url(#paint9_linear_1_2171)"/>
<path id="Vector_11" d="M6.4629 42.1788C6.43327 42.1788 6.40327 42.177 6.37299 42.1731L4.97246 41.9951C4.58574 41.946 4.3119 41.5925 4.36121 41.2058C4.41033 40.8191 4.76377 40.5455 5.15049 40.5946L6.55102 40.7726C6.93774 40.8217 7.21158 41.1751 7.16227 41.5619C7.1169 41.9184 6.81296 42.1788 6.4629 42.1788Z" fill="url(#paint10_linear_1_2171)"/>
<path id="Vector_12" d="M32.3971 5.25622L27.8795 7.71453C27.291 8.03468 26.5544 7.81728 26.2342 7.22881C25.914 6.64034 26.1314 5.90375 26.7199 5.5835L31.2376 3.12528C31.8261 2.80512 32.5627 3.02253 32.8829 3.611C33.2031 4.19937 32.9857 4.93606 32.3971 5.25622Z" fill="#61DB99"/>
<path id="Vector_13" d="M40.6195 34.1084L36.1363 29.6252C35.5037 28.9364 34.5961 28.5044 33.5872 28.5044C31.676 28.5044 30.1267 30.0538 30.1267 31.9649C30.1267 32.9737 30.5587 33.8815 31.2475 34.514L40.6196 43.886V34.1084H40.6195Z" fill="url(#paint11_linear_1_2171)"/>
<path id="Vector_14" d="M33.587 35.4249C35.4981 35.4249 37.0475 33.8756 37.0475 31.9644C37.0475 30.0532 35.4981 28.5039 33.587 28.5039C31.6758 28.5039 30.1265 30.0532 30.1265 31.9644C30.1265 33.8756 31.6758 35.4249 33.587 35.4249Z" fill="url(#paint12_linear_1_2171)"/>
<path id="Vector_15" d="M33.5869 34.3525C34.9059 34.3525 35.9751 33.2833 35.9751 31.9644C35.9751 30.6454 34.9059 29.5762 33.5869 29.5762C32.268 29.5762 31.1987 30.6454 31.1987 31.9644C31.1987 33.2833 32.268 34.3525 33.5869 34.3525Z" fill="url(#paint13_linear_1_2171)"/>
<path id="Vector_16" d="M32.6795 31.5513C32.9524 31.5513 33.1736 31.3301 33.1736 31.0571C33.1736 30.7842 32.9524 30.563 32.6795 30.563C32.4065 30.563 32.1853 30.7842 32.1853 31.0571C32.1853 31.3301 32.4065 31.5513 32.6795 31.5513Z" fill="url(#paint14_linear_1_2171)"/>
<path id="Vector_17" d="M34.4942 31.5513C34.7671 31.5513 34.9883 31.3301 34.9883 31.0571C34.9883 30.7842 34.7671 30.563 34.4942 30.563C34.2212 30.563 34 30.7842 34 31.0571C34 31.3301 34.2212 31.5513 34.4942 31.5513Z" fill="url(#paint15_linear_1_2171)"/>
<path id="Vector_18" d="M32.6795 33.3667C32.9524 33.3667 33.1736 33.1455 33.1736 32.8726C33.1736 32.5997 32.9524 32.3784 32.6795 32.3784C32.4065 32.3784 32.1853 32.5997 32.1853 32.8726C32.1853 33.1455 32.4065 33.3667 32.6795 33.3667Z" fill="url(#paint16_linear_1_2171)"/>
<path id="Vector_19" d="M34.4942 33.3667C34.7671 33.3667 34.9883 33.1455 34.9883 32.8726C34.9883 32.5997 34.7671 32.3784 34.4942 32.3784C34.2212 32.3784 34 32.5997 34 32.8726C34 33.1455 34.2212 33.3667 34.4942 33.3667Z" fill="url(#paint17_linear_1_2171)"/>
</g>
<defs>
<linearGradient id="paint0_linear_1_2171" x1="24.7139" y1="4.29033" x2="24.4589" y2="11.7684" gradientUnits="userSpaceOnUse">
<stop stop-color="#FFB92D"/>
<stop offset="1" stop-color="#F59500"/>
</linearGradient>
<linearGradient id="paint1_linear_1_2171" x1="25.9366" y1="9.25556" x2="25.242" y2="14.9844" gradientUnits="userSpaceOnUse">
<stop stop-color="#FFB92D"/>
<stop offset="1" stop-color="#F59500"/>
</linearGradient>
<linearGradient id="paint2_linear_1_2171" x1="23.7341" y1="9.42484" x2="23.7341" y2="13.789" gradientUnits="userSpaceOnUse">
<stop stop-color="#A7F3CE"/>
<stop offset="1" stop-color="#61DB99"/>
</linearGradient>
<linearGradient id="paint3_linear_1_2171" x1="23.9996" y1="16.9793" x2="23.9996" y2="29.2256" gradientUnits="userSpaceOnUse">
<stop stop-color="#FF4C54"/>
<stop offset="1" stop-color="#BE3F45"/>
</linearGradient>
<linearGradient id="paint4_linear_1_2171" x1="23.9996" y1="26.0728" x2="23.9996" y2="44.9862" gradientUnits="userSpaceOnUse">
<stop stop-color="#FF4C54"/>
<stop offset="1" stop-color="#BE3F45"/>
</linearGradient>
<linearGradient id="paint5_linear_1_2171" x1="43.3563" y1="29.941" x2="40.1696" y2="29.941" gradientUnits="userSpaceOnUse">
<stop stop-color="#BE3F45" stop-opacity="0"/>
<stop offset="1" stop-color="#BE3F45"/>
</linearGradient>
<linearGradient id="paint6_linear_1_2171" x1="14.8557" y1="26.6695" x2="31.0671" y2="34.1475" gradientUnits="userSpaceOnUse">
<stop stop-color="#FFB92D"/>
<stop offset="1" stop-color="#F59500"/>
</linearGradient>
<linearGradient id="paint7_linear_1_2171" x1="20.8723" y1="43.3197" x2="20.2022" y2="48.4415" gradientUnits="userSpaceOnUse">
<stop stop-color="#BE3F45" stop-opacity="0"/>
<stop offset="1" stop-color="#BE3F45"/>
</linearGradient>
<linearGradient id="paint8_linear_1_2171" x1="4.20526" y1="12.9626" x2="4.20526" y2="45.7158" gradientUnits="userSpaceOnUse">
<stop stop-color="#FFF465"/>
<stop offset="1" stop-color="#FFE600"/>
</linearGradient>
<linearGradient id="paint9_linear_1_2171" x1="23.0333" y1="12.9634" x2="23.0333" y2="45.6479" gradientUnits="userSpaceOnUse">
<stop stop-color="#FFF465"/>
<stop offset="1" stop-color="#FFE600"/>
</linearGradient>
<linearGradient id="paint10_linear_1_2171" x1="5.76155" y1="12.9618" x2="5.76155" y2="45.714" gradientUnits="userSpaceOnUse">
<stop stop-color="#FFF465"/>
<stop offset="1" stop-color="#FFE600"/>
</linearGradient>
<linearGradient id="paint11_linear_1_2171" x1="38.2052" y1="36.5841" x2="28.5076" y2="26.8864" gradientUnits="userSpaceOnUse">
<stop stop-color="#BE3F45" stop-opacity="0"/>
<stop offset="1" stop-color="#BE3F45"/>
</linearGradient>
<linearGradient id="paint12_linear_1_2171" x1="33.5862" y1="29.7926" x2="33.5862" y2="34.7967" gradientUnits="userSpaceOnUse">
<stop stop-color="#FF4C54"/>
<stop offset="1" stop-color="#BE3F45"/>
</linearGradient>
<linearGradient id="paint13_linear_1_2171" x1="33.5862" y1="33.464" x2="33.5862" y2="30.0109" gradientUnits="userSpaceOnUse">
<stop stop-color="#FF4C54"/>
<stop offset="1" stop-color="#BE3F45"/>
</linearGradient>
<linearGradient id="paint14_linear_1_2171" x1="27.9951" y1="10.3737" x2="28.9833" y2="14.7378" gradientUnits="userSpaceOnUse">
<stop stop-color="#A7F3CE"/>
<stop offset="1" stop-color="#61DB99"/>
</linearGradient>
<linearGradient id="paint15_linear_1_2171" x1="29.8098" y1="10.3739" x2="30.798" y2="14.738" gradientUnits="userSpaceOnUse">
<stop stop-color="#A7F3CE"/>
<stop offset="1" stop-color="#61DB99"/>
</linearGradient>
<linearGradient id="paint16_linear_1_2171" x1="27.6041" y1="10.4621" x2="28.5923" y2="14.8263" gradientUnits="userSpaceOnUse">
<stop stop-color="#A7F3CE"/>
<stop offset="1" stop-color="#61DB99"/>
</linearGradient>
<linearGradient id="paint17_linear_1_2171" x1="29.4187" y1="10.4623" x2="30.4069" y2="14.8265" gradientUnits="userSpaceOnUse">
<stop stop-color="#A7F3CE"/>
<stop offset="1" stop-color="#61DB99"/>
</linearGradient>
<clipPath id="clip0_1_2171">
<rect width="48" height="48" fill="white"/>
</clipPath>
</defs>
</svg>
