<svg width="29" height="29" viewBox="0 0 29 29" fill="none" xmlns="http://www.w3.org/2000/svg">
<g clip-path="url(#clip0_120_387)">
<path d="M26.7939 28.3397H20.643C19.7938 28.3397 19.1053 27.6512 19.1053 26.802C19.1053 25.9527 19.7938 25.2643 20.643 25.2643H26.7939C27.6431 25.2643 28.3315 25.9527 28.3315 26.802C28.3316 27.6512 27.6431 28.3397 26.7939 28.3397ZM14.4923 28.3397C13.643 28.3397 12.9546 27.6512 12.9546 26.802V20.6511C12.9546 19.8018 13.643 19.1134 14.4923 19.1134H17.5677C18.417 19.1134 19.1054 19.8019 19.1054 20.6511C19.1054 21.5004 18.417 22.1888 17.5677 22.1888H16.03V26.8019C16.03 27.6512 15.3416 28.3397 14.4923 28.3397ZM6.80389 28.3397H3.72845C2.90714 28.3397 2.13493 28.0198 1.55396 27.439C0.97298 26.8581 0.653076 26.0858 0.653076 25.2642V22.1889C0.653076 21.3673 0.97298 20.595 1.5539 20.0142C2.13493 19.4333 2.90714 19.1134 3.72845 19.1134H6.80389C7.6252 19.1134 8.39746 19.4333 8.97838 20.0142C9.55936 20.595 9.87926 21.3673 9.87926 22.1889V25.2643C9.87926 26.0859 9.55936 26.8582 8.97844 27.4389C8.39741 28.0197 7.6252 28.3397 6.80389 28.3397ZM3.72845 22.1888L3.72851 25.2642L3.72845 25.2643H6.80389L6.80383 22.1888L3.72845 22.1888ZM26.7939 22.1888H23.7184C22.8692 22.1888 22.1807 21.5004 22.1807 20.6511C22.1807 19.8018 22.8692 19.1134 23.7184 19.1134H26.7939C27.6431 19.1134 28.3315 19.8019 28.3315 20.6511C28.3316 21.5004 27.6431 22.1888 26.7939 22.1888ZM26.8092 16.0381H26.7939C25.9446 16.0381 25.2562 15.3496 25.2562 14.5004C25.2562 13.6511 25.9447 12.9626 26.7939 12.9626H26.8092C27.6585 12.9626 28.347 13.6511 28.347 14.5004C28.347 15.3496 27.6585 16.0381 26.8092 16.0381ZM20.6585 16.0381H14.4923C13.643 16.0381 12.9546 15.3496 12.9546 14.5004V9.88726C12.9546 9.03799 13.643 8.34954 14.4923 8.34954C15.3416 8.34954 16.03 9.03799 16.03 9.88726V12.9626H20.6584C21.5077 12.9626 22.1961 13.6511 22.1961 14.5004C22.1961 15.3496 21.5078 16.0381 20.6585 16.0381ZM8.34154 16.0381H2.19079C1.34152 16.0381 0.653076 15.3496 0.653076 14.5004C0.653076 13.6511 1.34152 12.9626 2.19079 12.9626H8.34154C9.19076 12.9626 9.87926 13.6511 9.87926 14.5004C9.87926 15.3496 9.19076 16.0381 8.34154 16.0381ZM25.2561 9.88726H22.1808C21.3592 9.88726 20.587 9.56736 20.0062 8.98644C19.4253 8.4054 19.1054 7.6332 19.1054 6.81188V3.73651C19.1054 2.9152 19.4253 2.14299 20.0061 1.56201C20.587 0.981037 21.3593 0.661133 22.1809 0.661133H25.2562C26.0777 0.661133 26.8501 0.981037 27.4309 1.56195C28.0117 2.14299 28.3316 2.9152 28.3316 3.73651V6.81194C28.3316 7.63325 28.0117 8.40546 27.4309 8.98644C26.8501 9.56736 26.0777 9.88726 25.2561 9.88726ZM25.2561 3.73651L22.1808 3.73657L22.1808 6.81194L22.1808 6.81188H25.2561V3.73651ZM6.80389 9.88726H3.72845C2.90702 9.88726 2.13482 9.56736 1.5539 8.98661C0.97298 8.40558 0.653076 7.63331 0.653076 6.81188V3.73651C0.653076 2.91508 0.97298 2.14287 1.55372 1.56195C2.13476 0.980978 2.90702 0.661133 3.72845 0.661133H6.80389C7.62531 0.661133 8.39752 0.981037 8.97844 1.56178C9.55936 2.14281 9.87926 2.91508 9.87926 3.73645V6.81188C9.87926 7.63331 9.55936 8.40552 8.97861 8.98644C8.39752 9.56741 7.62526 9.88726 6.80389 9.88726ZM3.72851 6.81188H6.80389L6.80383 3.73651L3.72845 3.73657L3.72851 6.81188ZM14.4923 5.27417C13.643 5.27417 12.9546 4.58572 12.9546 3.73645V2.19885C12.9546 1.34958 13.643 0.661133 14.4923 0.661133C15.3416 0.661133 16.03 1.34958 16.03 2.19885V3.73651C16.03 4.58572 15.3416 5.27417 14.4923 5.27417Z" fill="white"/>
</g>
<defs>
<clipPath id="clip0_120_387">
<rect width="27.6939" height="27.6939" fill="white" transform="translate(0.653076 0.65332)"/>
</clipPath>
</defs>
</svg>
