<svg width="23" height="23" viewBox="0 0 23 23" fill="none" xmlns="http://www.w3.org/2000/svg">
<g id="receipt 1" clip-path="url(#clip0_88_6840)">
<path id="Vector" d="M15.3333 0H7.66667C6.3963 0.0015217 5.17841 0.506845 4.28013 1.40513C3.38185 2.30341 2.87652 3.5213 2.875 4.79167V22.0417C2.87514 22.216 2.92281 22.3869 3.01289 22.5362C3.10297 22.6854 3.23204 22.8072 3.38621 22.8886C3.54038 22.9699 3.71382 23.0076 3.88784 22.9977C4.06187 22.9878 4.22989 22.9306 4.37383 22.8323L6.39208 21.4532L8.41033 22.8323C8.56979 22.9415 8.75853 22.9999 8.95179 22.9999C9.14505 22.9999 9.33379 22.9415 9.49325 22.8323L11.5057 21.4532L13.5182 22.8323C13.6778 22.9417 13.8667 23.0002 14.0602 23.0002C14.2536 23.0002 14.4426 22.9417 14.6021 22.8323L16.6146 21.4542L18.6271 22.8313C18.771 22.9293 18.9388 22.9863 19.1126 22.9961C19.2864 23.0059 19.4596 22.9682 19.6136 22.8871C19.7676 22.8059 19.8965 22.6843 19.9866 22.5353C20.0767 22.3864 20.1246 22.2157 20.125 22.0417V4.79167C20.1235 3.5213 19.6182 2.30341 18.7199 1.40513C17.8216 0.506845 16.6037 0.0015217 15.3333 0ZM18.2083 20.2208L17.1542 19.5002C16.9945 19.3906 16.8054 19.3319 16.6117 19.3319C16.4181 19.3319 16.229 19.3906 16.0693 19.5002L14.0568 20.8792L12.0443 19.5002C11.8848 19.3908 11.6959 19.3322 11.5024 19.3322C11.3089 19.3322 11.12 19.3908 10.9605 19.5002L8.94796 20.8792L6.93546 19.5002C6.7761 19.3912 6.58754 19.3329 6.39448 19.3329C6.20142 19.3329 6.01286 19.3912 5.8535 19.5002L4.79167 20.2208V4.79167C4.79167 4.02917 5.09457 3.2979 5.63373 2.75873C6.1729 2.21957 6.90417 1.91667 7.66667 1.91667H15.3333C16.0958 1.91667 16.8271 2.21957 17.3663 2.75873C17.9054 3.2979 18.2083 4.02917 18.2083 4.79167V20.2208Z" fill="white"/>
<path id="Vector_2" d="M15.3333 7.66675H7.66666C7.13739 7.66675 6.70833 8.09581 6.70833 8.62508C6.70833 9.15435 7.13739 9.58341 7.66666 9.58341H15.3333C15.8626 9.58341 16.2917 9.15435 16.2917 8.62508C16.2917 8.09581 15.8626 7.66675 15.3333 7.66675Z" fill="white"/>
<path id="Vector_3" d="M13.4167 11.5H7.66666C7.13739 11.5 6.70833 11.9291 6.70833 12.4583C6.70833 12.9876 7.13739 13.4167 7.66666 13.4167H13.4167C13.9459 13.4167 14.375 12.9876 14.375 12.4583C14.375 11.9291 13.9459 11.5 13.4167 11.5Z" fill="white"/>
</g>
<defs>
<clipPath id="clip0_88_6840">
<rect width="23" height="23" fill="white"/>
</clipPath>
</defs>
</svg>
