<svg width="23" height="23" viewBox="0 0 23 23" fill="none" xmlns="http://www.w3.org/2000/svg">
<g id="life-ring (1) 1" clip-path="url(#clip0_88_6847)">
<path id="Vector" d="M20.5736 18.54C22.1459 16.5302 23.0002 14.0519 23.0002 11.5001C23.0002 8.94831 22.1459 6.46998 20.5736 4.46017L22.1002 2.93355C22.3699 2.66388 22.5214 2.29813 22.5214 1.91676C22.5214 1.53538 22.3699 1.16963 22.1002 0.899963C21.9667 0.766436 21.8082 0.660517 21.6337 0.588253C21.4592 0.515988 21.2723 0.478794 21.0834 0.478794C20.702 0.478794 20.3363 0.630293 20.0666 0.899963L18.54 2.42659C16.5302 0.854255 14.0519 0 11.5001 0C8.94831 0 6.46998 0.854255 4.46017 2.42659L2.93355 0.899963C2.66388 0.630293 2.29813 0.478794 1.91676 0.478794C1.53538 0.478794 1.16963 0.630293 0.899963 0.899963C0.630293 1.16963 0.478794 1.53538 0.478794 1.91676C0.478794 2.29813 0.630293 2.66388 0.899963 2.93355L2.42659 4.46017C0.854255 6.46998 0 8.94831 0 11.5001C0 14.0519 0.854255 16.5302 2.42659 18.54L0.899963 20.0666C0.630293 20.3363 0.478794 20.702 0.478794 21.0834C0.478794 21.4648 0.630293 21.8305 0.899963 22.1002C1.16963 22.3699 1.53538 22.5214 1.91676 22.5214C2.29813 22.5214 2.66388 22.3699 2.93355 22.1002L4.46017 20.5736C6.46998 22.1459 8.94831 23.0002 11.5001 23.0002C14.0519 23.0002 16.5302 22.1459 18.54 20.5736L20.0666 22.1002C20.3363 22.3699 20.702 22.5214 21.0834 22.5214C21.4648 22.5214 21.8305 22.3699 22.1002 22.1002C22.3699 21.8305 22.5214 21.4648 22.5214 21.0834C22.5214 20.702 22.3699 20.3363 22.1002 20.0666L20.5736 18.54ZM20.1251 11.5001C20.125 13.2896 19.5647 15.0342 18.5228 16.4892L15.9563 13.9237C16.3759 13.1849 16.5965 12.3498 16.5965 11.5001C16.5965 10.6504 16.3759 9.8153 15.9563 9.07646L18.5228 6.511C19.5647 7.96593 20.125 9.71055 20.1251 11.5001ZM9.27867 11.5001C9.27867 11.0607 9.40896 10.6312 9.65305 10.2659C9.89714 9.90063 10.2441 9.6159 10.65 9.44777C11.0559 9.27963 11.5026 9.23564 11.9335 9.32136C12.3644 9.40707 12.7602 9.61864 13.0709 9.92931C13.3815 10.24 13.5931 10.6358 13.6788 11.0667C13.7645 11.4976 13.7205 11.9443 13.5524 12.3502C13.3843 12.7561 13.0996 13.103 12.7342 13.3471C12.3689 13.5912 11.9394 13.7215 11.5001 13.7215C10.9112 13.7207 10.3466 13.4865 9.93015 13.07C9.51372 12.6536 9.27943 12.089 9.27867 11.5001ZM11.5001 2.87509C13.2896 2.87517 15.0342 3.43548 16.4892 4.47742L13.9237 7.04384C13.1849 6.62423 12.3498 6.40363 11.5001 6.40363C10.6504 6.40363 9.8153 6.62423 9.07646 7.04384L6.511 4.47742C7.96593 3.43548 9.71055 2.87517 11.5001 2.87509ZM2.87509 11.5001C2.87517 9.71055 3.43548 7.96593 4.47742 6.511L7.04384 9.07646C6.62423 9.8153 6.40363 10.6504 6.40363 11.5001C6.40363 12.3498 6.62423 13.1849 7.04384 13.9237L4.47742 16.4892C3.43548 15.0342 2.87517 13.2896 2.87509 11.5001ZM11.5001 20.1251C9.71055 20.125 7.96593 19.5647 6.511 18.5228L9.07646 15.9563C9.8153 16.3759 10.6504 16.5965 11.5001 16.5965C12.3498 16.5965 13.1849 16.3759 13.9237 15.9563L16.4892 18.5228C15.0342 19.5647 13.2896 20.125 11.5001 20.1251Z" fill="white"/>
</g>
<defs>
<clipPath id="clip0_88_6847">
<rect width="23" height="23" fill="white"/>
</clipPath>
</defs>
</svg>
