<svg width="23" height="22" viewBox="0 0 23 22" fill="none" xmlns="http://www.w3.org/2000/svg">
<path id="Vector" d="M19.1094 2.87751C16.8658 0.89754 13.9388 -0.129962 10.9499 0.0131769C7.961 0.156316 5.14559 1.45882 3.10148 3.64413C1.05737 5.82945 -0.0544686 8.72545 0.0020542 11.7172C0.058577 14.709 1.27901 17.561 3.4042 19.6675C4.30159 20.5475 5.50919 21.0391 6.76604 21.036H16.1261C17.3162 21.0522 18.467 20.6103 19.3403 19.8017C20.4893 18.7048 21.3997 17.3827 22.0146 15.918C22.6295 14.4534 22.9356 12.8776 22.914 11.2893C22.8923 9.7009 22.5432 8.13409 21.8886 6.68675C21.234 5.23941 20.2879 3.94265 19.1094 2.87751ZM18.0245 18.4092C17.5056 18.8797 16.8264 19.1337 16.1261 19.1193H6.76604C6.01012 19.1218 5.28368 18.8264 4.74395 18.2971C3.37689 16.9609 2.44068 15.2464 2.05565 13.374C1.67062 11.5015 1.85437 9.55671 2.58329 7.78952C3.31221 6.02233 4.55297 4.51351 6.14611 3.45701C7.73924 2.4005 9.61194 1.84459 11.5235 1.86073C13.435 1.87687 15.2981 2.46432 16.8731 3.54757C18.4482 4.63083 19.6633 6.16038 20.3623 7.93962C21.0613 9.71887 21.2122 11.6665 20.7956 13.5322C20.379 15.3978 19.414 17.0963 18.0245 18.4092ZM18.2162 11.4431C18.0916 11.461 17.9647 11.4542 17.8428 11.423C17.7208 11.3918 17.6062 11.3369 17.5054 11.2615C17.4047 11.186 17.3198 11.0914 17.2556 10.9832C17.1915 10.8749 17.1492 10.755 17.1314 10.6304C16.9296 9.26431 16.2446 8.01583 15.2008 7.11166C14.157 6.20749 12.8236 5.70758 11.4427 5.70268C6.39421 5.60685 3.7377 12.1101 7.42441 15.5591C7.60614 15.7371 7.70975 15.9799 7.71245 16.2342C7.71514 16.4885 7.6167 16.7335 7.43879 16.9152C7.26087 17.0969 7.01805 17.2005 6.76374 17.2032C6.50944 17.2059 6.26447 17.1075 6.08275 16.9296C1.17608 12.2653 4.67591 3.70455 11.4427 3.78601C13.2846 3.79274 15.0632 4.4595 16.4555 5.66534C17.8479 6.87117 18.7619 8.53618 19.0317 10.3583C19.0496 10.4829 19.0428 10.6099 19.0115 10.7319C18.9803 10.8539 18.9254 10.9686 18.8498 11.0693C18.7742 11.1701 18.6795 11.2549 18.5712 11.3191C18.4628 11.3832 18.3428 11.4254 18.2181 11.4431H18.2162ZM18.5037 14.5519C18.4531 14.6672 18.3804 14.7714 18.2895 14.8586C18.1987 14.9458 18.0915 15.0142 17.9742 15.0599C17.8569 15.1057 17.7318 15.1279 17.6059 15.1252C17.48 15.1226 17.3559 15.0951 17.2406 15.0445L12.5764 12.9975C12.2369 13.2481 11.8242 13.3796 11.4023 13.3716C10.9804 13.3637 10.5729 13.2167 10.243 12.9536C9.91317 12.6904 9.67938 12.3258 9.57791 11.9162C9.47644 11.5066 9.51297 11.075 9.68184 10.6883C9.85071 10.3016 10.1425 9.9814 10.5119 9.77743C10.8813 9.57346 11.3076 9.4971 11.7249 9.56018C12.1421 9.62326 12.5268 9.82227 12.8194 10.1263C13.112 10.4304 13.2961 10.8225 13.3431 11.2418L18.0073 13.2888C18.123 13.339 18.2277 13.4114 18.3154 13.5021C18.4031 13.5927 18.472 13.6998 18.5182 13.8171C18.5644 13.9345 18.587 14.0598 18.5847 14.1859C18.5823 14.312 18.5542 14.4364 18.5037 14.5519Z" fill="white"/>
</svg>
