<svg width="23" height="23" viewBox="0 0 23 23" fill="none" xmlns="http://www.w3.org/2000/svg">
<g id="money (2) 1" clip-path="url(#clip0_1_1079)">
<path id="Vector" d="M20.7742 6.1441H14.0968C13.687 6.1441 13.3548 6.47625 13.3548 6.88603C13.3548 7.29581 13.687 7.62797 14.0968 7.62797H17.1178C17.4441 9.89908 19.2451 11.7 21.5161 12.0263V15.8425C19.245 16.1688 17.4441 17.9698 17.1178 20.2409H5.88225C5.55594 17.9698 3.75494 16.1688 1.48387 15.8425V12.0263C3.75498 11.7 5.55594 9.89908 5.88225 7.62797H8.90323C9.31301 7.62797 9.64516 7.29581 9.64516 6.88603C9.64516 6.47625 9.31301 6.1441 8.90323 6.1441H2.22581C0.99846 6.1441 0 7.14256 0 8.3699V19.4989C0 20.7263 0.99846 21.7247 2.22581 21.7247H20.7742C22.0015 21.7247 23 20.7263 23 19.4989V8.3699C23 7.14256 22.0015 6.1441 20.7742 6.1441ZM18.623 7.62797H20.7742C21.1833 7.62797 21.5161 7.96082 21.5161 8.3699V10.5211C20.0647 10.2253 18.9188 9.07938 18.623 7.62797ZM2.22581 7.62797H4.37696C4.08116 9.07938 2.93528 10.2253 1.48387 10.5211V8.3699C1.48387 7.96077 1.81672 7.62797 2.22581 7.62797ZM1.48387 19.4989V17.3478C2.93528 17.6436 4.08116 18.7895 4.37696 20.2409H2.22581C1.81672 20.2409 1.48387 19.908 1.48387 19.4989ZM20.7742 20.2409H18.623C18.9188 18.7895 20.0647 17.6436 21.5161 17.3478V19.4989C21.5161 19.908 21.1833 20.2409 20.7742 20.2409ZM7.41935 13.9344C7.41935 16.1845 9.24994 18.0151 11.5 18.0151C13.7501 18.0151 15.5806 16.1845 15.5806 13.9344C15.5806 11.6844 13.7501 9.85378 11.5 9.85378C9.24994 9.85378 7.41935 11.6843 7.41935 13.9344ZM14.0968 13.9344C14.0968 15.3663 12.9319 16.5312 11.5 16.5312C10.0681 16.5312 8.90323 15.3663 8.90323 13.9344C8.90323 12.5025 10.0681 11.3376 11.5 11.3376C12.9319 11.3376 14.0968 12.5025 14.0968 13.9344ZM5.56452 13.1925C5.9743 13.1925 6.30645 13.5246 6.30645 13.9344C6.30645 14.3442 5.9743 14.6764 5.56452 14.6764H5.19355C4.78377 14.6764 4.45161 14.3442 4.45161 13.9344C4.45161 13.5246 4.78377 13.1925 5.19355 13.1925H5.56452ZM17.4355 14.6764C17.0257 14.6764 16.6935 14.3442 16.6935 13.9344C16.6935 13.5246 17.0257 13.1925 17.4355 13.1925H17.8065C18.2162 13.1925 18.5484 13.5246 18.5484 13.9344C18.5484 14.3442 18.2162 14.6764 17.8065 14.6764H17.4355ZM9.44516 4.07192C9.15539 3.78219 9.15539 3.31241 9.44516 3.02268L10.9754 1.49244C11.2651 1.20272 11.7349 1.20272 12.0246 1.49244L13.5549 3.02268C13.8447 3.31241 13.8447 3.78219 13.5549 4.07192C13.2651 4.36169 12.7954 4.36164 12.5056 4.07192L12.2419 3.80825V7.34974C12.2419 7.75952 11.9098 8.09168 11.5 8.09168C11.0902 8.09168 10.7581 7.75952 10.7581 7.34974V3.80825L10.4944 4.07197C10.2046 4.36164 9.73489 4.36164 9.44516 4.07192Z" fill="#FFFBFB"/>
</g>
<defs>
<clipPath id="clip0_1_1079">
<rect width="23" height="23" fill="white"/>
</clipPath>
</defs>
</svg>
