<svg width="23" height="23" viewBox="0 0 23 23" fill="none" xmlns="http://www.w3.org/2000/svg">
<g id="settings (3) 1" clip-path="url(#clip0_1_2098)">
<path id="Vector" d="M11.5 7.6665C10.7418 7.6665 10.0007 7.89133 9.37028 8.31254C8.73989 8.73375 8.24856 9.33243 7.95842 10.0329C7.66829 10.7333 7.59237 11.5041 7.74028 12.2477C7.88819 12.9913 8.25328 13.6743 8.78939 14.2104C9.32549 14.7465 10.0085 15.1116 10.7521 15.2595C11.4957 15.4074 12.2665 15.3315 12.9669 15.0414C13.6674 14.7512 14.266 14.2599 14.6873 13.6295C15.1085 12.9991 15.3333 12.258 15.3333 11.4998C15.3333 10.4832 14.9294 9.50815 14.2105 8.78926C13.4916 8.07037 12.5166 7.6665 11.5 7.6665ZM11.5 13.4165C11.1209 13.4165 10.7503 13.3041 10.4351 13.0935C10.1199 12.8829 9.87426 12.5835 9.72919 12.2333C9.58412 11.8831 9.54617 11.4977 9.62012 11.1259C9.69408 10.7541 9.87662 10.4126 10.1447 10.1445C10.4127 9.8765 10.7542 9.69395 11.126 9.62C11.4978 9.54604 11.8832 9.584 12.2334 9.72907C12.5837 9.87414 12.883 10.1198 13.0936 10.435C13.3042 10.7502 13.4166 11.1208 13.4166 11.4998C13.4166 12.0082 13.2147 12.4957 12.8552 12.8551C12.4958 13.2146 12.0083 13.4165 11.5 13.4165Z" fill="black"/>
<path id="Vector_2" d="M20.4068 13.3208L19.9813 13.0755C20.1728 12.0333 20.1728 10.9648 19.9813 9.92258L20.4068 9.67725C20.734 9.48847 21.0208 9.2371 21.2509 8.93748C21.4809 8.63785 21.6497 8.29585 21.7476 7.93099C21.8455 7.56613 21.8706 7.18557 21.8214 6.81103C21.7722 6.43648 21.6497 6.07529 21.4609 5.74808C21.2722 5.42087 21.0208 5.13405 20.7212 4.90399C20.4215 4.67392 20.0795 4.50513 19.7147 4.40724C19.3498 4.30935 18.9692 4.28429 18.5947 4.33348C18.2202 4.38266 17.859 4.50514 17.5318 4.69392L17.1053 4.94021C16.2999 4.25205 15.3742 3.71857 14.375 3.36662V2.875C14.375 2.1125 14.0721 1.38124 13.5329 0.842068C12.9938 0.302901 12.2625 0 11.5 0C10.7375 0 10.0062 0.302901 9.46708 0.842068C8.92791 1.38124 8.62501 2.1125 8.62501 2.875V3.36662C7.62584 3.71983 6.70053 4.25462 5.89568 4.94404L5.4673 4.69583C4.80647 4.31458 4.02126 4.21146 3.28439 4.40916C2.54753 4.60685 1.91938 5.08917 1.53814 5.75C1.15689 6.41083 1.05377 7.19605 1.25146 7.93291C1.44916 8.66977 1.93147 9.29792 2.5923 9.67917L3.0178 9.9245C2.82624 10.9667 2.82624 12.0352 3.0178 13.0774L2.5923 13.3228C1.93147 13.704 1.44916 14.3321 1.25146 15.069C1.05377 15.8059 1.15689 16.5911 1.53814 17.2519C1.91938 17.9127 2.54753 18.3951 3.28439 18.5928C4.02126 18.7905 4.80647 18.6873 5.4673 18.3061L5.89376 18.0598C6.69949 18.7481 7.62545 19.2815 8.62501 19.6334V20.125C8.62501 20.8875 8.92791 21.6188 9.46708 22.1579C10.0062 22.6971 10.7375 23 11.5 23C12.2625 23 12.9938 22.6971 13.5329 22.1579C14.0721 21.6188 14.375 20.8875 14.375 20.125V19.6334C15.3742 19.2802 16.2995 18.7454 17.1043 18.056L17.5327 18.3032C18.1936 18.6845 18.9788 18.7876 19.7156 18.5899C20.4525 18.3922 21.0806 17.9099 21.4619 17.249C21.8431 16.5882 21.9463 15.803 21.7486 15.0661C21.5509 14.3293 21.0686 13.7011 20.4077 13.3199L20.4068 13.3208ZM17.9649 9.70217C18.2895 10.8781 18.2895 12.12 17.9649 13.2959C17.9083 13.5006 17.9212 13.7183 18.0017 13.9148C18.0822 14.1113 18.2256 14.2756 18.4096 14.3817L19.4484 14.9816C19.6687 15.1087 19.8294 15.3181 19.8953 15.5637C19.9611 15.8093 19.9267 16.071 19.7997 16.2912C19.6726 16.5114 19.4632 16.6722 19.2176 16.738C18.972 16.8039 18.7103 16.7695 18.4901 16.6424L17.4493 16.0406C17.2652 15.934 17.0509 15.8916 16.8401 15.9202C16.6293 15.9489 16.434 16.0468 16.285 16.1987C15.432 17.0695 14.3574 17.6908 13.1771 17.9956C12.9711 18.0485 12.7885 18.1685 12.6582 18.3367C12.5279 18.5048 12.4573 18.7115 12.4574 18.9242V20.125C12.4574 20.3792 12.3564 20.6229 12.1767 20.8026C11.997 20.9824 11.7532 21.0833 11.4991 21.0833C11.2449 21.0833 11.0011 20.9824 10.8214 20.8026C10.6417 20.6229 10.5407 20.3792 10.5407 20.125V18.9252C10.5408 18.7125 10.4702 18.5058 10.3399 18.3376C10.2096 18.1695 10.027 18.0495 9.82101 17.9965C8.64068 17.6905 7.56637 17.0679 6.71409 16.1958C6.5651 16.044 6.3698 15.946 6.15899 15.9174C5.94817 15.8887 5.73382 15.9311 5.54972 16.0377L4.51089 16.6386C4.40185 16.7025 4.28126 16.7442 4.15604 16.7613C4.03082 16.7785 3.90345 16.7706 3.78126 16.7383C3.65908 16.706 3.54449 16.6499 3.44409 16.5731C3.34369 16.4963 3.25947 16.4005 3.19628 16.291C3.13308 16.1816 3.09216 16.0607 3.07587 15.9354C3.05958 15.81 3.06825 15.6827 3.10136 15.5608C3.13447 15.4388 3.19139 15.3246 3.26882 15.2247C3.34626 15.1248 3.44268 15.0412 3.55255 14.9788L4.59139 14.3788C4.77534 14.2727 4.91882 14.1085 4.99931 13.9119C5.07979 13.7154 5.09272 13.4977 5.03605 13.293C4.71152 12.1171 4.71152 10.8752 5.03605 9.69929C5.0917 9.49505 5.07816 9.27814 4.99754 9.08241C4.91693 8.88667 4.77377 8.72314 4.59043 8.61733L3.55159 8.01742C3.33136 7.89033 3.17063 7.68097 3.10476 7.43538C3.03889 7.18979 3.07328 6.92809 3.20036 6.70785C3.32745 6.48762 3.53681 6.32689 3.7824 6.26102C4.02799 6.19515 4.28969 6.22954 4.50993 6.35662L5.55068 6.95846C5.73427 7.06533 5.94818 7.10816 6.15877 7.08023C6.36936 7.0523 6.5647 6.95519 6.71409 6.80417C7.56709 5.93337 8.64171 5.31206 9.82197 5.00729C10.0286 4.95416 10.2116 4.8336 10.342 4.66469C10.4724 4.49578 10.5426 4.2882 10.5417 4.07483V2.875C10.5417 2.62083 10.6426 2.37708 10.8224 2.19736C11.0021 2.01763 11.2458 1.91667 11.5 1.91667C11.7542 1.91667 11.9979 2.01763 12.1777 2.19736C12.3574 2.37708 12.4583 2.62083 12.4583 2.875V4.07483C12.4582 4.28754 12.5289 4.49424 12.6592 4.66237C12.7895 4.8305 12.972 4.95049 13.1781 5.00346C14.3587 5.30931 15.4334 5.93197 16.2859 6.80417C16.4349 6.95603 16.6302 7.054 16.841 7.08263C17.0519 7.11126 17.2662 7.06892 17.4503 6.96229L18.4891 6.36142C18.5982 6.2975 18.7188 6.25578 18.844 6.23866C18.9692 6.22153 19.0966 6.22935 19.2188 6.26166C19.3409 6.29396 19.4555 6.35011 19.5559 6.42688C19.6563 6.50365 19.7405 6.59953 19.8037 6.70898C19.8669 6.81843 19.9079 6.9393 19.9241 7.06463C19.9404 7.18996 19.9318 7.31728 19.8987 7.43925C19.8655 7.56122 19.8086 7.67543 19.7312 7.77532C19.6538 7.8752 19.5573 7.95878 19.4475 8.02125L18.4086 8.62117C18.2256 8.72726 18.0829 8.89091 18.0026 9.08662C17.9224 9.28233 17.9091 9.4991 17.9649 9.70312V9.70217Z" fill="black"/>
</g>
<defs>
<clipPath id="clip0_1_2098">
<rect width="23" height="23" fill="white"/>
</clipPath>
</defs>
</svg>
