<svg width="18" height="18" viewBox="0 0 18 18" fill="none" xmlns="http://www.w3.org/2000/svg">
<g id="Group">
<path id="Vector" d="M2.81773e-05 8.98961C-0.00762663 10.9129 1.54535 12.4783 3.46871 12.486C4.35449 12.4895 5.20835 12.1553 5.85644 11.5515L11.0462 13.8947C11.0101 14.0887 10.9903 14.2854 10.987 14.4827C10.9809 16.4193 12.5458 17.9942 14.4824 18.0003C16.419 18.0065 17.9938 16.4415 18 14.5049C18.0061 12.5683 16.4412 10.9935 14.5046 10.9873C13.3475 10.9837 12.2632 11.551 11.6065 12.5036L6.73064 10.302C7.07696 9.46576 7.0783 8.52643 6.73439 7.68917L11.6035 5.47634C12.6999 7.06211 14.8743 7.45876 16.4601 6.36233C18.0458 5.2659 18.4424 3.09159 17.346 1.50581C16.2496 -0.079959 14.0752 -0.476604 12.4895 0.619823C11.5451 1.2728 10.9822 2.34837 10.984 3.49652C10.9871 3.69414 11.0072 3.89109 11.0439 4.08531L5.86768 6.43744C4.46527 5.12057 2.26086 5.18992 0.943992 6.59233C0.334522 7.24144 -0.00327252 8.09923 2.81773e-05 8.98961Z" fill="#827D7D"/>
</g>
</svg>
