<svg width="23" height="22" viewBox="0 0 23 22" fill="none" xmlns="http://www.w3.org/2000/svg">
<path id="Vector" d="M17.7292 0H5.27083C3.87339 0.001522 2.53362 0.557329 1.54547 1.54547C0.557329 2.53362 0.001522 3.87339 0 5.27083L0 15.8125C0.001522 17.2099 0.557329 18.5497 1.54547 19.5379C2.53362 20.526 3.87339 21.0818 5.27083 21.0833H17.7292C19.1266 21.0818 20.4664 20.526 21.4545 19.5379C22.4427 18.5497 22.9985 17.2099 23 15.8125V5.27083C22.9985 3.87339 22.4427 2.53362 21.4545 1.54547C20.4664 0.557329 19.1266 0.001522 17.7292 0ZM17.7292 2.875C18.3104 2.87693 18.8706 3.09211 19.3037 3.47971L13.0745 9.70887C12.6515 10.113 12.0889 10.3385 11.5038 10.3385C10.9188 10.3385 10.3562 10.113 9.93312 9.70887L3.70396 3.47971C4.13506 3.09386 4.69229 2.87881 5.27083 2.875H17.7292ZM17.7292 18.2083H5.27083C4.63542 18.2083 4.02603 17.9559 3.57672 17.5066C3.12742 17.0573 2.875 16.4479 2.875 15.8125V6.72463L7.89571 11.7453C8.36889 12.2187 8.93071 12.5943 9.54906 12.8505C10.1674 13.1067 10.8302 13.2385 11.4995 13.2385C12.1689 13.2385 12.8316 13.1067 13.45 12.8505C14.0683 12.5943 14.6301 12.2187 15.1033 11.7453L20.125 6.72463V15.8125C20.125 16.4479 19.8726 17.0573 19.4233 17.5066C18.974 17.9559 18.3646 18.2083 17.7292 18.2083Z" fill="black"/>
</svg>
