<svg width="23" height="23" viewBox="0 0 23 23" fill="none" xmlns="http://www.w3.org/2000/svg">
<g id="solar-system 1" clip-path="url(#clip0_1_2096)">
<path id="Vector" d="M16.2917 4.31252C16.2917 2.98906 17.364 1.91669 18.6875 1.91669C20.011 1.91669 21.0833 2.98906 21.0833 4.31252C21.0833 5.63598 20.011 6.70835 18.6875 6.70835C17.364 6.70835 16.2917 5.63598 16.2917 4.31252ZM9.58333 7.66669C9.58333 6.60773 8.72563 5.75002 7.66667 5.75002C6.60771 5.75002 5.75 6.60773 5.75 7.66669C5.75 8.72564 6.60771 9.58335 7.66667 9.58335C8.72563 9.58335 9.58333 8.72564 9.58333 7.66669ZM12.9375 11.5C12.9375 10.7065 12.2935 10.0625 11.5 10.0625C10.7065 10.0625 10.0625 10.7065 10.0625 11.5C10.0625 12.2935 10.7065 12.9375 11.5 12.9375C12.2935 12.9375 12.9375 12.2935 12.9375 11.5ZM22.5668 8.36435C22.4231 7.85452 21.8893 7.55744 21.3842 7.70406C20.8754 7.84781 20.5793 8.37681 20.724 8.88664C20.9626 9.73285 21.0843 10.6126 21.0843 11.501C21.0843 16.7852 16.7852 21.0843 11.501 21.0843C6.21671 21.0843 1.91667 16.7843 1.91667 11.5C1.91667 6.21577 6.21575 1.91669 11.5 1.91669C12.3884 1.91669 13.2681 2.03839 14.1143 2.27702C14.6222 2.42173 15.1532 2.12656 15.2969 1.61673C15.4407 1.10689 15.1455 0.577893 14.6366 0.434143C13.6198 0.146643 12.5657 0.000976696 11.501 0.000976696C5.15871 1.83626e-05 0 5.15873 0 11.5C0 17.8413 5.15871 23 11.5 23C17.8413 23 23 17.8413 23 11.5C23 10.4353 22.8543 9.38019 22.5668 8.36435ZM10.5417 5.75002C10.5417 6.27998 10.97 6.70835 11.5 6.70835C14.1421 6.70835 16.2917 8.85789 16.2917 11.5C16.2917 14.1421 14.1421 16.2917 11.5 16.2917C8.85787 16.2917 6.70833 14.1421 6.70833 11.5C6.70833 10.9701 6.27996 10.5417 5.75 10.5417C5.22004 10.5417 4.79167 10.9701 4.79167 11.5C4.79167 15.1982 7.80179 18.2084 11.5 18.2084C15.1982 18.2084 18.2083 15.1982 18.2083 11.5C18.2083 7.80181 15.1982 4.79169 11.5 4.79169C10.97 4.79169 10.5417 5.22006 10.5417 5.75002Z" fill="black"/>
</g>
<defs>
<clipPath id="clip0_1_2096">
<rect width="23" height="23" fill="white"/>
</clipPath>
</defs>
</svg>
