<svg width="23" height="21" viewBox="0 0 23 21" fill="none" xmlns="http://www.w3.org/2000/svg">
<path d="M20.125 4.75008H4.79167C3.96846 4.75008 3.18933 4.39358 2.64979 3.79271C3.17688 3.20429 3.94258 2.83341 4.79167 2.83341H22.0417C23.2952 2.82766 23.2942 0.92154 22.0417 0.916748H4.79167C2.14571 0.916748 0 3.06246 0 5.70842V15.2917C0 17.9377 2.14571 20.0834 4.79167 20.0834H20.125C21.713 20.0834 23 18.7964 23 17.2084V7.62508C23 6.03712 21.713 4.75008 20.125 4.75008ZM19.1667 13.3751C17.9132 13.3693 17.9132 11.4642 19.1667 11.4584C20.4202 11.4642 20.4202 13.3693 19.1667 13.3751Z" fill="#827D7D"/>
</svg>
