<svg width="23" height="23" viewBox="0 0 23 23" fill="none" xmlns="http://www.w3.org/2000/svg">
<g id="wallet (3) 1" clip-path="url(#clip0_1_1071)">
<path id="Vector" d="M20.125 5.74996H4.79167C3.96846 5.74996 3.18933 5.39346 2.64979 4.79258C3.17688 4.20417 3.94258 3.83329 4.79167 3.83329H22.0417C23.2952 3.82754 23.2942 1.92142 22.0417 1.91663H4.79167C2.14571 1.91663 0 4.06233 0 6.70829V16.2916C0 18.9376 2.14571 21.0833 4.79167 21.0833H20.125C21.713 21.0833 23 19.7963 23 18.2083V8.62496C23 7.037 21.713 5.74996 20.125 5.74996ZM19.1667 14.375C17.9132 14.3692 17.9132 12.464 19.1667 12.4583C20.4202 12.464 20.4202 14.3692 19.1667 14.375Z" fill="white"/>
</g>
<defs>
<clipPath id="clip0_1_1071">
<rect width="23" height="23" fill="white"/>
</clipPath>
</defs>
</svg>
